G04 #@! TF.FileFunction,Soldermask,Bot*
%FSLAX46Y46*%
G04 Gerber Fmt 4.6, Leading zero omitted, Abs format (unit mm)*
G04 Created by KiCad (PCBNEW 4.0.7) date 09/26/18 10:41:12*
%MOMM*%
%LPD*%
G01*
G04 APERTURE LIST*
%ADD10C,0.100000*%
%ADD11C,2.100000*%
%ADD12O,2.100000X2.100000*%
%ADD13R,1.500000X1.000000*%
%ADD14C,0.900000*%
G04 APERTURE END LIST*
D10*
D11*
X165974000Y-130188000D03*
D12*
X165974000Y-127648000D03*
X165974000Y-125108000D03*
X165974000Y-122568000D03*
X165974000Y-120028000D03*
X165974000Y-117488000D03*
X165974000Y-114948000D03*
X165974000Y-112408000D03*
X165974000Y-109868000D03*
D13*
X184023000Y-116459000D03*
X184023000Y-117459000D03*
X184023000Y-118459000D03*
X184023000Y-115459000D03*
X184023000Y-114459000D03*
X168245000Y-116459000D03*
X168245000Y-117459000D03*
X168245000Y-118459000D03*
X168245000Y-115459000D03*
X168245000Y-114459000D03*
D11*
X179944000Y-133098000D03*
D12*
X177404000Y-133098000D03*
X174864000Y-133098000D03*
X172324000Y-133098000D03*
D11*
X186294000Y-109868000D03*
D12*
X186294000Y-112408000D03*
X186294000Y-114948000D03*
X186294000Y-117488000D03*
X186294000Y-120028000D03*
X186294000Y-122568000D03*
X186294000Y-125108000D03*
X186294000Y-127648000D03*
X186294000Y-130188000D03*
D14*
X176833000Y-115048000D03*
X176833000Y-118248000D03*
X180033000Y-118248000D03*
X180033000Y-115048000D03*
X177833000Y-118248000D03*
X176833000Y-117248000D03*
X176833000Y-116048000D03*
X178833000Y-118248000D03*
X178833000Y-117248000D03*
X178833000Y-116048000D03*
X178833000Y-115048000D03*
X180033000Y-117248000D03*
X180033000Y-116048000D03*
X177833000Y-116048000D03*
X177833000Y-115048000D03*
X177833000Y-117248000D03*
M02*
