G04 #@! TF.FileFunction,Copper,L2,Bot,Signal*
%FSLAX46Y46*%
G04 Gerber Fmt 4.6, Leading zero omitted, Abs format (unit mm)*
G04 Created by KiCad (PCBNEW 4.0.7) date 09/26/18 10:41:12*
%MOMM*%
%LPD*%
G01*
G04 APERTURE LIST*
%ADD10C,0.100000*%
%ADD11C,1.700000*%
%ADD12O,1.700000X1.700000*%
%ADD13R,1.100000X0.600000*%
%ADD14C,0.500000*%
%ADD15C,0.600000*%
%ADD16C,0.400000*%
%ADD17C,0.160000*%
%ADD18C,0.254000*%
G04 APERTURE END LIST*
D10*
D11*
X165974000Y-130188000D03*
D12*
X165974000Y-127648000D03*
X165974000Y-125108000D03*
X165974000Y-122568000D03*
X165974000Y-120028000D03*
X165974000Y-117488000D03*
X165974000Y-114948000D03*
X165974000Y-112408000D03*
X165974000Y-109868000D03*
D13*
X184023000Y-116459000D03*
X184023000Y-117459000D03*
X184023000Y-118459000D03*
X184023000Y-115459000D03*
X184023000Y-114459000D03*
X168245000Y-116459000D03*
X168245000Y-117459000D03*
X168245000Y-118459000D03*
X168245000Y-115459000D03*
X168245000Y-114459000D03*
D11*
X179944000Y-133098000D03*
D12*
X177404000Y-133098000D03*
X174864000Y-133098000D03*
X172324000Y-133098000D03*
D11*
X186294000Y-109868000D03*
D12*
X186294000Y-112408000D03*
X186294000Y-114948000D03*
X186294000Y-117488000D03*
X186294000Y-120028000D03*
X186294000Y-122568000D03*
X186294000Y-125108000D03*
X186294000Y-127648000D03*
X186294000Y-130188000D03*
D14*
X176833000Y-115048000D03*
X176833000Y-118248000D03*
X180033000Y-118248000D03*
X180033000Y-115048000D03*
X177833000Y-118248000D03*
X176833000Y-117248000D03*
X176833000Y-116048000D03*
X178833000Y-118248000D03*
X178833000Y-117248000D03*
X178833000Y-116048000D03*
X178833000Y-115048000D03*
X180033000Y-117248000D03*
X180033000Y-116048000D03*
X177833000Y-116048000D03*
X177833000Y-115048000D03*
X177833000Y-117248000D03*
D15*
X183134000Y-130175000D03*
X183261000Y-126365000D03*
X184931010Y-126493262D03*
X169799000Y-129159000D03*
X176149000Y-131064000D03*
X181864000Y-109855000D03*
X181864000Y-109093000D03*
X181864000Y-108204000D03*
X168402000Y-109093000D03*
X170053000Y-109093000D03*
X171323000Y-109093000D03*
X172720000Y-109093000D03*
X174371000Y-109093000D03*
X175895000Y-109093000D03*
X180848000Y-109855000D03*
X180848000Y-109093000D03*
X179832000Y-109855000D03*
X177292000Y-110109000D03*
X171673520Y-113852960D03*
X170561000Y-119634000D03*
X166865300Y-108153200D03*
X168376600Y-108153200D03*
X170027600Y-108153200D03*
X171297600Y-108153200D03*
X172758100Y-108153200D03*
X174371000Y-108153200D03*
X175869600Y-108140500D03*
X177337000Y-108140000D03*
X177338000Y-109098000D03*
X179794000Y-108141000D03*
X180800000Y-108141000D03*
X179794000Y-109099000D03*
X175514000Y-119824500D03*
X173291500Y-111950500D03*
X176276000Y-129032000D03*
X178435000Y-125222000D03*
X169926000Y-125222000D03*
D14*
X180889590Y-120881656D03*
X181006467Y-120231732D03*
X180855490Y-121534993D03*
X180080830Y-121635428D03*
X179433715Y-121540693D03*
X178818946Y-121317554D03*
X178165120Y-121333155D03*
X168783000Y-119761000D03*
X178027549Y-120687044D03*
X177517010Y-121245490D03*
X168275000Y-119253000D03*
X182011485Y-114021697D03*
X180467000Y-127648000D03*
X179117010Y-112367578D03*
X175006000Y-113919000D03*
X174495340Y-114511240D03*
X179535867Y-111854951D03*
X180715807Y-111355010D03*
X173988738Y-116198689D03*
X174117000Y-116840000D03*
X174372262Y-117481311D03*
X173101000Y-115570000D03*
X174535948Y-115163990D03*
X181269640Y-112664240D03*
X180527960Y-112659160D03*
X181991000Y-125603000D03*
X182440978Y-114994953D03*
X182499000Y-127127000D03*
X182625991Y-115634368D03*
X183037990Y-124903694D03*
X182845542Y-116304100D03*
D16*
X186294000Y-130188000D02*
X183147000Y-130188000D01*
X183147000Y-130188000D02*
X183134000Y-130175000D01*
X176149000Y-131064000D02*
X174244000Y-129159000D01*
X174244000Y-129159000D02*
X169799000Y-129159000D01*
X181864000Y-109093000D02*
X181864000Y-109855000D01*
X180800000Y-108141000D02*
X181801000Y-108141000D01*
X181801000Y-108141000D02*
X181864000Y-108204000D01*
X170053000Y-109093000D02*
X168402000Y-109093000D01*
X171323000Y-109093000D02*
X170053000Y-109093000D01*
X172720000Y-109093000D02*
X171323000Y-109093000D01*
X174371000Y-109093000D02*
X172720000Y-109093000D01*
X175895000Y-109093000D02*
X174371000Y-109093000D01*
X177338000Y-109098000D02*
X175900000Y-109098000D01*
X175900000Y-109098000D02*
X175895000Y-109093000D01*
X179832000Y-109855000D02*
X180848000Y-109855000D01*
X179794000Y-109099000D02*
X180842000Y-109099000D01*
X180842000Y-109099000D02*
X180848000Y-109093000D01*
X179794000Y-109099000D02*
X179794000Y-109817000D01*
X179794000Y-109817000D02*
X179832000Y-109855000D01*
X177338000Y-109098000D02*
X177338000Y-110063000D01*
X177338000Y-110063000D02*
X177292000Y-110109000D01*
X168376600Y-108153200D02*
X166865300Y-108153200D01*
X171297600Y-108153200D02*
X170027600Y-108153200D01*
X174371000Y-108153200D02*
X172758100Y-108153200D01*
X177337000Y-108140000D02*
X175870100Y-108140000D01*
X175870100Y-108140000D02*
X175869600Y-108140500D01*
X177338000Y-109098000D02*
X177338000Y-108141000D01*
X177338000Y-108141000D02*
X177337000Y-108140000D01*
X179794000Y-108141000D02*
X180800000Y-108141000D01*
X178435000Y-125222000D02*
X177419000Y-125222000D01*
X177419000Y-125222000D02*
X176738001Y-125222000D01*
X176738001Y-125222000D02*
X175976001Y-125984000D01*
X169926000Y-125222000D02*
X173863000Y-125222000D01*
X175976001Y-128732001D02*
X175976001Y-125984000D01*
X173863000Y-125222000D02*
X175214001Y-125222000D01*
X175214001Y-125222000D02*
X175976001Y-125984000D01*
X176276000Y-129032000D02*
X175976001Y-128732001D01*
D17*
X171196000Y-123634500D02*
X168211500Y-123634500D01*
X167132000Y-126490000D02*
X165974000Y-127648000D01*
X167132000Y-124714000D02*
X167132000Y-126490000D01*
X168211500Y-123634500D02*
X167132000Y-124714000D01*
X181339500Y-122000000D02*
X181339500Y-121331566D01*
X171196000Y-123634500D02*
X179705000Y-123634500D01*
X179705000Y-123634500D02*
X181339500Y-122000000D01*
X181339500Y-121331566D02*
X181100000Y-121092066D01*
X181100000Y-121092066D02*
X180889590Y-120881656D01*
X169672000Y-124079001D02*
X168528999Y-124079001D01*
X167640000Y-128522000D02*
X165974000Y-130188000D01*
X167640000Y-124968000D02*
X167640000Y-128522000D01*
X168528999Y-124079001D02*
X167640000Y-124968000D01*
X181832251Y-122078750D02*
X181832251Y-121057516D01*
X179832000Y-124079001D02*
X181832251Y-122078750D01*
X169672000Y-124079001D02*
X179832000Y-124079001D01*
X181832251Y-121057516D02*
X181006467Y-120231732D01*
X178054000Y-123294939D02*
X179219061Y-123294939D01*
X179219061Y-123294939D02*
X180855490Y-121658510D01*
X180855490Y-121658510D02*
X180855490Y-121534993D01*
X165974000Y-125108000D02*
X167787061Y-123294939D01*
X167787061Y-123294939D02*
X178054000Y-123294939D01*
X179830831Y-121885427D02*
X180080830Y-121635428D01*
X167480581Y-122872500D02*
X178843758Y-122872500D01*
X167176081Y-122568000D02*
X167480581Y-122872500D01*
X165974000Y-122568000D02*
X167176081Y-122568000D01*
X178843758Y-122872500D02*
X179830831Y-121885427D01*
X179183716Y-121790692D02*
X179433715Y-121540693D01*
X168367021Y-122421021D02*
X178553387Y-122421021D01*
X165974000Y-120028000D02*
X168367021Y-122421021D01*
X178553387Y-122421021D02*
X179183716Y-121790692D01*
X178383043Y-122107010D02*
X178818946Y-121671107D01*
X178818946Y-121671107D02*
X178818946Y-121317554D01*
X165974000Y-117488000D02*
X167071998Y-118585998D01*
X167071998Y-118585998D02*
X167071998Y-120081998D01*
X167071998Y-120081998D02*
X169097010Y-122107010D01*
X169097010Y-122107010D02*
X178383043Y-122107010D01*
X167386000Y-119888000D02*
X169291000Y-121793000D01*
X177915121Y-121583154D02*
X178165120Y-121333155D01*
X177705275Y-121793000D02*
X177915121Y-121583154D01*
X169291000Y-121793000D02*
X177705275Y-121793000D01*
X167386000Y-119524400D02*
X167386000Y-119888000D01*
X167386000Y-119524400D02*
X167386000Y-119634000D01*
X167386000Y-119634000D02*
X167386000Y-119524400D01*
X167386000Y-119524400D02*
X167386000Y-119524400D01*
X165974000Y-114948000D02*
X167386000Y-116360000D01*
X167386000Y-116360000D02*
X167386000Y-119524400D01*
X168783000Y-119761000D02*
X169672000Y-120650000D01*
X169709044Y-120687044D02*
X170017434Y-120687044D01*
X178027549Y-120687044D02*
X170017434Y-120687044D01*
X177163457Y-121245490D02*
X177517010Y-121245490D01*
X169762030Y-121245490D02*
X177163457Y-121245490D01*
X170235880Y-121245490D02*
X177517010Y-121245490D01*
X169762030Y-121245490D02*
X169551168Y-121245490D01*
X168275000Y-119606553D02*
X168275000Y-119253000D01*
X169551168Y-121245490D02*
X168275000Y-119969322D01*
X168275000Y-119969322D02*
X168275000Y-119606553D01*
X170235880Y-121245490D02*
X169869182Y-121245490D01*
X170235880Y-121245490D02*
X169762030Y-121245490D01*
X180472500Y-125227500D02*
X180472500Y-127642500D01*
X180472500Y-127642500D02*
X180467000Y-127648000D01*
X181483000Y-127648000D02*
X181089000Y-127648000D01*
X180467000Y-125233000D02*
X180472500Y-125227500D01*
X180472500Y-125227500D02*
X182933032Y-122766968D01*
X182933032Y-122766968D02*
X182933032Y-120322032D01*
X182933032Y-120322032D02*
X181687462Y-119076462D01*
X181687462Y-119076462D02*
X181687462Y-114345720D01*
X181687462Y-114345720D02*
X182011485Y-114021697D01*
X181483000Y-127648000D02*
X180467000Y-127648000D01*
X186294000Y-127648000D02*
X181483000Y-127648000D01*
X185799000Y-128143000D02*
X186294000Y-127648000D01*
X180594000Y-112153021D02*
X182320521Y-112153021D01*
X182320521Y-112153021D02*
X182924997Y-112757497D01*
X182924997Y-112757497D02*
X182924997Y-112820997D01*
X182924997Y-113709988D02*
X182924988Y-113709988D01*
X182924997Y-112820997D02*
X182924997Y-113709988D01*
X183773000Y-116459000D02*
X183110001Y-115796001D01*
X182924988Y-115076268D02*
X182924988Y-113709988D01*
X183110001Y-115796001D02*
X183110001Y-115261281D01*
X183110001Y-115261281D02*
X182924988Y-115076268D01*
X179732422Y-112367578D02*
X179470563Y-112367578D01*
X184023000Y-116459000D02*
X183773000Y-116459000D01*
X182924988Y-113709988D02*
X182924988Y-113709988D01*
X179470563Y-112367578D02*
X179117010Y-112367578D01*
X180594000Y-112153021D02*
X179946979Y-112153021D01*
X179946979Y-112153021D02*
X179732422Y-112367578D01*
X184023000Y-116459000D02*
X184273000Y-116459000D01*
X182118000Y-110871000D02*
X183896000Y-110871000D01*
X184807001Y-111782001D02*
X184807001Y-113433001D01*
X183896000Y-110871000D02*
X184807001Y-111782001D01*
X184273000Y-117459000D02*
X184807001Y-116924999D01*
X184023000Y-117459000D02*
X184273000Y-117459000D01*
X184807001Y-116924999D02*
X184807001Y-113433001D01*
X182118000Y-110871000D02*
X178054000Y-110871000D01*
X178054000Y-110871000D02*
X175006000Y-113919000D01*
X183773000Y-117459000D02*
X184023000Y-117459000D01*
X184404000Y-110490000D02*
X177673000Y-110490000D01*
X185166000Y-111252000D02*
X184404000Y-110490000D01*
X174495340Y-113667660D02*
X174495340Y-114157687D01*
X184273000Y-118459000D02*
X185166000Y-117566000D01*
X185166000Y-117566000D02*
X185166000Y-111252000D01*
X174495340Y-114157687D02*
X174495340Y-114511240D01*
X184023000Y-118459000D02*
X184273000Y-118459000D01*
X177673000Y-110490000D02*
X174495340Y-113667660D01*
X181673500Y-111839011D02*
X182832011Y-111839011D01*
X183238999Y-112245999D02*
X183238999Y-113198921D01*
X182832011Y-111839011D02*
X183238999Y-112245999D01*
X183238999Y-114924999D02*
X183238999Y-114046000D01*
X183773000Y-115459000D02*
X183238999Y-114924999D01*
X184023000Y-115459000D02*
X183773000Y-115459000D01*
X179551807Y-111839011D02*
X179535867Y-111854951D01*
X181673500Y-111839011D02*
X179551807Y-111839011D01*
X183238999Y-114046000D02*
X183238999Y-113198921D01*
X183238999Y-114046000D02*
X183238999Y-113836988D01*
X184023000Y-115459000D02*
X184273000Y-115459000D01*
X181903088Y-111355010D02*
X183300510Y-111355010D01*
X184023000Y-112077500D02*
X184023000Y-113474922D01*
X183300510Y-111355010D02*
X184023000Y-112077500D01*
X181903088Y-111355010D02*
X181069360Y-111355010D01*
X181069360Y-111355010D02*
X180715807Y-111355010D01*
X184023000Y-114459000D02*
X184023000Y-113474922D01*
X173728427Y-116459000D02*
X173738739Y-116448688D01*
X168245000Y-116459000D02*
X173728427Y-116459000D01*
X173738739Y-116448688D02*
X173988738Y-116198689D01*
X168245000Y-117459000D02*
X173498000Y-117459000D01*
X173498000Y-117459000D02*
X174117000Y-116840000D01*
X168245000Y-118459000D02*
X173394573Y-118459000D01*
X173394573Y-118459000D02*
X174122263Y-117731310D01*
X174122263Y-117731310D02*
X174372262Y-117481311D01*
X172085000Y-115459000D02*
X172990000Y-115459000D01*
X172990000Y-115459000D02*
X173101000Y-115570000D01*
X168245000Y-115459000D02*
X172085000Y-115459000D01*
X174350091Y-115163990D02*
X174535948Y-115163990D01*
X168245000Y-114459000D02*
X173645101Y-114459000D01*
X173645101Y-114459000D02*
X174350091Y-115163990D01*
X179944000Y-133098000D02*
X179944000Y-125237000D01*
X179944000Y-125237000D02*
X182580280Y-122600720D01*
X182580280Y-122600720D02*
X182580280Y-120492520D01*
X182580280Y-120492520D02*
X181269640Y-119181880D01*
X181269640Y-119181880D02*
X181269640Y-112664240D01*
X177404000Y-133098000D02*
X177404000Y-127297322D01*
X177404000Y-127297322D02*
X177419000Y-127282322D01*
X182173880Y-120675400D02*
X180527960Y-119029480D01*
X177419000Y-127282322D02*
X182173880Y-122527442D01*
X182173880Y-122527442D02*
X182173880Y-120675400D01*
X180527960Y-119029480D02*
X180527960Y-113012713D01*
X180527960Y-113012713D02*
X180527960Y-112659160D01*
X181991000Y-125603000D02*
X181991000Y-124309000D01*
X181991000Y-124309000D02*
X183247041Y-123052959D01*
X182001473Y-118882473D02*
X183247041Y-120128041D01*
X182001473Y-115434458D02*
X182001473Y-118882473D01*
X182440978Y-114994953D02*
X182001473Y-115434458D01*
X183247041Y-120128041D02*
X183247041Y-123052959D01*
X182499000Y-124460000D02*
X182499000Y-127127000D01*
X183688053Y-123270947D02*
X182499000Y-124460000D01*
X183688053Y-123056025D02*
X183688053Y-123270947D01*
X183688053Y-123056025D02*
X183688053Y-120061053D01*
X182375992Y-115884367D02*
X182625991Y-115634368D01*
X182331360Y-115928999D02*
X182375992Y-115884367D01*
X182331360Y-118704360D02*
X182331360Y-115928999D01*
X183688053Y-120061053D02*
X182331360Y-118704360D01*
X184065561Y-123876123D02*
X183287989Y-124653695D01*
X184065561Y-119930561D02*
X184065561Y-123876123D01*
X182845542Y-116304100D02*
X182845542Y-118710542D01*
X183287989Y-124653695D02*
X183037990Y-124903694D01*
X182845542Y-118710542D02*
X184065561Y-119930561D01*
D18*
G36*
X179016041Y-125174750D02*
X179016100Y-125106939D01*
X178927835Y-124893320D01*
X178764540Y-124729740D01*
X178551075Y-124641102D01*
X178319939Y-124640900D01*
X178106320Y-124729165D01*
X178094464Y-124741000D01*
X176738001Y-124741000D01*
X176553930Y-124777614D01*
X176522620Y-124798535D01*
X176397883Y-124881881D01*
X175976001Y-125303764D01*
X175554119Y-124881882D01*
X175398072Y-124777614D01*
X175214001Y-124741000D01*
X170266780Y-124741000D01*
X170255540Y-124729740D01*
X170042075Y-124641102D01*
X169810939Y-124640900D01*
X169597320Y-124729165D01*
X169433740Y-124892460D01*
X169345102Y-125105925D01*
X169344900Y-125337061D01*
X169433165Y-125550680D01*
X169596460Y-125714260D01*
X169809925Y-125802898D01*
X170041061Y-125803100D01*
X170254680Y-125714835D01*
X170266536Y-125703000D01*
X175014765Y-125703000D01*
X175495001Y-126183237D01*
X175495001Y-128732001D01*
X175504350Y-128779000D01*
X175531615Y-128916072D01*
X175635883Y-129072119D01*
X175694914Y-129131150D01*
X175694900Y-129147061D01*
X175783165Y-129360680D01*
X175946460Y-129524260D01*
X176159925Y-129612898D01*
X176391061Y-129613100D01*
X176604680Y-129524835D01*
X176768260Y-129361540D01*
X176856898Y-129148075D01*
X176857100Y-128916939D01*
X176768835Y-128703320D01*
X176605540Y-128539740D01*
X176457001Y-128478062D01*
X176457001Y-126183236D01*
X176937238Y-125703000D01*
X178094220Y-125703000D01*
X178105460Y-125714260D01*
X178318925Y-125802898D01*
X178387832Y-125802958D01*
X177163734Y-127027056D01*
X177163732Y-127027059D01*
X177148734Y-127042056D01*
X177070479Y-127159173D01*
X177042999Y-127297322D01*
X177043000Y-127297327D01*
X177043000Y-132016649D01*
X176971185Y-132030934D01*
X176604262Y-132276104D01*
X176359092Y-132643027D01*
X176333438Y-132772000D01*
X173394562Y-132772000D01*
X173368908Y-132643027D01*
X173123738Y-132276104D01*
X172756815Y-132030934D01*
X172324000Y-131944842D01*
X171891185Y-132030934D01*
X171524262Y-132276104D01*
X171279092Y-132643027D01*
X171253438Y-132772000D01*
X167294065Y-132772000D01*
X166911895Y-132695982D01*
X166617636Y-132499364D01*
X166421017Y-132205104D01*
X166345000Y-131822935D01*
X166345000Y-131258450D01*
X166613823Y-131147375D01*
X166932256Y-130829497D01*
X167104804Y-130413957D01*
X167105196Y-129964017D01*
X166989214Y-129683318D01*
X167895263Y-128777268D01*
X167895266Y-128777266D01*
X167973521Y-128660149D01*
X168001001Y-128522000D01*
X168001000Y-128521995D01*
X168001000Y-125117532D01*
X168678530Y-124440001D01*
X179750790Y-124440001D01*
X179016041Y-125174750D01*
X179016041Y-125174750D01*
G37*
X179016041Y-125174750D02*
X179016100Y-125106939D01*
X178927835Y-124893320D01*
X178764540Y-124729740D01*
X178551075Y-124641102D01*
X178319939Y-124640900D01*
X178106320Y-124729165D01*
X178094464Y-124741000D01*
X176738001Y-124741000D01*
X176553930Y-124777614D01*
X176522620Y-124798535D01*
X176397883Y-124881881D01*
X175976001Y-125303764D01*
X175554119Y-124881882D01*
X175398072Y-124777614D01*
X175214001Y-124741000D01*
X170266780Y-124741000D01*
X170255540Y-124729740D01*
X170042075Y-124641102D01*
X169810939Y-124640900D01*
X169597320Y-124729165D01*
X169433740Y-124892460D01*
X169345102Y-125105925D01*
X169344900Y-125337061D01*
X169433165Y-125550680D01*
X169596460Y-125714260D01*
X169809925Y-125802898D01*
X170041061Y-125803100D01*
X170254680Y-125714835D01*
X170266536Y-125703000D01*
X175014765Y-125703000D01*
X175495001Y-126183237D01*
X175495001Y-128732001D01*
X175504350Y-128779000D01*
X175531615Y-128916072D01*
X175635883Y-129072119D01*
X175694914Y-129131150D01*
X175694900Y-129147061D01*
X175783165Y-129360680D01*
X175946460Y-129524260D01*
X176159925Y-129612898D01*
X176391061Y-129613100D01*
X176604680Y-129524835D01*
X176768260Y-129361540D01*
X176856898Y-129148075D01*
X176857100Y-128916939D01*
X176768835Y-128703320D01*
X176605540Y-128539740D01*
X176457001Y-128478062D01*
X176457001Y-126183236D01*
X176937238Y-125703000D01*
X178094220Y-125703000D01*
X178105460Y-125714260D01*
X178318925Y-125802898D01*
X178387832Y-125802958D01*
X177163734Y-127027056D01*
X177163732Y-127027059D01*
X177148734Y-127042056D01*
X177070479Y-127159173D01*
X177042999Y-127297322D01*
X177043000Y-127297327D01*
X177043000Y-132016649D01*
X176971185Y-132030934D01*
X176604262Y-132276104D01*
X176359092Y-132643027D01*
X176333438Y-132772000D01*
X173394562Y-132772000D01*
X173368908Y-132643027D01*
X173123738Y-132276104D01*
X172756815Y-132030934D01*
X172324000Y-131944842D01*
X171891185Y-132030934D01*
X171524262Y-132276104D01*
X171279092Y-132643027D01*
X171253438Y-132772000D01*
X167294065Y-132772000D01*
X166911895Y-132695982D01*
X166617636Y-132499364D01*
X166421017Y-132205104D01*
X166345000Y-131822935D01*
X166345000Y-131258450D01*
X166613823Y-131147375D01*
X166932256Y-130829497D01*
X167104804Y-130413957D01*
X167105196Y-129964017D01*
X166989214Y-129683318D01*
X167895263Y-128777268D01*
X167895266Y-128777266D01*
X167973521Y-128660149D01*
X168001001Y-128522000D01*
X168001000Y-128521995D01*
X168001000Y-125117532D01*
X168678530Y-124440001D01*
X179750790Y-124440001D01*
X179016041Y-125174750D01*
G36*
X185226934Y-128080815D02*
X185472104Y-128447738D01*
X185839027Y-128692908D01*
X185953000Y-128715579D01*
X185953000Y-131822935D01*
X185876982Y-132205105D01*
X185680364Y-132499364D01*
X185386104Y-132695983D01*
X185003935Y-132772000D01*
X181033044Y-132772000D01*
X180903375Y-132458177D01*
X180585497Y-132139744D01*
X180305000Y-132023271D01*
X180305000Y-128155690D01*
X180360914Y-128178908D01*
X180572159Y-128179092D01*
X180767394Y-128098422D01*
X180856972Y-128009000D01*
X185212649Y-128009000D01*
X185226934Y-128080815D01*
X185226934Y-128080815D01*
G37*
X185226934Y-128080815D02*
X185472104Y-128447738D01*
X185839027Y-128692908D01*
X185953000Y-128715579D01*
X185953000Y-131822935D01*
X185876982Y-132205105D01*
X185680364Y-132499364D01*
X185386104Y-132695983D01*
X185003935Y-132772000D01*
X181033044Y-132772000D01*
X180903375Y-132458177D01*
X180585497Y-132139744D01*
X180305000Y-132023271D01*
X180305000Y-128155690D01*
X180360914Y-128178908D01*
X180572159Y-128179092D01*
X180767394Y-128098422D01*
X180856972Y-128009000D01*
X185212649Y-128009000D01*
X185226934Y-128080815D01*
G36*
X185472104Y-118287738D02*
X185839027Y-118532908D01*
X185953000Y-118555579D01*
X185953000Y-118960421D01*
X185839027Y-118983092D01*
X185472104Y-119228262D01*
X185226934Y-119595185D01*
X185140842Y-120028000D01*
X185226934Y-120460815D01*
X185472104Y-120827738D01*
X185839027Y-121072908D01*
X185953000Y-121095579D01*
X185953000Y-121500421D01*
X185839027Y-121523092D01*
X185472104Y-121768262D01*
X185226934Y-122135185D01*
X185140842Y-122568000D01*
X185226934Y-123000815D01*
X185472104Y-123367738D01*
X185839027Y-123612908D01*
X185953000Y-123635579D01*
X185953000Y-124040421D01*
X185839027Y-124063092D01*
X185472104Y-124308262D01*
X185226934Y-124675185D01*
X185140842Y-125108000D01*
X185226934Y-125540815D01*
X185472104Y-125907738D01*
X185839027Y-126152908D01*
X185953000Y-126175579D01*
X185953000Y-126580421D01*
X185839027Y-126603092D01*
X185472104Y-126848262D01*
X185226934Y-127215185D01*
X185212649Y-127287000D01*
X183007521Y-127287000D01*
X183029908Y-127233086D01*
X183030092Y-127021841D01*
X182949422Y-126826606D01*
X182860000Y-126737028D01*
X182860000Y-125404745D01*
X182931904Y-125434602D01*
X183143149Y-125434786D01*
X183338384Y-125354116D01*
X183487887Y-125204874D01*
X183568898Y-125009780D01*
X183569008Y-124883208D01*
X184320824Y-124131391D01*
X184320827Y-124131389D01*
X184399082Y-124014272D01*
X184406496Y-123977000D01*
X184426562Y-123876123D01*
X184426561Y-123876118D01*
X184426561Y-119930561D01*
X184399082Y-119792412D01*
X184320827Y-119675295D01*
X184320824Y-119675293D01*
X183691037Y-119045505D01*
X184573000Y-119045505D01*
X184677132Y-119025911D01*
X184772772Y-118964369D01*
X184836932Y-118870466D01*
X184859505Y-118759000D01*
X184859505Y-118383027D01*
X185264898Y-117977633D01*
X185472104Y-118287738D01*
X185472104Y-118287738D01*
G37*
X185472104Y-118287738D02*
X185839027Y-118532908D01*
X185953000Y-118555579D01*
X185953000Y-118960421D01*
X185839027Y-118983092D01*
X185472104Y-119228262D01*
X185226934Y-119595185D01*
X185140842Y-120028000D01*
X185226934Y-120460815D01*
X185472104Y-120827738D01*
X185839027Y-121072908D01*
X185953000Y-121095579D01*
X185953000Y-121500421D01*
X185839027Y-121523092D01*
X185472104Y-121768262D01*
X185226934Y-122135185D01*
X185140842Y-122568000D01*
X185226934Y-123000815D01*
X185472104Y-123367738D01*
X185839027Y-123612908D01*
X185953000Y-123635579D01*
X185953000Y-124040421D01*
X185839027Y-124063092D01*
X185472104Y-124308262D01*
X185226934Y-124675185D01*
X185140842Y-125108000D01*
X185226934Y-125540815D01*
X185472104Y-125907738D01*
X185839027Y-126152908D01*
X185953000Y-126175579D01*
X185953000Y-126580421D01*
X185839027Y-126603092D01*
X185472104Y-126848262D01*
X185226934Y-127215185D01*
X185212649Y-127287000D01*
X183007521Y-127287000D01*
X183029908Y-127233086D01*
X183030092Y-127021841D01*
X182949422Y-126826606D01*
X182860000Y-126737028D01*
X182860000Y-125404745D01*
X182931904Y-125434602D01*
X183143149Y-125434786D01*
X183338384Y-125354116D01*
X183487887Y-125204874D01*
X183568898Y-125009780D01*
X183569008Y-124883208D01*
X184320824Y-124131391D01*
X184320827Y-124131389D01*
X184399082Y-124014272D01*
X184406496Y-123977000D01*
X184426562Y-123876123D01*
X184426561Y-123876118D01*
X184426561Y-119930561D01*
X184399082Y-119792412D01*
X184320827Y-119675295D01*
X184320824Y-119675293D01*
X183691037Y-119045505D01*
X184573000Y-119045505D01*
X184677132Y-119025911D01*
X184772772Y-118964369D01*
X184836932Y-118870466D01*
X184859505Y-118759000D01*
X184859505Y-118383027D01*
X185264898Y-117977633D01*
X185472104Y-118287738D01*
G36*
X180184899Y-111248924D02*
X180184715Y-111460169D01*
X180192087Y-111478011D01*
X179909877Y-111478011D01*
X179837047Y-111405054D01*
X179641953Y-111324043D01*
X179430708Y-111323859D01*
X179235473Y-111404529D01*
X179085970Y-111553771D01*
X179004959Y-111748865D01*
X179004880Y-111839366D01*
X178816616Y-111917156D01*
X178667113Y-112066398D01*
X178586102Y-112261492D01*
X178585918Y-112472737D01*
X178666588Y-112667972D01*
X178815830Y-112817475D01*
X179010924Y-112898486D01*
X179222169Y-112898670D01*
X179417404Y-112818000D01*
X179506982Y-112728578D01*
X179732417Y-112728578D01*
X179732422Y-112728579D01*
X179870571Y-112701099D01*
X179987688Y-112622844D01*
X179996999Y-112613533D01*
X179996868Y-112764319D01*
X180077538Y-112959554D01*
X180166960Y-113049132D01*
X180166960Y-119029475D01*
X180166959Y-119029480D01*
X180194439Y-119167629D01*
X180272694Y-119284746D01*
X180750784Y-119762836D01*
X180706073Y-119781310D01*
X180556570Y-119930552D01*
X180475559Y-120125646D01*
X180475375Y-120336891D01*
X180536212Y-120484126D01*
X180439693Y-120580476D01*
X180358682Y-120775570D01*
X180358498Y-120986815D01*
X180439168Y-121182050D01*
X180448291Y-121191189D01*
X180417922Y-121221506D01*
X180382010Y-121185531D01*
X180186916Y-121104520D01*
X179975671Y-121104336D01*
X179814776Y-121170817D01*
X179734895Y-121090796D01*
X179539801Y-121009785D01*
X179328556Y-121009601D01*
X179275332Y-121031593D01*
X179269368Y-121017160D01*
X179120126Y-120867657D01*
X178925032Y-120786646D01*
X178713787Y-120786462D01*
X178529629Y-120862555D01*
X178558457Y-120793130D01*
X178558641Y-120581885D01*
X178477971Y-120386650D01*
X178328729Y-120237147D01*
X178133635Y-120156136D01*
X177922390Y-120155952D01*
X177727155Y-120236622D01*
X177637577Y-120326044D01*
X169858575Y-120326044D01*
X169313983Y-119781451D01*
X169314092Y-119655841D01*
X169233422Y-119460606D01*
X169084180Y-119311103D01*
X168889086Y-119230092D01*
X168806020Y-119230020D01*
X168806092Y-119147841D01*
X168763807Y-119045505D01*
X168795000Y-119045505D01*
X168899132Y-119025911D01*
X168994772Y-118964369D01*
X169058932Y-118870466D01*
X169069152Y-118820000D01*
X173394568Y-118820000D01*
X173394573Y-118820001D01*
X173532722Y-118792521D01*
X173649839Y-118714266D01*
X174351811Y-118012294D01*
X174477421Y-118012403D01*
X174672656Y-117931733D01*
X174822159Y-117782491D01*
X174903170Y-117587397D01*
X174903354Y-117376152D01*
X174822684Y-117180917D01*
X174673442Y-117031414D01*
X174621442Y-117009822D01*
X174647908Y-116946086D01*
X174648092Y-116734841D01*
X174567422Y-116539606D01*
X174464815Y-116436820D01*
X174519646Y-116304775D01*
X174519830Y-116093530D01*
X174439160Y-115898295D01*
X174289918Y-115748792D01*
X174094824Y-115667781D01*
X173883579Y-115667597D01*
X173688344Y-115748267D01*
X173538841Y-115897509D01*
X173457830Y-116092603D01*
X173457825Y-116098000D01*
X173213642Y-116098000D01*
X173401394Y-116020422D01*
X173550897Y-115871180D01*
X173631908Y-115676086D01*
X173632092Y-115464841D01*
X173551422Y-115269606D01*
X173402180Y-115120103D01*
X173207086Y-115039092D01*
X172995841Y-115038908D01*
X172852828Y-115098000D01*
X169070027Y-115098000D01*
X169061911Y-115054868D01*
X169000369Y-114959228D01*
X168998948Y-114958257D01*
X169058932Y-114870466D01*
X169069152Y-114820000D01*
X173495569Y-114820000D01*
X174047201Y-115371631D01*
X174085526Y-115464384D01*
X174234768Y-115613887D01*
X174429862Y-115694898D01*
X174641107Y-115695082D01*
X174836342Y-115614412D01*
X174985845Y-115465170D01*
X175066856Y-115270076D01*
X175067040Y-115058831D01*
X174986370Y-114863596D01*
X174940251Y-114817397D01*
X174945237Y-114812420D01*
X175026248Y-114617326D01*
X175026394Y-114450018D01*
X175111159Y-114450092D01*
X175306394Y-114369422D01*
X175455897Y-114220180D01*
X175536908Y-114025086D01*
X175537018Y-113898514D01*
X178203532Y-111232000D01*
X180191927Y-111232000D01*
X180184899Y-111248924D01*
X180184899Y-111248924D01*
G37*
X180184899Y-111248924D02*
X180184715Y-111460169D01*
X180192087Y-111478011D01*
X179909877Y-111478011D01*
X179837047Y-111405054D01*
X179641953Y-111324043D01*
X179430708Y-111323859D01*
X179235473Y-111404529D01*
X179085970Y-111553771D01*
X179004959Y-111748865D01*
X179004880Y-111839366D01*
X178816616Y-111917156D01*
X178667113Y-112066398D01*
X178586102Y-112261492D01*
X178585918Y-112472737D01*
X178666588Y-112667972D01*
X178815830Y-112817475D01*
X179010924Y-112898486D01*
X179222169Y-112898670D01*
X179417404Y-112818000D01*
X179506982Y-112728578D01*
X179732417Y-112728578D01*
X179732422Y-112728579D01*
X179870571Y-112701099D01*
X179987688Y-112622844D01*
X179996999Y-112613533D01*
X179996868Y-112764319D01*
X180077538Y-112959554D01*
X180166960Y-113049132D01*
X180166960Y-119029475D01*
X180166959Y-119029480D01*
X180194439Y-119167629D01*
X180272694Y-119284746D01*
X180750784Y-119762836D01*
X180706073Y-119781310D01*
X180556570Y-119930552D01*
X180475559Y-120125646D01*
X180475375Y-120336891D01*
X180536212Y-120484126D01*
X180439693Y-120580476D01*
X180358682Y-120775570D01*
X180358498Y-120986815D01*
X180439168Y-121182050D01*
X180448291Y-121191189D01*
X180417922Y-121221506D01*
X180382010Y-121185531D01*
X180186916Y-121104520D01*
X179975671Y-121104336D01*
X179814776Y-121170817D01*
X179734895Y-121090796D01*
X179539801Y-121009785D01*
X179328556Y-121009601D01*
X179275332Y-121031593D01*
X179269368Y-121017160D01*
X179120126Y-120867657D01*
X178925032Y-120786646D01*
X178713787Y-120786462D01*
X178529629Y-120862555D01*
X178558457Y-120793130D01*
X178558641Y-120581885D01*
X178477971Y-120386650D01*
X178328729Y-120237147D01*
X178133635Y-120156136D01*
X177922390Y-120155952D01*
X177727155Y-120236622D01*
X177637577Y-120326044D01*
X169858575Y-120326044D01*
X169313983Y-119781451D01*
X169314092Y-119655841D01*
X169233422Y-119460606D01*
X169084180Y-119311103D01*
X168889086Y-119230092D01*
X168806020Y-119230020D01*
X168806092Y-119147841D01*
X168763807Y-119045505D01*
X168795000Y-119045505D01*
X168899132Y-119025911D01*
X168994772Y-118964369D01*
X169058932Y-118870466D01*
X169069152Y-118820000D01*
X173394568Y-118820000D01*
X173394573Y-118820001D01*
X173532722Y-118792521D01*
X173649839Y-118714266D01*
X174351811Y-118012294D01*
X174477421Y-118012403D01*
X174672656Y-117931733D01*
X174822159Y-117782491D01*
X174903170Y-117587397D01*
X174903354Y-117376152D01*
X174822684Y-117180917D01*
X174673442Y-117031414D01*
X174621442Y-117009822D01*
X174647908Y-116946086D01*
X174648092Y-116734841D01*
X174567422Y-116539606D01*
X174464815Y-116436820D01*
X174519646Y-116304775D01*
X174519830Y-116093530D01*
X174439160Y-115898295D01*
X174289918Y-115748792D01*
X174094824Y-115667781D01*
X173883579Y-115667597D01*
X173688344Y-115748267D01*
X173538841Y-115897509D01*
X173457830Y-116092603D01*
X173457825Y-116098000D01*
X173213642Y-116098000D01*
X173401394Y-116020422D01*
X173550897Y-115871180D01*
X173631908Y-115676086D01*
X173632092Y-115464841D01*
X173551422Y-115269606D01*
X173402180Y-115120103D01*
X173207086Y-115039092D01*
X172995841Y-115038908D01*
X172852828Y-115098000D01*
X169070027Y-115098000D01*
X169061911Y-115054868D01*
X169000369Y-114959228D01*
X168998948Y-114958257D01*
X169058932Y-114870466D01*
X169069152Y-114820000D01*
X173495569Y-114820000D01*
X174047201Y-115371631D01*
X174085526Y-115464384D01*
X174234768Y-115613887D01*
X174429862Y-115694898D01*
X174641107Y-115695082D01*
X174836342Y-115614412D01*
X174985845Y-115465170D01*
X175066856Y-115270076D01*
X175067040Y-115058831D01*
X174986370Y-114863596D01*
X174940251Y-114817397D01*
X174945237Y-114812420D01*
X175026248Y-114617326D01*
X175026394Y-114450018D01*
X175111159Y-114450092D01*
X175306394Y-114369422D01*
X175455897Y-114220180D01*
X175536908Y-114025086D01*
X175537018Y-113898514D01*
X178203532Y-111232000D01*
X180191927Y-111232000D01*
X180184899Y-111248924D01*
G36*
X185953000Y-108785154D02*
X185654177Y-108908625D01*
X185335744Y-109226503D01*
X185163196Y-109642043D01*
X185162804Y-110091983D01*
X185334625Y-110507823D01*
X185652503Y-110826256D01*
X185953000Y-110951034D01*
X185953000Y-111340421D01*
X185839027Y-111363092D01*
X185527000Y-111571582D01*
X185527000Y-111252005D01*
X185527001Y-111252000D01*
X185499521Y-111113851D01*
X185459416Y-111053830D01*
X185421266Y-110996734D01*
X185421263Y-110996732D01*
X184659266Y-110234734D01*
X184542149Y-110156479D01*
X184404000Y-110128999D01*
X184403995Y-110129000D01*
X177673005Y-110129000D01*
X177673000Y-110128999D01*
X177534851Y-110156479D01*
X177417734Y-110234734D01*
X177417732Y-110234737D01*
X174240074Y-113412394D01*
X174161819Y-113529511D01*
X174134339Y-113667660D01*
X174134340Y-113667665D01*
X174134340Y-114121318D01*
X174045443Y-114210060D01*
X174004733Y-114308100D01*
X173900367Y-114203734D01*
X173783250Y-114125479D01*
X173645101Y-114097999D01*
X173645096Y-114098000D01*
X169070027Y-114098000D01*
X169061911Y-114054868D01*
X169000369Y-113959228D01*
X168906466Y-113895068D01*
X168795000Y-113872495D01*
X167695000Y-113872495D01*
X167590868Y-113892089D01*
X167495228Y-113953631D01*
X167431068Y-114047534D01*
X167408495Y-114159000D01*
X167408495Y-114759000D01*
X167428089Y-114863132D01*
X167489631Y-114958772D01*
X167491052Y-114959743D01*
X167431068Y-115047534D01*
X167408495Y-115159000D01*
X167408495Y-115759000D01*
X167428089Y-115863132D01*
X167479394Y-115942863D01*
X166991511Y-115454979D01*
X167041066Y-115380815D01*
X167127158Y-114948000D01*
X167041066Y-114515185D01*
X166795896Y-114148262D01*
X166428973Y-113903092D01*
X166345000Y-113886389D01*
X166345000Y-113469611D01*
X166428973Y-113452908D01*
X166795896Y-113207738D01*
X167041066Y-112840815D01*
X167127158Y-112408000D01*
X167041066Y-111975185D01*
X166795896Y-111608262D01*
X166428973Y-111363092D01*
X166345000Y-111346389D01*
X166345000Y-110929611D01*
X166428973Y-110912908D01*
X166795896Y-110667738D01*
X167041066Y-110300815D01*
X167127158Y-109868000D01*
X167041066Y-109435185D01*
X166795896Y-109068262D01*
X166428973Y-108823092D01*
X166345000Y-108806389D01*
X166345000Y-107377000D01*
X185953000Y-107377000D01*
X185953000Y-108785154D01*
X185953000Y-108785154D01*
G37*
X185953000Y-108785154D02*
X185654177Y-108908625D01*
X185335744Y-109226503D01*
X185163196Y-109642043D01*
X185162804Y-110091983D01*
X185334625Y-110507823D01*
X185652503Y-110826256D01*
X185953000Y-110951034D01*
X185953000Y-111340421D01*
X185839027Y-111363092D01*
X185527000Y-111571582D01*
X185527000Y-111252005D01*
X185527001Y-111252000D01*
X185499521Y-111113851D01*
X185459416Y-111053830D01*
X185421266Y-110996734D01*
X185421263Y-110996732D01*
X184659266Y-110234734D01*
X184542149Y-110156479D01*
X184404000Y-110128999D01*
X184403995Y-110129000D01*
X177673005Y-110129000D01*
X177673000Y-110128999D01*
X177534851Y-110156479D01*
X177417734Y-110234734D01*
X177417732Y-110234737D01*
X174240074Y-113412394D01*
X174161819Y-113529511D01*
X174134339Y-113667660D01*
X174134340Y-113667665D01*
X174134340Y-114121318D01*
X174045443Y-114210060D01*
X174004733Y-114308100D01*
X173900367Y-114203734D01*
X173783250Y-114125479D01*
X173645101Y-114097999D01*
X173645096Y-114098000D01*
X169070027Y-114098000D01*
X169061911Y-114054868D01*
X169000369Y-113959228D01*
X168906466Y-113895068D01*
X168795000Y-113872495D01*
X167695000Y-113872495D01*
X167590868Y-113892089D01*
X167495228Y-113953631D01*
X167431068Y-114047534D01*
X167408495Y-114159000D01*
X167408495Y-114759000D01*
X167428089Y-114863132D01*
X167489631Y-114958772D01*
X167491052Y-114959743D01*
X167431068Y-115047534D01*
X167408495Y-115159000D01*
X167408495Y-115759000D01*
X167428089Y-115863132D01*
X167479394Y-115942863D01*
X166991511Y-115454979D01*
X167041066Y-115380815D01*
X167127158Y-114948000D01*
X167041066Y-114515185D01*
X166795896Y-114148262D01*
X166428973Y-113903092D01*
X166345000Y-113886389D01*
X166345000Y-113469611D01*
X166428973Y-113452908D01*
X166795896Y-113207738D01*
X167041066Y-112840815D01*
X167127158Y-112408000D01*
X167041066Y-111975185D01*
X166795896Y-111608262D01*
X166428973Y-111363092D01*
X166345000Y-111346389D01*
X166345000Y-110929611D01*
X166428973Y-110912908D01*
X166795896Y-110667738D01*
X167041066Y-110300815D01*
X167127158Y-109868000D01*
X167041066Y-109435185D01*
X166795896Y-109068262D01*
X166428973Y-108823092D01*
X166345000Y-108806389D01*
X166345000Y-107377000D01*
X185953000Y-107377000D01*
X185953000Y-108785154D01*
M02*
