G04 #@! TF.FileFunction,Legend,Bot*
%FSLAX46Y46*%
G04 Gerber Fmt 4.6, Leading zero omitted, Abs format (unit mm)*
G04 Created by KiCad (PCBNEW 4.0.7) date 09/26/18 10:41:12*
%MOMM*%
%LPD*%
G01*
G04 APERTURE LIST*
%ADD10C,0.100000*%
%ADD11C,0.060000*%
G04 APERTURE END LIST*
D10*
D11*
X169686143Y-119905429D02*
X169686143Y-119305429D01*
X169457571Y-119305429D01*
X169400429Y-119334000D01*
X169371857Y-119362571D01*
X169343286Y-119419714D01*
X169343286Y-119505429D01*
X169371857Y-119562571D01*
X169400429Y-119591143D01*
X169457571Y-119619714D01*
X169686143Y-119619714D01*
X168971857Y-119305429D02*
X168914714Y-119305429D01*
X168857571Y-119334000D01*
X168829000Y-119362571D01*
X168800429Y-119419714D01*
X168771857Y-119534000D01*
X168771857Y-119676857D01*
X168800429Y-119791143D01*
X168829000Y-119848286D01*
X168857571Y-119876857D01*
X168914714Y-119905429D01*
X168971857Y-119905429D01*
X169029000Y-119876857D01*
X169057571Y-119848286D01*
X169086143Y-119791143D01*
X169114714Y-119676857D01*
X169114714Y-119534000D01*
X169086143Y-119419714D01*
X169057571Y-119362571D01*
X169029000Y-119334000D01*
X168971857Y-119305429D01*
X168514714Y-119848286D02*
X168486142Y-119876857D01*
X168514714Y-119905429D01*
X168543285Y-119876857D01*
X168514714Y-119848286D01*
X168514714Y-119905429D01*
X168114714Y-119305429D02*
X168057571Y-119305429D01*
X168000428Y-119334000D01*
X167971857Y-119362571D01*
X167943286Y-119419714D01*
X167914714Y-119534000D01*
X167914714Y-119676857D01*
X167943286Y-119791143D01*
X167971857Y-119848286D01*
X168000428Y-119876857D01*
X168057571Y-119905429D01*
X168114714Y-119905429D01*
X168171857Y-119876857D01*
X168200428Y-119848286D01*
X168229000Y-119791143D01*
X168257571Y-119676857D01*
X168257571Y-119534000D01*
X168229000Y-119419714D01*
X168200428Y-119362571D01*
X168171857Y-119334000D01*
X168114714Y-119305429D01*
X167371857Y-119305429D02*
X167657571Y-119305429D01*
X167686142Y-119591143D01*
X167657571Y-119562571D01*
X167600428Y-119534000D01*
X167457571Y-119534000D01*
X167400428Y-119562571D01*
X167371857Y-119591143D01*
X167343285Y-119648286D01*
X167343285Y-119791143D01*
X167371857Y-119848286D01*
X167400428Y-119876857D01*
X167457571Y-119905429D01*
X167600428Y-119905429D01*
X167657571Y-119876857D01*
X167686142Y-119848286D01*
X180959000Y-131970429D02*
X180959000Y-131370429D01*
X180816143Y-131370429D01*
X180730428Y-131399000D01*
X180673286Y-131456143D01*
X180644714Y-131513286D01*
X180616143Y-131627571D01*
X180616143Y-131713286D01*
X180644714Y-131827571D01*
X180673286Y-131884714D01*
X180730428Y-131941857D01*
X180816143Y-131970429D01*
X180959000Y-131970429D01*
X180016143Y-131913286D02*
X180044714Y-131941857D01*
X180130428Y-131970429D01*
X180187571Y-131970429D01*
X180273286Y-131941857D01*
X180330428Y-131884714D01*
X180359000Y-131827571D01*
X180387571Y-131713286D01*
X180387571Y-131627571D01*
X180359000Y-131513286D01*
X180330428Y-131456143D01*
X180273286Y-131399000D01*
X180187571Y-131370429D01*
X180130428Y-131370429D01*
X180044714Y-131399000D01*
X180016143Y-131427571D01*
X179473286Y-131970429D02*
X179759000Y-131970429D01*
X179759000Y-131370429D01*
X179273286Y-131970429D02*
X179273286Y-131370429D01*
X178930429Y-131970429D02*
X179187572Y-131627571D01*
X178930429Y-131370429D02*
X179273286Y-131713286D01*
X178033285Y-131970429D02*
X178033285Y-131370429D01*
X177890428Y-131370429D01*
X177804713Y-131399000D01*
X177747571Y-131456143D01*
X177718999Y-131513286D01*
X177690428Y-131627571D01*
X177690428Y-131713286D01*
X177718999Y-131827571D01*
X177747571Y-131884714D01*
X177804713Y-131941857D01*
X177890428Y-131970429D01*
X178033285Y-131970429D01*
X177433285Y-131970429D02*
X177433285Y-131370429D01*
X177033285Y-131370429D02*
X176918999Y-131370429D01*
X176861857Y-131399000D01*
X176804714Y-131456143D01*
X176776142Y-131570429D01*
X176776142Y-131770429D01*
X176804714Y-131884714D01*
X176861857Y-131941857D01*
X176918999Y-131970429D01*
X177033285Y-131970429D01*
X177090428Y-131941857D01*
X177147571Y-131884714D01*
X177176142Y-131770429D01*
X177176142Y-131570429D01*
X177147571Y-131456143D01*
X177090428Y-131399000D01*
X177033285Y-131370429D01*
X175209142Y-131399000D02*
X175266285Y-131370429D01*
X175351999Y-131370429D01*
X175437714Y-131399000D01*
X175494856Y-131456143D01*
X175523428Y-131513286D01*
X175551999Y-131627571D01*
X175551999Y-131713286D01*
X175523428Y-131827571D01*
X175494856Y-131884714D01*
X175437714Y-131941857D01*
X175351999Y-131970429D01*
X175294856Y-131970429D01*
X175209142Y-131941857D01*
X175180571Y-131913286D01*
X175180571Y-131713286D01*
X175294856Y-131713286D01*
X174923428Y-131970429D02*
X174923428Y-131370429D01*
X174580571Y-131970429D01*
X174580571Y-131370429D01*
X174294857Y-131970429D02*
X174294857Y-131370429D01*
X174152000Y-131370429D01*
X174066285Y-131399000D01*
X174009143Y-131456143D01*
X173980571Y-131513286D01*
X173952000Y-131627571D01*
X173952000Y-131713286D01*
X173980571Y-131827571D01*
X174009143Y-131884714D01*
X174066285Y-131941857D01*
X174152000Y-131970429D01*
X174294857Y-131970429D01*
X173012000Y-131370429D02*
X172812000Y-131970429D01*
X172612000Y-131370429D01*
X172412000Y-131970429D02*
X172412000Y-131370429D01*
X172269143Y-131370429D01*
X172183428Y-131399000D01*
X172126286Y-131456143D01*
X172097714Y-131513286D01*
X172069143Y-131627571D01*
X172069143Y-131713286D01*
X172097714Y-131827571D01*
X172126286Y-131884714D01*
X172183428Y-131941857D01*
X172269143Y-131970429D01*
X172412000Y-131970429D01*
X171812000Y-131970429D02*
X171812000Y-131370429D01*
X171669143Y-131370429D01*
X171583428Y-131399000D01*
X171526286Y-131456143D01*
X171497714Y-131513286D01*
X171469143Y-131627571D01*
X171469143Y-131713286D01*
X171497714Y-131827571D01*
X171526286Y-131884714D01*
X171583428Y-131941857D01*
X171669143Y-131970429D01*
X171812000Y-131970429D01*
X183021143Y-114761929D02*
X183021143Y-114161929D01*
X182792571Y-114161929D01*
X182735429Y-114190500D01*
X182706857Y-114219071D01*
X182678286Y-114276214D01*
X182678286Y-114361929D01*
X182706857Y-114419071D01*
X182735429Y-114447643D01*
X182792571Y-114476214D01*
X183021143Y-114476214D01*
X182306857Y-114161929D02*
X182249714Y-114161929D01*
X182192571Y-114190500D01*
X182164000Y-114219071D01*
X182135429Y-114276214D01*
X182106857Y-114390500D01*
X182106857Y-114533357D01*
X182135429Y-114647643D01*
X182164000Y-114704786D01*
X182192571Y-114733357D01*
X182249714Y-114761929D01*
X182306857Y-114761929D01*
X182364000Y-114733357D01*
X182392571Y-114704786D01*
X182421143Y-114647643D01*
X182449714Y-114533357D01*
X182449714Y-114390500D01*
X182421143Y-114276214D01*
X182392571Y-114219071D01*
X182364000Y-114190500D01*
X182306857Y-114161929D01*
X181849714Y-114704786D02*
X181821142Y-114733357D01*
X181849714Y-114761929D01*
X181878285Y-114733357D01*
X181849714Y-114704786D01*
X181849714Y-114761929D01*
X181592571Y-114219071D02*
X181564000Y-114190500D01*
X181506857Y-114161929D01*
X181364000Y-114161929D01*
X181306857Y-114190500D01*
X181278286Y-114219071D01*
X181249714Y-114276214D01*
X181249714Y-114333357D01*
X181278286Y-114419071D01*
X181621143Y-114761929D01*
X181249714Y-114761929D01*
X181021142Y-114219071D02*
X180992571Y-114190500D01*
X180935428Y-114161929D01*
X180792571Y-114161929D01*
X180735428Y-114190500D01*
X180706857Y-114219071D01*
X180678285Y-114276214D01*
X180678285Y-114333357D01*
X180706857Y-114419071D01*
X181049714Y-114761929D01*
X180678285Y-114761929D01*
X182957643Y-115714429D02*
X182957643Y-115114429D01*
X182729071Y-115114429D01*
X182671929Y-115143000D01*
X182643357Y-115171571D01*
X182614786Y-115228714D01*
X182614786Y-115314429D01*
X182643357Y-115371571D01*
X182671929Y-115400143D01*
X182729071Y-115428714D01*
X182957643Y-115428714D01*
X182243357Y-115114429D02*
X182186214Y-115114429D01*
X182129071Y-115143000D01*
X182100500Y-115171571D01*
X182071929Y-115228714D01*
X182043357Y-115343000D01*
X182043357Y-115485857D01*
X182071929Y-115600143D01*
X182100500Y-115657286D01*
X182129071Y-115685857D01*
X182186214Y-115714429D01*
X182243357Y-115714429D01*
X182300500Y-115685857D01*
X182329071Y-115657286D01*
X182357643Y-115600143D01*
X182386214Y-115485857D01*
X182386214Y-115343000D01*
X182357643Y-115228714D01*
X182329071Y-115171571D01*
X182300500Y-115143000D01*
X182243357Y-115114429D01*
X181786214Y-115657286D02*
X181757642Y-115685857D01*
X181786214Y-115714429D01*
X181814785Y-115685857D01*
X181786214Y-115657286D01*
X181786214Y-115714429D01*
X181529071Y-115171571D02*
X181500500Y-115143000D01*
X181443357Y-115114429D01*
X181300500Y-115114429D01*
X181243357Y-115143000D01*
X181214786Y-115171571D01*
X181186214Y-115228714D01*
X181186214Y-115285857D01*
X181214786Y-115371571D01*
X181557643Y-115714429D01*
X181186214Y-115714429D01*
X180986214Y-115114429D02*
X180614785Y-115114429D01*
X180814785Y-115343000D01*
X180729071Y-115343000D01*
X180671928Y-115371571D01*
X180643357Y-115400143D01*
X180614785Y-115457286D01*
X180614785Y-115600143D01*
X180643357Y-115657286D01*
X180671928Y-115685857D01*
X180729071Y-115714429D01*
X180900499Y-115714429D01*
X180957642Y-115685857D01*
X180986214Y-115657286D01*
X182957643Y-116730429D02*
X182957643Y-116130429D01*
X182729071Y-116130429D01*
X182671929Y-116159000D01*
X182643357Y-116187571D01*
X182614786Y-116244714D01*
X182614786Y-116330429D01*
X182643357Y-116387571D01*
X182671929Y-116416143D01*
X182729071Y-116444714D01*
X182957643Y-116444714D01*
X182243357Y-116130429D02*
X182186214Y-116130429D01*
X182129071Y-116159000D01*
X182100500Y-116187571D01*
X182071929Y-116244714D01*
X182043357Y-116359000D01*
X182043357Y-116501857D01*
X182071929Y-116616143D01*
X182100500Y-116673286D01*
X182129071Y-116701857D01*
X182186214Y-116730429D01*
X182243357Y-116730429D01*
X182300500Y-116701857D01*
X182329071Y-116673286D01*
X182357643Y-116616143D01*
X182386214Y-116501857D01*
X182386214Y-116359000D01*
X182357643Y-116244714D01*
X182329071Y-116187571D01*
X182300500Y-116159000D01*
X182243357Y-116130429D01*
X181786214Y-116673286D02*
X181757642Y-116701857D01*
X181786214Y-116730429D01*
X181814785Y-116701857D01*
X181786214Y-116673286D01*
X181786214Y-116730429D01*
X181529071Y-116187571D02*
X181500500Y-116159000D01*
X181443357Y-116130429D01*
X181300500Y-116130429D01*
X181243357Y-116159000D01*
X181214786Y-116187571D01*
X181186214Y-116244714D01*
X181186214Y-116301857D01*
X181214786Y-116387571D01*
X181557643Y-116730429D01*
X181186214Y-116730429D01*
X180671928Y-116330429D02*
X180671928Y-116730429D01*
X180814785Y-116101857D02*
X180957642Y-116530429D01*
X180586214Y-116530429D01*
X182957643Y-117746429D02*
X182957643Y-117146429D01*
X182729071Y-117146429D01*
X182671929Y-117175000D01*
X182643357Y-117203571D01*
X182614786Y-117260714D01*
X182614786Y-117346429D01*
X182643357Y-117403571D01*
X182671929Y-117432143D01*
X182729071Y-117460714D01*
X182957643Y-117460714D01*
X182243357Y-117146429D02*
X182186214Y-117146429D01*
X182129071Y-117175000D01*
X182100500Y-117203571D01*
X182071929Y-117260714D01*
X182043357Y-117375000D01*
X182043357Y-117517857D01*
X182071929Y-117632143D01*
X182100500Y-117689286D01*
X182129071Y-117717857D01*
X182186214Y-117746429D01*
X182243357Y-117746429D01*
X182300500Y-117717857D01*
X182329071Y-117689286D01*
X182357643Y-117632143D01*
X182386214Y-117517857D01*
X182386214Y-117375000D01*
X182357643Y-117260714D01*
X182329071Y-117203571D01*
X182300500Y-117175000D01*
X182243357Y-117146429D01*
X181786214Y-117689286D02*
X181757642Y-117717857D01*
X181786214Y-117746429D01*
X181814785Y-117717857D01*
X181786214Y-117689286D01*
X181786214Y-117746429D01*
X181529071Y-117203571D02*
X181500500Y-117175000D01*
X181443357Y-117146429D01*
X181300500Y-117146429D01*
X181243357Y-117175000D01*
X181214786Y-117203571D01*
X181186214Y-117260714D01*
X181186214Y-117317857D01*
X181214786Y-117403571D01*
X181557643Y-117746429D01*
X181186214Y-117746429D01*
X180643357Y-117146429D02*
X180929071Y-117146429D01*
X180957642Y-117432143D01*
X180929071Y-117403571D01*
X180871928Y-117375000D01*
X180729071Y-117375000D01*
X180671928Y-117403571D01*
X180643357Y-117432143D01*
X180614785Y-117489286D01*
X180614785Y-117632143D01*
X180643357Y-117689286D01*
X180671928Y-117717857D01*
X180729071Y-117746429D01*
X180871928Y-117746429D01*
X180929071Y-117717857D01*
X180957642Y-117689286D01*
X182957643Y-118762429D02*
X182957643Y-118162429D01*
X182729071Y-118162429D01*
X182671929Y-118191000D01*
X182643357Y-118219571D01*
X182614786Y-118276714D01*
X182614786Y-118362429D01*
X182643357Y-118419571D01*
X182671929Y-118448143D01*
X182729071Y-118476714D01*
X182957643Y-118476714D01*
X182243357Y-118162429D02*
X182186214Y-118162429D01*
X182129071Y-118191000D01*
X182100500Y-118219571D01*
X182071929Y-118276714D01*
X182043357Y-118391000D01*
X182043357Y-118533857D01*
X182071929Y-118648143D01*
X182100500Y-118705286D01*
X182129071Y-118733857D01*
X182186214Y-118762429D01*
X182243357Y-118762429D01*
X182300500Y-118733857D01*
X182329071Y-118705286D01*
X182357643Y-118648143D01*
X182386214Y-118533857D01*
X182386214Y-118391000D01*
X182357643Y-118276714D01*
X182329071Y-118219571D01*
X182300500Y-118191000D01*
X182243357Y-118162429D01*
X181786214Y-118705286D02*
X181757642Y-118733857D01*
X181786214Y-118762429D01*
X181814785Y-118733857D01*
X181786214Y-118705286D01*
X181786214Y-118762429D01*
X181529071Y-118219571D02*
X181500500Y-118191000D01*
X181443357Y-118162429D01*
X181300500Y-118162429D01*
X181243357Y-118191000D01*
X181214786Y-118219571D01*
X181186214Y-118276714D01*
X181186214Y-118333857D01*
X181214786Y-118419571D01*
X181557643Y-118762429D01*
X181186214Y-118762429D01*
X180671928Y-118162429D02*
X180786214Y-118162429D01*
X180843357Y-118191000D01*
X180871928Y-118219571D01*
X180929071Y-118305286D01*
X180957642Y-118419571D01*
X180957642Y-118648143D01*
X180929071Y-118705286D01*
X180900499Y-118733857D01*
X180843357Y-118762429D01*
X180729071Y-118762429D01*
X180671928Y-118733857D01*
X180643357Y-118705286D01*
X180614785Y-118648143D01*
X180614785Y-118505286D01*
X180643357Y-118448143D01*
X180671928Y-118419571D01*
X180729071Y-118391000D01*
X180843357Y-118391000D01*
X180900499Y-118419571D01*
X180929071Y-118448143D01*
X180957642Y-118505286D01*
X171527643Y-118762429D02*
X171527643Y-118162429D01*
X171299071Y-118162429D01*
X171241929Y-118191000D01*
X171213357Y-118219571D01*
X171184786Y-118276714D01*
X171184786Y-118362429D01*
X171213357Y-118419571D01*
X171241929Y-118448143D01*
X171299071Y-118476714D01*
X171527643Y-118476714D01*
X170813357Y-118162429D02*
X170756214Y-118162429D01*
X170699071Y-118191000D01*
X170670500Y-118219571D01*
X170641929Y-118276714D01*
X170613357Y-118391000D01*
X170613357Y-118533857D01*
X170641929Y-118648143D01*
X170670500Y-118705286D01*
X170699071Y-118733857D01*
X170756214Y-118762429D01*
X170813357Y-118762429D01*
X170870500Y-118733857D01*
X170899071Y-118705286D01*
X170927643Y-118648143D01*
X170956214Y-118533857D01*
X170956214Y-118391000D01*
X170927643Y-118276714D01*
X170899071Y-118219571D01*
X170870500Y-118191000D01*
X170813357Y-118162429D01*
X170356214Y-118705286D02*
X170327642Y-118733857D01*
X170356214Y-118762429D01*
X170384785Y-118733857D01*
X170356214Y-118705286D01*
X170356214Y-118762429D01*
X170127643Y-118162429D02*
X169756214Y-118162429D01*
X169956214Y-118391000D01*
X169870500Y-118391000D01*
X169813357Y-118419571D01*
X169784786Y-118448143D01*
X169756214Y-118505286D01*
X169756214Y-118648143D01*
X169784786Y-118705286D01*
X169813357Y-118733857D01*
X169870500Y-118762429D01*
X170041928Y-118762429D01*
X170099071Y-118733857D01*
X170127643Y-118705286D01*
X169184785Y-118762429D02*
X169527642Y-118762429D01*
X169356214Y-118762429D02*
X169356214Y-118162429D01*
X169413357Y-118248143D01*
X169470499Y-118305286D01*
X169527642Y-118333857D01*
X171527643Y-117746429D02*
X171527643Y-117146429D01*
X171299071Y-117146429D01*
X171241929Y-117175000D01*
X171213357Y-117203571D01*
X171184786Y-117260714D01*
X171184786Y-117346429D01*
X171213357Y-117403571D01*
X171241929Y-117432143D01*
X171299071Y-117460714D01*
X171527643Y-117460714D01*
X170813357Y-117146429D02*
X170756214Y-117146429D01*
X170699071Y-117175000D01*
X170670500Y-117203571D01*
X170641929Y-117260714D01*
X170613357Y-117375000D01*
X170613357Y-117517857D01*
X170641929Y-117632143D01*
X170670500Y-117689286D01*
X170699071Y-117717857D01*
X170756214Y-117746429D01*
X170813357Y-117746429D01*
X170870500Y-117717857D01*
X170899071Y-117689286D01*
X170927643Y-117632143D01*
X170956214Y-117517857D01*
X170956214Y-117375000D01*
X170927643Y-117260714D01*
X170899071Y-117203571D01*
X170870500Y-117175000D01*
X170813357Y-117146429D01*
X170356214Y-117689286D02*
X170327642Y-117717857D01*
X170356214Y-117746429D01*
X170384785Y-117717857D01*
X170356214Y-117689286D01*
X170356214Y-117746429D01*
X170127643Y-117146429D02*
X169756214Y-117146429D01*
X169956214Y-117375000D01*
X169870500Y-117375000D01*
X169813357Y-117403571D01*
X169784786Y-117432143D01*
X169756214Y-117489286D01*
X169756214Y-117632143D01*
X169784786Y-117689286D01*
X169813357Y-117717857D01*
X169870500Y-117746429D01*
X170041928Y-117746429D01*
X170099071Y-117717857D01*
X170127643Y-117689286D01*
X169384785Y-117146429D02*
X169327642Y-117146429D01*
X169270499Y-117175000D01*
X169241928Y-117203571D01*
X169213357Y-117260714D01*
X169184785Y-117375000D01*
X169184785Y-117517857D01*
X169213357Y-117632143D01*
X169241928Y-117689286D01*
X169270499Y-117717857D01*
X169327642Y-117746429D01*
X169384785Y-117746429D01*
X169441928Y-117717857D01*
X169470499Y-117689286D01*
X169499071Y-117632143D01*
X169527642Y-117517857D01*
X169527642Y-117375000D01*
X169499071Y-117260714D01*
X169470499Y-117203571D01*
X169441928Y-117175000D01*
X169384785Y-117146429D01*
X171527643Y-116730429D02*
X171527643Y-116130429D01*
X171299071Y-116130429D01*
X171241929Y-116159000D01*
X171213357Y-116187571D01*
X171184786Y-116244714D01*
X171184786Y-116330429D01*
X171213357Y-116387571D01*
X171241929Y-116416143D01*
X171299071Y-116444714D01*
X171527643Y-116444714D01*
X170813357Y-116130429D02*
X170756214Y-116130429D01*
X170699071Y-116159000D01*
X170670500Y-116187571D01*
X170641929Y-116244714D01*
X170613357Y-116359000D01*
X170613357Y-116501857D01*
X170641929Y-116616143D01*
X170670500Y-116673286D01*
X170699071Y-116701857D01*
X170756214Y-116730429D01*
X170813357Y-116730429D01*
X170870500Y-116701857D01*
X170899071Y-116673286D01*
X170927643Y-116616143D01*
X170956214Y-116501857D01*
X170956214Y-116359000D01*
X170927643Y-116244714D01*
X170899071Y-116187571D01*
X170870500Y-116159000D01*
X170813357Y-116130429D01*
X170356214Y-116673286D02*
X170327642Y-116701857D01*
X170356214Y-116730429D01*
X170384785Y-116701857D01*
X170356214Y-116673286D01*
X170356214Y-116730429D01*
X170099071Y-116187571D02*
X170070500Y-116159000D01*
X170013357Y-116130429D01*
X169870500Y-116130429D01*
X169813357Y-116159000D01*
X169784786Y-116187571D01*
X169756214Y-116244714D01*
X169756214Y-116301857D01*
X169784786Y-116387571D01*
X170127643Y-116730429D01*
X169756214Y-116730429D01*
X169470499Y-116730429D02*
X169356214Y-116730429D01*
X169299071Y-116701857D01*
X169270499Y-116673286D01*
X169213357Y-116587571D01*
X169184785Y-116473286D01*
X169184785Y-116244714D01*
X169213357Y-116187571D01*
X169241928Y-116159000D01*
X169299071Y-116130429D01*
X169413357Y-116130429D01*
X169470499Y-116159000D01*
X169499071Y-116187571D01*
X169527642Y-116244714D01*
X169527642Y-116387571D01*
X169499071Y-116444714D01*
X169470499Y-116473286D01*
X169413357Y-116501857D01*
X169299071Y-116501857D01*
X169241928Y-116473286D01*
X169213357Y-116444714D01*
X169184785Y-116387571D01*
X171527643Y-115714429D02*
X171527643Y-115114429D01*
X171299071Y-115114429D01*
X171241929Y-115143000D01*
X171213357Y-115171571D01*
X171184786Y-115228714D01*
X171184786Y-115314429D01*
X171213357Y-115371571D01*
X171241929Y-115400143D01*
X171299071Y-115428714D01*
X171527643Y-115428714D01*
X170813357Y-115114429D02*
X170756214Y-115114429D01*
X170699071Y-115143000D01*
X170670500Y-115171571D01*
X170641929Y-115228714D01*
X170613357Y-115343000D01*
X170613357Y-115485857D01*
X170641929Y-115600143D01*
X170670500Y-115657286D01*
X170699071Y-115685857D01*
X170756214Y-115714429D01*
X170813357Y-115714429D01*
X170870500Y-115685857D01*
X170899071Y-115657286D01*
X170927643Y-115600143D01*
X170956214Y-115485857D01*
X170956214Y-115343000D01*
X170927643Y-115228714D01*
X170899071Y-115171571D01*
X170870500Y-115143000D01*
X170813357Y-115114429D01*
X170356214Y-115657286D02*
X170327642Y-115685857D01*
X170356214Y-115714429D01*
X170384785Y-115685857D01*
X170356214Y-115657286D01*
X170356214Y-115714429D01*
X170099071Y-115171571D02*
X170070500Y-115143000D01*
X170013357Y-115114429D01*
X169870500Y-115114429D01*
X169813357Y-115143000D01*
X169784786Y-115171571D01*
X169756214Y-115228714D01*
X169756214Y-115285857D01*
X169784786Y-115371571D01*
X170127643Y-115714429D01*
X169756214Y-115714429D01*
X169413357Y-115371571D02*
X169470499Y-115343000D01*
X169499071Y-115314429D01*
X169527642Y-115257286D01*
X169527642Y-115228714D01*
X169499071Y-115171571D01*
X169470499Y-115143000D01*
X169413357Y-115114429D01*
X169299071Y-115114429D01*
X169241928Y-115143000D01*
X169213357Y-115171571D01*
X169184785Y-115228714D01*
X169184785Y-115257286D01*
X169213357Y-115314429D01*
X169241928Y-115343000D01*
X169299071Y-115371571D01*
X169413357Y-115371571D01*
X169470499Y-115400143D01*
X169499071Y-115428714D01*
X169527642Y-115485857D01*
X169527642Y-115600143D01*
X169499071Y-115657286D01*
X169470499Y-115685857D01*
X169413357Y-115714429D01*
X169299071Y-115714429D01*
X169241928Y-115685857D01*
X169213357Y-115657286D01*
X169184785Y-115600143D01*
X169184785Y-115485857D01*
X169213357Y-115428714D01*
X169241928Y-115400143D01*
X169299071Y-115371571D01*
X171527643Y-114761929D02*
X171527643Y-114161929D01*
X171299071Y-114161929D01*
X171241929Y-114190500D01*
X171213357Y-114219071D01*
X171184786Y-114276214D01*
X171184786Y-114361929D01*
X171213357Y-114419071D01*
X171241929Y-114447643D01*
X171299071Y-114476214D01*
X171527643Y-114476214D01*
X170813357Y-114161929D02*
X170756214Y-114161929D01*
X170699071Y-114190500D01*
X170670500Y-114219071D01*
X170641929Y-114276214D01*
X170613357Y-114390500D01*
X170613357Y-114533357D01*
X170641929Y-114647643D01*
X170670500Y-114704786D01*
X170699071Y-114733357D01*
X170756214Y-114761929D01*
X170813357Y-114761929D01*
X170870500Y-114733357D01*
X170899071Y-114704786D01*
X170927643Y-114647643D01*
X170956214Y-114533357D01*
X170956214Y-114390500D01*
X170927643Y-114276214D01*
X170899071Y-114219071D01*
X170870500Y-114190500D01*
X170813357Y-114161929D01*
X170356214Y-114704786D02*
X170327642Y-114733357D01*
X170356214Y-114761929D01*
X170384785Y-114733357D01*
X170356214Y-114704786D01*
X170356214Y-114761929D01*
X170099071Y-114219071D02*
X170070500Y-114190500D01*
X170013357Y-114161929D01*
X169870500Y-114161929D01*
X169813357Y-114190500D01*
X169784786Y-114219071D01*
X169756214Y-114276214D01*
X169756214Y-114333357D01*
X169784786Y-114419071D01*
X170127643Y-114761929D01*
X169756214Y-114761929D01*
X169556214Y-114161929D02*
X169156214Y-114161929D01*
X169413357Y-114761929D01*
X169559143Y-110126429D02*
X169559143Y-109526429D01*
X169330571Y-109526429D01*
X169273429Y-109555000D01*
X169244857Y-109583571D01*
X169216286Y-109640714D01*
X169216286Y-109726429D01*
X169244857Y-109783571D01*
X169273429Y-109812143D01*
X169330571Y-109840714D01*
X169559143Y-109840714D01*
X168844857Y-109526429D02*
X168787714Y-109526429D01*
X168730571Y-109555000D01*
X168702000Y-109583571D01*
X168673429Y-109640714D01*
X168644857Y-109755000D01*
X168644857Y-109897857D01*
X168673429Y-110012143D01*
X168702000Y-110069286D01*
X168730571Y-110097857D01*
X168787714Y-110126429D01*
X168844857Y-110126429D01*
X168902000Y-110097857D01*
X168930571Y-110069286D01*
X168959143Y-110012143D01*
X168987714Y-109897857D01*
X168987714Y-109755000D01*
X168959143Y-109640714D01*
X168930571Y-109583571D01*
X168902000Y-109555000D01*
X168844857Y-109526429D01*
X168387714Y-110069286D02*
X168359142Y-110097857D01*
X168387714Y-110126429D01*
X168416285Y-110097857D01*
X168387714Y-110069286D01*
X168387714Y-110126429D01*
X167987714Y-109526429D02*
X167930571Y-109526429D01*
X167873428Y-109555000D01*
X167844857Y-109583571D01*
X167816286Y-109640714D01*
X167787714Y-109755000D01*
X167787714Y-109897857D01*
X167816286Y-110012143D01*
X167844857Y-110069286D01*
X167873428Y-110097857D01*
X167930571Y-110126429D01*
X167987714Y-110126429D01*
X168044857Y-110097857D01*
X168073428Y-110069286D01*
X168102000Y-110012143D01*
X168130571Y-109897857D01*
X168130571Y-109755000D01*
X168102000Y-109640714D01*
X168073428Y-109583571D01*
X168044857Y-109555000D01*
X167987714Y-109526429D01*
X167559142Y-109583571D02*
X167530571Y-109555000D01*
X167473428Y-109526429D01*
X167330571Y-109526429D01*
X167273428Y-109555000D01*
X167244857Y-109583571D01*
X167216285Y-109640714D01*
X167216285Y-109697857D01*
X167244857Y-109783571D01*
X167587714Y-110126429D01*
X167216285Y-110126429D01*
X169686143Y-112031429D02*
X169686143Y-111431429D01*
X169457571Y-111431429D01*
X169400429Y-111460000D01*
X169371857Y-111488571D01*
X169343286Y-111545714D01*
X169343286Y-111631429D01*
X169371857Y-111688571D01*
X169400429Y-111717143D01*
X169457571Y-111745714D01*
X169686143Y-111745714D01*
X168971857Y-111431429D02*
X168914714Y-111431429D01*
X168857571Y-111460000D01*
X168829000Y-111488571D01*
X168800429Y-111545714D01*
X168771857Y-111660000D01*
X168771857Y-111802857D01*
X168800429Y-111917143D01*
X168829000Y-111974286D01*
X168857571Y-112002857D01*
X168914714Y-112031429D01*
X168971857Y-112031429D01*
X169029000Y-112002857D01*
X169057571Y-111974286D01*
X169086143Y-111917143D01*
X169114714Y-111802857D01*
X169114714Y-111660000D01*
X169086143Y-111545714D01*
X169057571Y-111488571D01*
X169029000Y-111460000D01*
X168971857Y-111431429D01*
X168514714Y-111974286D02*
X168486142Y-112002857D01*
X168514714Y-112031429D01*
X168543285Y-112002857D01*
X168514714Y-111974286D01*
X168514714Y-112031429D01*
X168114714Y-111431429D02*
X168057571Y-111431429D01*
X168000428Y-111460000D01*
X167971857Y-111488571D01*
X167943286Y-111545714D01*
X167914714Y-111660000D01*
X167914714Y-111802857D01*
X167943286Y-111917143D01*
X167971857Y-111974286D01*
X168000428Y-112002857D01*
X168057571Y-112031429D01*
X168114714Y-112031429D01*
X168171857Y-112002857D01*
X168200428Y-111974286D01*
X168229000Y-111917143D01*
X168257571Y-111802857D01*
X168257571Y-111660000D01*
X168229000Y-111545714D01*
X168200428Y-111488571D01*
X168171857Y-111460000D01*
X168114714Y-111431429D01*
X167714714Y-111431429D02*
X167343285Y-111431429D01*
X167543285Y-111660000D01*
X167457571Y-111660000D01*
X167400428Y-111688571D01*
X167371857Y-111717143D01*
X167343285Y-111774286D01*
X167343285Y-111917143D01*
X167371857Y-111974286D01*
X167400428Y-112002857D01*
X167457571Y-112031429D01*
X167628999Y-112031429D01*
X167686142Y-112002857D01*
X167714714Y-111974286D01*
X169686143Y-113682429D02*
X169686143Y-113082429D01*
X169457571Y-113082429D01*
X169400429Y-113111000D01*
X169371857Y-113139571D01*
X169343286Y-113196714D01*
X169343286Y-113282429D01*
X169371857Y-113339571D01*
X169400429Y-113368143D01*
X169457571Y-113396714D01*
X169686143Y-113396714D01*
X168971857Y-113082429D02*
X168914714Y-113082429D01*
X168857571Y-113111000D01*
X168829000Y-113139571D01*
X168800429Y-113196714D01*
X168771857Y-113311000D01*
X168771857Y-113453857D01*
X168800429Y-113568143D01*
X168829000Y-113625286D01*
X168857571Y-113653857D01*
X168914714Y-113682429D01*
X168971857Y-113682429D01*
X169029000Y-113653857D01*
X169057571Y-113625286D01*
X169086143Y-113568143D01*
X169114714Y-113453857D01*
X169114714Y-113311000D01*
X169086143Y-113196714D01*
X169057571Y-113139571D01*
X169029000Y-113111000D01*
X168971857Y-113082429D01*
X168514714Y-113625286D02*
X168486142Y-113653857D01*
X168514714Y-113682429D01*
X168543285Y-113653857D01*
X168514714Y-113625286D01*
X168514714Y-113682429D01*
X168114714Y-113082429D02*
X168057571Y-113082429D01*
X168000428Y-113111000D01*
X167971857Y-113139571D01*
X167943286Y-113196714D01*
X167914714Y-113311000D01*
X167914714Y-113453857D01*
X167943286Y-113568143D01*
X167971857Y-113625286D01*
X168000428Y-113653857D01*
X168057571Y-113682429D01*
X168114714Y-113682429D01*
X168171857Y-113653857D01*
X168200428Y-113625286D01*
X168229000Y-113568143D01*
X168257571Y-113453857D01*
X168257571Y-113311000D01*
X168229000Y-113196714D01*
X168200428Y-113139571D01*
X168171857Y-113111000D01*
X168114714Y-113082429D01*
X167400428Y-113282429D02*
X167400428Y-113682429D01*
X167543285Y-113053857D02*
X167686142Y-113482429D01*
X167314714Y-113482429D01*
X169559143Y-121302429D02*
X169559143Y-120702429D01*
X169330571Y-120702429D01*
X169273429Y-120731000D01*
X169244857Y-120759571D01*
X169216286Y-120816714D01*
X169216286Y-120902429D01*
X169244857Y-120959571D01*
X169273429Y-120988143D01*
X169330571Y-121016714D01*
X169559143Y-121016714D01*
X168844857Y-120702429D02*
X168787714Y-120702429D01*
X168730571Y-120731000D01*
X168702000Y-120759571D01*
X168673429Y-120816714D01*
X168644857Y-120931000D01*
X168644857Y-121073857D01*
X168673429Y-121188143D01*
X168702000Y-121245286D01*
X168730571Y-121273857D01*
X168787714Y-121302429D01*
X168844857Y-121302429D01*
X168902000Y-121273857D01*
X168930571Y-121245286D01*
X168959143Y-121188143D01*
X168987714Y-121073857D01*
X168987714Y-120931000D01*
X168959143Y-120816714D01*
X168930571Y-120759571D01*
X168902000Y-120731000D01*
X168844857Y-120702429D01*
X168387714Y-121245286D02*
X168359142Y-121273857D01*
X168387714Y-121302429D01*
X168416285Y-121273857D01*
X168387714Y-121245286D01*
X168387714Y-121302429D01*
X167987714Y-120702429D02*
X167930571Y-120702429D01*
X167873428Y-120731000D01*
X167844857Y-120759571D01*
X167816286Y-120816714D01*
X167787714Y-120931000D01*
X167787714Y-121073857D01*
X167816286Y-121188143D01*
X167844857Y-121245286D01*
X167873428Y-121273857D01*
X167930571Y-121302429D01*
X167987714Y-121302429D01*
X168044857Y-121273857D01*
X168073428Y-121245286D01*
X168102000Y-121188143D01*
X168130571Y-121073857D01*
X168130571Y-120931000D01*
X168102000Y-120816714D01*
X168073428Y-120759571D01*
X168044857Y-120731000D01*
X167987714Y-120702429D01*
X167273428Y-120702429D02*
X167387714Y-120702429D01*
X167444857Y-120731000D01*
X167473428Y-120759571D01*
X167530571Y-120845286D01*
X167559142Y-120959571D01*
X167559142Y-121188143D01*
X167530571Y-121245286D01*
X167501999Y-121273857D01*
X167444857Y-121302429D01*
X167330571Y-121302429D01*
X167273428Y-121273857D01*
X167244857Y-121245286D01*
X167216285Y-121188143D01*
X167216285Y-121045286D01*
X167244857Y-120988143D01*
X167273428Y-120959571D01*
X167330571Y-120931000D01*
X167444857Y-120931000D01*
X167501999Y-120959571D01*
X167530571Y-120988143D01*
X167559142Y-121045286D01*
X169559143Y-122826429D02*
X169559143Y-122226429D01*
X169330571Y-122226429D01*
X169273429Y-122255000D01*
X169244857Y-122283571D01*
X169216286Y-122340714D01*
X169216286Y-122426429D01*
X169244857Y-122483571D01*
X169273429Y-122512143D01*
X169330571Y-122540714D01*
X169559143Y-122540714D01*
X168844857Y-122226429D02*
X168787714Y-122226429D01*
X168730571Y-122255000D01*
X168702000Y-122283571D01*
X168673429Y-122340714D01*
X168644857Y-122455000D01*
X168644857Y-122597857D01*
X168673429Y-122712143D01*
X168702000Y-122769286D01*
X168730571Y-122797857D01*
X168787714Y-122826429D01*
X168844857Y-122826429D01*
X168902000Y-122797857D01*
X168930571Y-122769286D01*
X168959143Y-122712143D01*
X168987714Y-122597857D01*
X168987714Y-122455000D01*
X168959143Y-122340714D01*
X168930571Y-122283571D01*
X168902000Y-122255000D01*
X168844857Y-122226429D01*
X168387714Y-122769286D02*
X168359142Y-122797857D01*
X168387714Y-122826429D01*
X168416285Y-122797857D01*
X168387714Y-122769286D01*
X168387714Y-122826429D01*
X167987714Y-122226429D02*
X167930571Y-122226429D01*
X167873428Y-122255000D01*
X167844857Y-122283571D01*
X167816286Y-122340714D01*
X167787714Y-122455000D01*
X167787714Y-122597857D01*
X167816286Y-122712143D01*
X167844857Y-122769286D01*
X167873428Y-122797857D01*
X167930571Y-122826429D01*
X167987714Y-122826429D01*
X168044857Y-122797857D01*
X168073428Y-122769286D01*
X168102000Y-122712143D01*
X168130571Y-122597857D01*
X168130571Y-122455000D01*
X168102000Y-122340714D01*
X168073428Y-122283571D01*
X168044857Y-122255000D01*
X167987714Y-122226429D01*
X167587714Y-122226429D02*
X167187714Y-122226429D01*
X167444857Y-122826429D01*
X169559143Y-125366429D02*
X169559143Y-124766429D01*
X169330571Y-124766429D01*
X169273429Y-124795000D01*
X169244857Y-124823571D01*
X169216286Y-124880714D01*
X169216286Y-124966429D01*
X169244857Y-125023571D01*
X169273429Y-125052143D01*
X169330571Y-125080714D01*
X169559143Y-125080714D01*
X168844857Y-124766429D02*
X168787714Y-124766429D01*
X168730571Y-124795000D01*
X168702000Y-124823571D01*
X168673429Y-124880714D01*
X168644857Y-124995000D01*
X168644857Y-125137857D01*
X168673429Y-125252143D01*
X168702000Y-125309286D01*
X168730571Y-125337857D01*
X168787714Y-125366429D01*
X168844857Y-125366429D01*
X168902000Y-125337857D01*
X168930571Y-125309286D01*
X168959143Y-125252143D01*
X168987714Y-125137857D01*
X168987714Y-124995000D01*
X168959143Y-124880714D01*
X168930571Y-124823571D01*
X168902000Y-124795000D01*
X168844857Y-124766429D01*
X168387714Y-125309286D02*
X168359142Y-125337857D01*
X168387714Y-125366429D01*
X168416285Y-125337857D01*
X168387714Y-125309286D01*
X168387714Y-125366429D01*
X167987714Y-124766429D02*
X167930571Y-124766429D01*
X167873428Y-124795000D01*
X167844857Y-124823571D01*
X167816286Y-124880714D01*
X167787714Y-124995000D01*
X167787714Y-125137857D01*
X167816286Y-125252143D01*
X167844857Y-125309286D01*
X167873428Y-125337857D01*
X167930571Y-125366429D01*
X167987714Y-125366429D01*
X168044857Y-125337857D01*
X168073428Y-125309286D01*
X168102000Y-125252143D01*
X168130571Y-125137857D01*
X168130571Y-124995000D01*
X168102000Y-124880714D01*
X168073428Y-124823571D01*
X168044857Y-124795000D01*
X167987714Y-124766429D01*
X167444857Y-125023571D02*
X167501999Y-124995000D01*
X167530571Y-124966429D01*
X167559142Y-124909286D01*
X167559142Y-124880714D01*
X167530571Y-124823571D01*
X167501999Y-124795000D01*
X167444857Y-124766429D01*
X167330571Y-124766429D01*
X167273428Y-124795000D01*
X167244857Y-124823571D01*
X167216285Y-124880714D01*
X167216285Y-124909286D01*
X167244857Y-124966429D01*
X167273428Y-124995000D01*
X167330571Y-125023571D01*
X167444857Y-125023571D01*
X167501999Y-125052143D01*
X167530571Y-125080714D01*
X167559142Y-125137857D01*
X167559142Y-125252143D01*
X167530571Y-125309286D01*
X167501999Y-125337857D01*
X167444857Y-125366429D01*
X167330571Y-125366429D01*
X167273428Y-125337857D01*
X167244857Y-125309286D01*
X167216285Y-125252143D01*
X167216285Y-125137857D01*
X167244857Y-125080714D01*
X167273428Y-125052143D01*
X167330571Y-125023571D01*
X169559143Y-127906429D02*
X169559143Y-127306429D01*
X169330571Y-127306429D01*
X169273429Y-127335000D01*
X169244857Y-127363571D01*
X169216286Y-127420714D01*
X169216286Y-127506429D01*
X169244857Y-127563571D01*
X169273429Y-127592143D01*
X169330571Y-127620714D01*
X169559143Y-127620714D01*
X168844857Y-127306429D02*
X168787714Y-127306429D01*
X168730571Y-127335000D01*
X168702000Y-127363571D01*
X168673429Y-127420714D01*
X168644857Y-127535000D01*
X168644857Y-127677857D01*
X168673429Y-127792143D01*
X168702000Y-127849286D01*
X168730571Y-127877857D01*
X168787714Y-127906429D01*
X168844857Y-127906429D01*
X168902000Y-127877857D01*
X168930571Y-127849286D01*
X168959143Y-127792143D01*
X168987714Y-127677857D01*
X168987714Y-127535000D01*
X168959143Y-127420714D01*
X168930571Y-127363571D01*
X168902000Y-127335000D01*
X168844857Y-127306429D01*
X168387714Y-127849286D02*
X168359142Y-127877857D01*
X168387714Y-127906429D01*
X168416285Y-127877857D01*
X168387714Y-127849286D01*
X168387714Y-127906429D01*
X167987714Y-127306429D02*
X167930571Y-127306429D01*
X167873428Y-127335000D01*
X167844857Y-127363571D01*
X167816286Y-127420714D01*
X167787714Y-127535000D01*
X167787714Y-127677857D01*
X167816286Y-127792143D01*
X167844857Y-127849286D01*
X167873428Y-127877857D01*
X167930571Y-127906429D01*
X167987714Y-127906429D01*
X168044857Y-127877857D01*
X168073428Y-127849286D01*
X168102000Y-127792143D01*
X168130571Y-127677857D01*
X168130571Y-127535000D01*
X168102000Y-127420714D01*
X168073428Y-127363571D01*
X168044857Y-127335000D01*
X167987714Y-127306429D01*
X167501999Y-127906429D02*
X167387714Y-127906429D01*
X167330571Y-127877857D01*
X167301999Y-127849286D01*
X167244857Y-127763571D01*
X167216285Y-127649286D01*
X167216285Y-127420714D01*
X167244857Y-127363571D01*
X167273428Y-127335000D01*
X167330571Y-127306429D01*
X167444857Y-127306429D01*
X167501999Y-127335000D01*
X167530571Y-127363571D01*
X167559142Y-127420714D01*
X167559142Y-127563571D01*
X167530571Y-127620714D01*
X167501999Y-127649286D01*
X167444857Y-127677857D01*
X167330571Y-127677857D01*
X167273428Y-127649286D01*
X167244857Y-127620714D01*
X167216285Y-127563571D01*
X169559143Y-130573429D02*
X169559143Y-129973429D01*
X169330571Y-129973429D01*
X169273429Y-130002000D01*
X169244857Y-130030571D01*
X169216286Y-130087714D01*
X169216286Y-130173429D01*
X169244857Y-130230571D01*
X169273429Y-130259143D01*
X169330571Y-130287714D01*
X169559143Y-130287714D01*
X168844857Y-129973429D02*
X168787714Y-129973429D01*
X168730571Y-130002000D01*
X168702000Y-130030571D01*
X168673429Y-130087714D01*
X168644857Y-130202000D01*
X168644857Y-130344857D01*
X168673429Y-130459143D01*
X168702000Y-130516286D01*
X168730571Y-130544857D01*
X168787714Y-130573429D01*
X168844857Y-130573429D01*
X168902000Y-130544857D01*
X168930571Y-130516286D01*
X168959143Y-130459143D01*
X168987714Y-130344857D01*
X168987714Y-130202000D01*
X168959143Y-130087714D01*
X168930571Y-130030571D01*
X168902000Y-130002000D01*
X168844857Y-129973429D01*
X168387714Y-130516286D02*
X168359142Y-130544857D01*
X168387714Y-130573429D01*
X168416285Y-130544857D01*
X168387714Y-130516286D01*
X168387714Y-130573429D01*
X167787714Y-130573429D02*
X168130571Y-130573429D01*
X167959143Y-130573429D02*
X167959143Y-129973429D01*
X168016286Y-130059143D01*
X168073428Y-130116286D01*
X168130571Y-130144857D01*
X167416285Y-129973429D02*
X167359142Y-129973429D01*
X167301999Y-130002000D01*
X167273428Y-130030571D01*
X167244857Y-130087714D01*
X167216285Y-130202000D01*
X167216285Y-130344857D01*
X167244857Y-130459143D01*
X167273428Y-130516286D01*
X167301999Y-130544857D01*
X167359142Y-130573429D01*
X167416285Y-130573429D01*
X167473428Y-130544857D01*
X167501999Y-130516286D01*
X167530571Y-130459143D01*
X167559142Y-130344857D01*
X167559142Y-130202000D01*
X167530571Y-130087714D01*
X167501999Y-130030571D01*
X167473428Y-130002000D01*
X167416285Y-129973429D01*
X185180143Y-110126429D02*
X185180143Y-109526429D01*
X184951571Y-109526429D01*
X184894429Y-109555000D01*
X184865857Y-109583571D01*
X184837286Y-109640714D01*
X184837286Y-109726429D01*
X184865857Y-109783571D01*
X184894429Y-109812143D01*
X184951571Y-109840714D01*
X185180143Y-109840714D01*
X184465857Y-109526429D02*
X184408714Y-109526429D01*
X184351571Y-109555000D01*
X184323000Y-109583571D01*
X184294429Y-109640714D01*
X184265857Y-109755000D01*
X184265857Y-109897857D01*
X184294429Y-110012143D01*
X184323000Y-110069286D01*
X184351571Y-110097857D01*
X184408714Y-110126429D01*
X184465857Y-110126429D01*
X184523000Y-110097857D01*
X184551571Y-110069286D01*
X184580143Y-110012143D01*
X184608714Y-109897857D01*
X184608714Y-109755000D01*
X184580143Y-109640714D01*
X184551571Y-109583571D01*
X184523000Y-109555000D01*
X184465857Y-109526429D01*
X184008714Y-110069286D02*
X183980142Y-110097857D01*
X184008714Y-110126429D01*
X184037285Y-110097857D01*
X184008714Y-110069286D01*
X184008714Y-110126429D01*
X183751571Y-109583571D02*
X183723000Y-109555000D01*
X183665857Y-109526429D01*
X183523000Y-109526429D01*
X183465857Y-109555000D01*
X183437286Y-109583571D01*
X183408714Y-109640714D01*
X183408714Y-109697857D01*
X183437286Y-109783571D01*
X183780143Y-110126429D01*
X183408714Y-110126429D01*
X183037285Y-109526429D02*
X182980142Y-109526429D01*
X182922999Y-109555000D01*
X182894428Y-109583571D01*
X182865857Y-109640714D01*
X182837285Y-109755000D01*
X182837285Y-109897857D01*
X182865857Y-110012143D01*
X182894428Y-110069286D01*
X182922999Y-110097857D01*
X182980142Y-110126429D01*
X183037285Y-110126429D01*
X183094428Y-110097857D01*
X183122999Y-110069286D01*
X183151571Y-110012143D01*
X183180142Y-109897857D01*
X183180142Y-109755000D01*
X183151571Y-109640714D01*
X183122999Y-109583571D01*
X183094428Y-109555000D01*
X183037285Y-109526429D01*
X185180143Y-112031429D02*
X185180143Y-111431429D01*
X184951571Y-111431429D01*
X184894429Y-111460000D01*
X184865857Y-111488571D01*
X184837286Y-111545714D01*
X184837286Y-111631429D01*
X184865857Y-111688571D01*
X184894429Y-111717143D01*
X184951571Y-111745714D01*
X185180143Y-111745714D01*
X184465857Y-111431429D02*
X184408714Y-111431429D01*
X184351571Y-111460000D01*
X184323000Y-111488571D01*
X184294429Y-111545714D01*
X184265857Y-111660000D01*
X184265857Y-111802857D01*
X184294429Y-111917143D01*
X184323000Y-111974286D01*
X184351571Y-112002857D01*
X184408714Y-112031429D01*
X184465857Y-112031429D01*
X184523000Y-112002857D01*
X184551571Y-111974286D01*
X184580143Y-111917143D01*
X184608714Y-111802857D01*
X184608714Y-111660000D01*
X184580143Y-111545714D01*
X184551571Y-111488571D01*
X184523000Y-111460000D01*
X184465857Y-111431429D01*
X184008714Y-111974286D02*
X183980142Y-112002857D01*
X184008714Y-112031429D01*
X184037285Y-112002857D01*
X184008714Y-111974286D01*
X184008714Y-112031429D01*
X183408714Y-112031429D02*
X183751571Y-112031429D01*
X183580143Y-112031429D02*
X183580143Y-111431429D01*
X183637286Y-111517143D01*
X183694428Y-111574286D01*
X183751571Y-111602857D01*
X182894428Y-111431429D02*
X183008714Y-111431429D01*
X183065857Y-111460000D01*
X183094428Y-111488571D01*
X183151571Y-111574286D01*
X183180142Y-111688571D01*
X183180142Y-111917143D01*
X183151571Y-111974286D01*
X183122999Y-112002857D01*
X183065857Y-112031429D01*
X182951571Y-112031429D01*
X182894428Y-112002857D01*
X182865857Y-111974286D01*
X182837285Y-111917143D01*
X182837285Y-111774286D01*
X182865857Y-111717143D01*
X182894428Y-111688571D01*
X182951571Y-111660000D01*
X183065857Y-111660000D01*
X183122999Y-111688571D01*
X183151571Y-111717143D01*
X183180142Y-111774286D01*
X185180143Y-113682429D02*
X185180143Y-113082429D01*
X184951571Y-113082429D01*
X184894429Y-113111000D01*
X184865857Y-113139571D01*
X184837286Y-113196714D01*
X184837286Y-113282429D01*
X184865857Y-113339571D01*
X184894429Y-113368143D01*
X184951571Y-113396714D01*
X185180143Y-113396714D01*
X184465857Y-113082429D02*
X184408714Y-113082429D01*
X184351571Y-113111000D01*
X184323000Y-113139571D01*
X184294429Y-113196714D01*
X184265857Y-113311000D01*
X184265857Y-113453857D01*
X184294429Y-113568143D01*
X184323000Y-113625286D01*
X184351571Y-113653857D01*
X184408714Y-113682429D01*
X184465857Y-113682429D01*
X184523000Y-113653857D01*
X184551571Y-113625286D01*
X184580143Y-113568143D01*
X184608714Y-113453857D01*
X184608714Y-113311000D01*
X184580143Y-113196714D01*
X184551571Y-113139571D01*
X184523000Y-113111000D01*
X184465857Y-113082429D01*
X184008714Y-113625286D02*
X183980142Y-113653857D01*
X184008714Y-113682429D01*
X184037285Y-113653857D01*
X184008714Y-113625286D01*
X184008714Y-113682429D01*
X183408714Y-113682429D02*
X183751571Y-113682429D01*
X183580143Y-113682429D02*
X183580143Y-113082429D01*
X183637286Y-113168143D01*
X183694428Y-113225286D01*
X183751571Y-113253857D01*
X182865857Y-113082429D02*
X183151571Y-113082429D01*
X183180142Y-113368143D01*
X183151571Y-113339571D01*
X183094428Y-113311000D01*
X182951571Y-113311000D01*
X182894428Y-113339571D01*
X182865857Y-113368143D01*
X182837285Y-113425286D01*
X182837285Y-113568143D01*
X182865857Y-113625286D01*
X182894428Y-113653857D01*
X182951571Y-113682429D01*
X183094428Y-113682429D01*
X183151571Y-113653857D01*
X183180142Y-113625286D01*
X185180143Y-119905429D02*
X185180143Y-119305429D01*
X184951571Y-119305429D01*
X184894429Y-119334000D01*
X184865857Y-119362571D01*
X184837286Y-119419714D01*
X184837286Y-119505429D01*
X184865857Y-119562571D01*
X184894429Y-119591143D01*
X184951571Y-119619714D01*
X185180143Y-119619714D01*
X184465857Y-119305429D02*
X184408714Y-119305429D01*
X184351571Y-119334000D01*
X184323000Y-119362571D01*
X184294429Y-119419714D01*
X184265857Y-119534000D01*
X184265857Y-119676857D01*
X184294429Y-119791143D01*
X184323000Y-119848286D01*
X184351571Y-119876857D01*
X184408714Y-119905429D01*
X184465857Y-119905429D01*
X184523000Y-119876857D01*
X184551571Y-119848286D01*
X184580143Y-119791143D01*
X184608714Y-119676857D01*
X184608714Y-119534000D01*
X184580143Y-119419714D01*
X184551571Y-119362571D01*
X184523000Y-119334000D01*
X184465857Y-119305429D01*
X184008714Y-119848286D02*
X183980142Y-119876857D01*
X184008714Y-119905429D01*
X184037285Y-119876857D01*
X184008714Y-119848286D01*
X184008714Y-119905429D01*
X183408714Y-119905429D02*
X183751571Y-119905429D01*
X183580143Y-119905429D02*
X183580143Y-119305429D01*
X183637286Y-119391143D01*
X183694428Y-119448286D01*
X183751571Y-119476857D01*
X182894428Y-119505429D02*
X182894428Y-119905429D01*
X183037285Y-119276857D02*
X183180142Y-119705429D01*
X182808714Y-119705429D01*
X185180143Y-121302429D02*
X185180143Y-120702429D01*
X184951571Y-120702429D01*
X184894429Y-120731000D01*
X184865857Y-120759571D01*
X184837286Y-120816714D01*
X184837286Y-120902429D01*
X184865857Y-120959571D01*
X184894429Y-120988143D01*
X184951571Y-121016714D01*
X185180143Y-121016714D01*
X184465857Y-120702429D02*
X184408714Y-120702429D01*
X184351571Y-120731000D01*
X184323000Y-120759571D01*
X184294429Y-120816714D01*
X184265857Y-120931000D01*
X184265857Y-121073857D01*
X184294429Y-121188143D01*
X184323000Y-121245286D01*
X184351571Y-121273857D01*
X184408714Y-121302429D01*
X184465857Y-121302429D01*
X184523000Y-121273857D01*
X184551571Y-121245286D01*
X184580143Y-121188143D01*
X184608714Y-121073857D01*
X184608714Y-120931000D01*
X184580143Y-120816714D01*
X184551571Y-120759571D01*
X184523000Y-120731000D01*
X184465857Y-120702429D01*
X184008714Y-121245286D02*
X183980142Y-121273857D01*
X184008714Y-121302429D01*
X184037285Y-121273857D01*
X184008714Y-121245286D01*
X184008714Y-121302429D01*
X183408714Y-121302429D02*
X183751571Y-121302429D01*
X183580143Y-121302429D02*
X183580143Y-120702429D01*
X183637286Y-120788143D01*
X183694428Y-120845286D01*
X183751571Y-120873857D01*
X183208714Y-120702429D02*
X182837285Y-120702429D01*
X183037285Y-120931000D01*
X182951571Y-120931000D01*
X182894428Y-120959571D01*
X182865857Y-120988143D01*
X182837285Y-121045286D01*
X182837285Y-121188143D01*
X182865857Y-121245286D01*
X182894428Y-121273857D01*
X182951571Y-121302429D01*
X183122999Y-121302429D01*
X183180142Y-121273857D01*
X183208714Y-121245286D01*
X185180143Y-122826429D02*
X185180143Y-122226429D01*
X184951571Y-122226429D01*
X184894429Y-122255000D01*
X184865857Y-122283571D01*
X184837286Y-122340714D01*
X184837286Y-122426429D01*
X184865857Y-122483571D01*
X184894429Y-122512143D01*
X184951571Y-122540714D01*
X185180143Y-122540714D01*
X184465857Y-122226429D02*
X184408714Y-122226429D01*
X184351571Y-122255000D01*
X184323000Y-122283571D01*
X184294429Y-122340714D01*
X184265857Y-122455000D01*
X184265857Y-122597857D01*
X184294429Y-122712143D01*
X184323000Y-122769286D01*
X184351571Y-122797857D01*
X184408714Y-122826429D01*
X184465857Y-122826429D01*
X184523000Y-122797857D01*
X184551571Y-122769286D01*
X184580143Y-122712143D01*
X184608714Y-122597857D01*
X184608714Y-122455000D01*
X184580143Y-122340714D01*
X184551571Y-122283571D01*
X184523000Y-122255000D01*
X184465857Y-122226429D01*
X184008714Y-122769286D02*
X183980142Y-122797857D01*
X184008714Y-122826429D01*
X184037285Y-122797857D01*
X184008714Y-122769286D01*
X184008714Y-122826429D01*
X183408714Y-122826429D02*
X183751571Y-122826429D01*
X183580143Y-122826429D02*
X183580143Y-122226429D01*
X183637286Y-122312143D01*
X183694428Y-122369286D01*
X183751571Y-122397857D01*
X183180142Y-122283571D02*
X183151571Y-122255000D01*
X183094428Y-122226429D01*
X182951571Y-122226429D01*
X182894428Y-122255000D01*
X182865857Y-122283571D01*
X182837285Y-122340714D01*
X182837285Y-122397857D01*
X182865857Y-122483571D01*
X183208714Y-122826429D01*
X182837285Y-122826429D01*
X185180143Y-125366429D02*
X185180143Y-124766429D01*
X184951571Y-124766429D01*
X184894429Y-124795000D01*
X184865857Y-124823571D01*
X184837286Y-124880714D01*
X184837286Y-124966429D01*
X184865857Y-125023571D01*
X184894429Y-125052143D01*
X184951571Y-125080714D01*
X185180143Y-125080714D01*
X184465857Y-124766429D02*
X184408714Y-124766429D01*
X184351571Y-124795000D01*
X184323000Y-124823571D01*
X184294429Y-124880714D01*
X184265857Y-124995000D01*
X184265857Y-125137857D01*
X184294429Y-125252143D01*
X184323000Y-125309286D01*
X184351571Y-125337857D01*
X184408714Y-125366429D01*
X184465857Y-125366429D01*
X184523000Y-125337857D01*
X184551571Y-125309286D01*
X184580143Y-125252143D01*
X184608714Y-125137857D01*
X184608714Y-124995000D01*
X184580143Y-124880714D01*
X184551571Y-124823571D01*
X184523000Y-124795000D01*
X184465857Y-124766429D01*
X184008714Y-125309286D02*
X183980142Y-125337857D01*
X184008714Y-125366429D01*
X184037285Y-125337857D01*
X184008714Y-125309286D01*
X184008714Y-125366429D01*
X183408714Y-125366429D02*
X183751571Y-125366429D01*
X183580143Y-125366429D02*
X183580143Y-124766429D01*
X183637286Y-124852143D01*
X183694428Y-124909286D01*
X183751571Y-124937857D01*
X182837285Y-125366429D02*
X183180142Y-125366429D01*
X183008714Y-125366429D02*
X183008714Y-124766429D01*
X183065857Y-124852143D01*
X183122999Y-124909286D01*
X183180142Y-124937857D01*
X184871429Y-127971429D02*
X185071429Y-127685714D01*
X185214286Y-127971429D02*
X185214286Y-127371429D01*
X184985714Y-127371429D01*
X184928572Y-127400000D01*
X184900000Y-127428571D01*
X184871429Y-127485714D01*
X184871429Y-127571429D01*
X184900000Y-127628571D01*
X184928572Y-127657143D01*
X184985714Y-127685714D01*
X185214286Y-127685714D01*
X184614286Y-127657143D02*
X184414286Y-127657143D01*
X184328572Y-127971429D02*
X184614286Y-127971429D01*
X184614286Y-127371429D01*
X184328572Y-127371429D01*
X184100000Y-127942857D02*
X184014286Y-127971429D01*
X183871429Y-127971429D01*
X183814286Y-127942857D01*
X183785715Y-127914286D01*
X183757143Y-127857143D01*
X183757143Y-127800000D01*
X183785715Y-127742857D01*
X183814286Y-127714286D01*
X183871429Y-127685714D01*
X183985715Y-127657143D01*
X184042857Y-127628571D01*
X184071429Y-127600000D01*
X184100000Y-127542857D01*
X184100000Y-127485714D01*
X184071429Y-127428571D01*
X184042857Y-127400000D01*
X183985715Y-127371429D01*
X183842857Y-127371429D01*
X183757143Y-127400000D01*
X183500000Y-127657143D02*
X183300000Y-127657143D01*
X183214286Y-127971429D02*
X183500000Y-127971429D01*
X183500000Y-127371429D01*
X183214286Y-127371429D01*
X183042857Y-127371429D02*
X182700000Y-127371429D01*
X182871429Y-127971429D02*
X182871429Y-127371429D01*
X184861142Y-130002000D02*
X184918285Y-129973429D01*
X185003999Y-129973429D01*
X185089714Y-130002000D01*
X185146856Y-130059143D01*
X185175428Y-130116286D01*
X185203999Y-130230571D01*
X185203999Y-130316286D01*
X185175428Y-130430571D01*
X185146856Y-130487714D01*
X185089714Y-130544857D01*
X185003999Y-130573429D01*
X184946856Y-130573429D01*
X184861142Y-130544857D01*
X184832571Y-130516286D01*
X184832571Y-130316286D01*
X184946856Y-130316286D01*
X184575428Y-130573429D02*
X184575428Y-129973429D01*
X184232571Y-130573429D01*
X184232571Y-129973429D01*
X183946857Y-130573429D02*
X183946857Y-129973429D01*
X183804000Y-129973429D01*
X183718285Y-130002000D01*
X183661143Y-130059143D01*
X183632571Y-130116286D01*
X183604000Y-130230571D01*
X183604000Y-130316286D01*
X183632571Y-130430571D01*
X183661143Y-130487714D01*
X183718285Y-130544857D01*
X183804000Y-130573429D01*
X183946857Y-130573429D01*
M02*
