<?xml version="1.0" standalone="no"?>
 <!DOCTYPE svg PUBLIC "-//W3C//DTD SVG 1.1//EN" 
 "http://www.w3.org/Graphics/SVG/1.1/DTD/svg11.dtd"> 
<svg xmlns="http://www.w3.org/2000/svg" version="1.1" 
    width="3.53568cm" height="4.3434cm" viewBox="0 0 13920 17100 ">
<title>SVG Picture created as hackaBLE-brd.svg date 2018/12/13 18:20:13 </title>
  <desc>Picture generated by PCBNEW </desc>
<g style="fill:#000000; fill-opacity:1;stroke:#000000; stroke-opacity:1;
stroke-linecap:round; stroke-linejoin:round; "
 transform="translate(0 0) scale(1 1)">
</g>
<g style="fill:#000000; fill-opacity:0.0; 
stroke:#000000; stroke-width:-0.000393701; stroke-opacity:1; 
stroke-linecap:round; stroke-linejoin:round;">
</g>
<g style="fill:#008400; fill-opacity:0.0; 
stroke:#008400; stroke-width:-0.000393701; stroke-opacity:1; 
stroke-linecap:round; stroke-linejoin:round;">
</g>
<g style="fill:#008400; fill-opacity:0.0; 
stroke:#008400; stroke-width:0; stroke-opacity:1; 
stroke-linecap:round; stroke-linejoin:round;">
</g>
<g style="fill:#008400; fill-opacity:1.0; 
stroke:#008400; stroke-width:0; stroke-opacity:1; 
stroke-linecap:round; stroke-linejoin:round;">
<polyline style="fill-rule:evenodd;"
points="12030,8625
12030,8389
12464,8389
12464,8625
12030,8625
" /> 
<polyline style="fill-rule:evenodd;"
points="12030,9019
12030,8783
12464,8783
12464,9019
12030,9019
" /> 
<polyline style="fill-rule:evenodd;"
points="12030,9412
12030,9176
12464,9176
12464,9412
12030,9412
" /> 
<polyline style="fill-rule:evenodd;"
points="12030,8231
12030,7995
12464,7995
12464,8231
12030,8231
" /> 
<polyline style="fill-rule:evenodd;"
points="12030,7838
12030,7601
12464,7601
12464,7838
12030,7838
" /> 
<polyline style="fill-rule:evenodd;"
points="5819,8625
5819,8389
6252,8389
6252,8625
5819,8625
" /> 
<polyline style="fill-rule:evenodd;"
points="5819,9019
5819,8783
6252,8783
6252,9019
5819,9019
" /> 
<polyline style="fill-rule:evenodd;"
points="5819,9412
5819,9176
6252,9176
6252,9412
5819,9412
" /> 
<polyline style="fill-rule:evenodd;"
points="5819,8231
5819,7995
6252,7995
6252,8231
5819,8231
" /> 
<polyline style="fill-rule:evenodd;"
points="5819,7838
5819,7601
6252,7601
6252,7838
5819,7838
" /> 
</g>
<g style="fill:#000000; fill-opacity:1.0; 
stroke:#000000; stroke-width:0; stroke-opacity:1; 
stroke-linecap:round; stroke-linejoin:round;">
</g>
<g style="fill:#C2C2C2; fill-opacity:1.0; 
stroke:#C2C2C2; stroke-width:0; stroke-opacity:1; 
stroke-linecap:round; stroke-linejoin:round;">
</g>
<g style="fill:#C2C2C2; fill-opacity:0.0; 
stroke:#C2C2C2; stroke-width:0; stroke-opacity:1; 
stroke-linecap:round; stroke-linejoin:round;">
</g>
<g style="fill:#C2C2C2; fill-opacity:0.0; 
stroke:#C2C2C2; stroke-width:118.11; stroke-opacity:1; 
stroke-linecap:round; stroke-linejoin:round;">
<path d="M2544 8422
L2544 8759
" />
<path d="M2544 8591
L1954 8591
L2038 8647
L2095 8703
L2123 8759
" />
<path d="M2488 8169
L2516 8141
L2544 8169
L2516 8197
L2488 8169
L2544 8169
" />
<path d="M1954 7775
L1954 7719
L1982 7663
L2010 7634
L2066 7606
L2179 7578
L2320 7578
L2432 7606
L2488 7634
L2516 7663
L2544 7719
L2544 7775
L2516 7831
L2488 7859
L2432 7888
L2320 7916
L2179 7916
L2066 7888
L2010 7859
L1982 7831
L1954 7775
" />
<path d="M1954 7213
L1954 7156
L1982 7100
L2010 7072
L2066 7044
L2179 7016
L2320 7016
L2432 7044
L2488 7072
L2516 7100
L2544 7156
L2544 7213
L2516 7269
L2488 7297
L2432 7325
L2320 7353
L2179 7353
L2066 7325
L2010 7297
L1982 7269
L1954 7213
" />
<path d="M1954 6650
L1954 6594
L1982 6538
L2010 6510
L2066 6482
L2179 6453
L2320 6453
L2432 6482
L2488 6510
L2516 6538
L2544 6594
L2544 6650
L2516 6706
L2488 6735
L2432 6763
L2320 6791
L2179 6791
L2066 6763
L2010 6735
L1982 6706
L1954 6650
" />
<path d="M2544 5750
L2151 5750
" />
<path d="M2207 5750
L2179 5722
L2151 5666
L2151 5582
L2179 5525
L2235 5497
L2544 5497
" />
<path d="M2235 5497
L2179 5469
L2151 5413
L2151 5329
L2179 5272
L2235 5244
L2544 5244
" />
<path d="M2544 4963
L2151 4963
" />
<path d="M2207 4963
L2179 4935
L2151 4879
L2151 4794
L2179 4738
L2235 4710
L2544 4710
" />
<path d="M2235 4710
L2179 4682
L2151 4625
L2151 4541
L2179 4485
L2235 4457
L2544 4457
" />
<path d="M3931 8523
L3931 8129
" />
<path d="M6017 8523
L2868 8523
" />
<path d="M6017 8129
L2868 8129
" />
<path d="M3931 8129
L4162 8573
" />
<path d="M3931 8129
L3700 8573
" />
<path d="M3931 8523
L4162 8080
" />
<path d="M3931 8523
L3700 8080
" />
<path d="M3419 5835
L3447 5807
L3503 5778
L3644 5778
L3700 5807
L3728 5835
L3757 5891
L3757 5947
L3728 6032
L3391 6369
L3757 6369
" />
<path d="M4010 6313
L4038 6341
L4010 6369
L3982 6341
L4010 6313
L4010 6369
" />
<path d="M4263 5835
L4291 5807
L4347 5778
L4488 5778
L4544 5807
L4572 5835
L4600 5891
L4600 5947
L4572 6032
L4235 6369
L4600 6369
" />
<path d="M4966 5778
L5022 5778
L5078 5807
L5106 5835
L5134 5891
L5163 6003
L5163 6144
L5134 6257
L5106 6313
L5078 6341
L5022 6369
L4966 6369
L4910 6341
L4881 6313
L4853 6257
L4825 6144
L4825 6003
L4853 5891
L4881 5835
L4910 5807
L4966 5778
" />
<path d="M5528 5778
L5584 5778
L5641 5807
L5669 5835
L5697 5891
L5725 6003
L5725 6144
L5697 6257
L5669 6313
L5641 6341
L5584 6369
L5528 6369
L5472 6341
L5444 6313
L5416 6257
L5388 6144
L5388 6003
L5416 5891
L5444 5835
L5472 5807
L5528 5778
" />
<path d="M6428 6369
L6428 5975
" />
<path d="M6428 6032
L6456 6003
L6512 5975
L6597 5975
L6653 6003
L6681 6060
L6681 6369
" />
<path d="M6681 6060
L6709 6003
L6766 5975
L6850 5975
L6906 6003
L6934 6060
L6934 6369
" />
<path d="M7215 6369
L7215 5975
" />
<path d="M7215 6032
L7244 6003
L7300 5975
L7384 5975
L7440 6003
L7469 6060
L7469 6369
" />
<path d="M7469 6060
L7497 6003
L7553 5975
L7637 5975
L7694 6003
L7722 6060
L7722 6369
" />
<path d="M6017 6633
L5151 6633
" />
<path d="M6017 7736
L6017 5570
" />
<path d="M5151 7736
L5151 5570
" />
<path d="M5151 6633
L5595 6402
" />
<path d="M5151 6633
L5595 6864
" />
<path d="M6017 6633
L5574 6402
" />
<path d="M6017 6633
L5574 6864
" />
<path d="M3391 14012
L3391 14350
" />
<path d="M3391 14181
L2800 14181
L2885 14237
L2941 14294
L2969 14350
" />
<path d="M2997 13506
L3391 13506
" />
<path d="M2772 13647
L3194 13787
L3194 13422
" />
<path d="M3335 13197
L3363 13169
L3391 13197
L3363 13225
L3335 13197
L3391 13197
" />
<path d="M2800 12663
L2800 12775
L2829 12831
L2857 12859
L2941 12916
L3053 12944
L3278 12944
L3335 12916
L3363 12888
L3391 12831
L3391 12719
L3363 12663
L3335 12634
L3278 12606
L3138 12606
L3082 12634
L3053 12663
L3025 12719
L3025 12831
L3053 12888
L3082 12916
L3138 12944
" />
<path d="M2800 12072
L2800 12353
L3082 12381
L3053 12353
L3025 12297
L3025 12156
L3053 12100
L3082 12072
L3138 12044
L3278 12044
L3335 12072
L3363 12100
L3391 12156
L3391 12297
L3363 12353
L3335 12381
" />
<path d="M3391 11341
L2997 11341
" />
<path d="M3053 11341
L3025 11313
L2997 11257
L2997 11172
L3025 11116
L3082 11088
L3391 11088
" />
<path d="M3082 11088
L3025 11060
L2997 11003
L2997 10919
L3025 10863
L3082 10835
L3391 10835
" />
<path d="M3391 10553
L2997 10553
" />
<path d="M3053 10553
L3025 10525
L2997 10469
L2997 10385
L3025 10329
L3082 10300
L3391 10300
" />
<path d="M3082 10300
L3025 10272
L2997 10216
L2997 10132
L3025 10075
L3082 10047
L3391 10047
" />
<path d="M3655 15059
L3655 9311
" />
<path d="M6017 15059
L2592 15059
" />
<path d="M6017 9311
L2592 9311
" />
<path d="M3655 9311
L3886 9754
" />
<path d="M3655 9311
L3424 9754
" />
<path d="M3655 15059
L3886 14615
" />
<path d="M3655 15059
L3424 14615
" />
<path d="M6701 264
L6729 236
L6785 208
L6926 208
L6982 236
L7010 264
L7038 320
L7038 376
L7010 461
L6673 798
L7038 798
" />
<path d="M7404 208
L7460 208
L7516 236
L7544 264
L7573 320
L7601 433
L7601 573
L7573 686
L7544 742
L7516 770
L7460 798
L7404 798
L7348 770
L7320 742
L7291 686
L7263 573
L7263 433
L7291 320
L7320 264
L7348 236
L7404 208
" />
<path d="M7854 742
L7882 770
L7854 798
L7826 770
L7854 742
L7854 798
" />
<path d="M8079 208
L8444 208
L8248 433
L8332 433
L8388 461
L8416 489
L8444 545
L8444 686
L8416 742
L8388 770
L8332 798
L8163 798
L8107 770
L8079 742
" />
<path d="M8810 208
L8866 208
L8922 236
L8951 264
L8979 320
L9007 433
L9007 573
L8979 686
L8951 742
L8922 770
L8866 798
L8810 798
L8754 770
L8726 742
L8697 686
L8669 573
L8669 433
L8697 320
L8726 264
L8754 236
L8810 208
" />
<path d="M9372 208
L9429 208
L9485 236
L9513 264
L9541 320
L9569 433
L9569 573
L9541 686
L9513 742
L9485 770
L9429 798
L9372 798
L9316 770
L9288 742
L9260 686
L9232 573
L9232 433
L9260 320
L9288 264
L9316 236
L9372 208
" />
<path d="M10272 798
L10272 404
" />
<path d="M10272 461
L10300 433
L10357 404
L10441 404
L10497 433
L10525 489
L10525 798
" />
<path d="M10525 489
L10553 433
L10610 404
L10694 404
L10750 433
L10778 489
L10778 798
" />
<path d="M11060 798
L11060 404
" />
<path d="M11060 461
L11088 433
L11144 404
L11228 404
L11285 433
L11313 489
L11313 798
" />
<path d="M11313 489
L11341 433
L11397 404
L11482 404
L11538 433
L11566 489
L11566 798
" />
<path d="M5151 1062
L13143 1062
" />
<path d="M5151 3759
L5151 0
" />
<path d="M13143 3759
L13143 0
" />
<path d="M13143 1062
L12700 1293
" />
<path d="M13143 1062
L12700 832
" />
<path d="M5151 1062
L5595 1293
" />
<path d="M5151 1062
L5595 832
" />
</g>
<g style="fill:#000000; fill-opacity:0.0; 
stroke:#000000; stroke-width:118.11; stroke-opacity:1; 
stroke-linecap:round; stroke-linejoin:round;">
</g>
<g style="fill:#C2C200; fill-opacity:0.0; 
stroke:#C2C200; stroke-width:118.11; stroke-opacity:1; 
stroke-linecap:round; stroke-linejoin:round;">
</g>
<g style="fill:#C2C200; fill-opacity:0.0; 
stroke:#C2C200; stroke-width:59.0551; stroke-opacity:1; 
stroke-linecap:round; stroke-linejoin:round;">
<path d="M5647 15070
L12647 15070
" />
<path d="M5147 3157
L5147 14570
" />
<path d="M12647 2657
L5647 2657
" />
<path d="M13147 14570
L13147 3157
" />
<path d="M13147.5 3157.48 A500 500 0.0 0 0 12647.5 2657.48 " />
<path d="M5647.52 2657.48 A500 500 0.0 0 0 5147.52 3157.48 " />
<path d="M5147.52 14570.1 A500 500 0.0 0 0 5647.52 15070.1 " />
<path d="M12647.5 15070.1 A500 500 0.0 0 0 13147.5 14570.1 " />
</g> 
</svg>
