G04 #@! TF.FileFunction,Legend,Top*
%FSLAX46Y46*%
G04 Gerber Fmt 4.6, Leading zero omitted, Abs format (unit mm)*
G04 Created by KiCad (PCBNEW 4.0.7) date 09/26/18 10:41:12*
%MOMM*%
%LPD*%
G01*
G04 APERTURE LIST*
%ADD10C,0.100000*%
%ADD11C,0.060000*%
%ADD12C,0.200000*%
%ADD13C,0.250000*%
%ADD14C,0.150000*%
%ADD15C,0.120000*%
%ADD16C,0.080000*%
%ADD17C,0.010000*%
%ADD18C,0.050000*%
G04 APERTURE END LIST*
D10*
D11*
X185183429Y-110583572D02*
X184583429Y-110583572D01*
X184583429Y-110355000D01*
X184612000Y-110297858D01*
X184640571Y-110269286D01*
X184697714Y-110240715D01*
X184783429Y-110240715D01*
X184840571Y-110269286D01*
X184869143Y-110297858D01*
X184897714Y-110355000D01*
X184897714Y-110583572D01*
X184640571Y-110012143D02*
X184612000Y-109983572D01*
X184583429Y-109926429D01*
X184583429Y-109783572D01*
X184612000Y-109726429D01*
X184640571Y-109697858D01*
X184697714Y-109669286D01*
X184754857Y-109669286D01*
X184840571Y-109697858D01*
X185183429Y-110040715D01*
X185183429Y-109669286D01*
X184583429Y-109297857D02*
X184583429Y-109240714D01*
X184612000Y-109183571D01*
X184640571Y-109155000D01*
X184697714Y-109126429D01*
X184812000Y-109097857D01*
X184954857Y-109097857D01*
X185069143Y-109126429D01*
X185126286Y-109155000D01*
X185154857Y-109183571D01*
X185183429Y-109240714D01*
X185183429Y-109297857D01*
X185154857Y-109355000D01*
X185126286Y-109383571D01*
X185069143Y-109412143D01*
X184954857Y-109440714D01*
X184812000Y-109440714D01*
X184697714Y-109412143D01*
X184640571Y-109383571D01*
X184612000Y-109355000D01*
X184583429Y-109297857D01*
X185183429Y-113123572D02*
X184583429Y-113123572D01*
X184583429Y-112895000D01*
X184612000Y-112837858D01*
X184640571Y-112809286D01*
X184697714Y-112780715D01*
X184783429Y-112780715D01*
X184840571Y-112809286D01*
X184869143Y-112837858D01*
X184897714Y-112895000D01*
X184897714Y-113123572D01*
X185183429Y-112209286D02*
X185183429Y-112552143D01*
X185183429Y-112380715D02*
X184583429Y-112380715D01*
X184669143Y-112437858D01*
X184726286Y-112495000D01*
X184754857Y-112552143D01*
X184583429Y-111695000D02*
X184583429Y-111809286D01*
X184612000Y-111866429D01*
X184640571Y-111895000D01*
X184726286Y-111952143D01*
X184840571Y-111980714D01*
X185069143Y-111980714D01*
X185126286Y-111952143D01*
X185154857Y-111923571D01*
X185183429Y-111866429D01*
X185183429Y-111752143D01*
X185154857Y-111695000D01*
X185126286Y-111666429D01*
X185069143Y-111637857D01*
X184926286Y-111637857D01*
X184869143Y-111666429D01*
X184840571Y-111695000D01*
X184812000Y-111752143D01*
X184812000Y-111866429D01*
X184840571Y-111923571D01*
X184869143Y-111952143D01*
X184926286Y-111980714D01*
X185183429Y-115663572D02*
X184583429Y-115663572D01*
X184583429Y-115435000D01*
X184612000Y-115377858D01*
X184640571Y-115349286D01*
X184697714Y-115320715D01*
X184783429Y-115320715D01*
X184840571Y-115349286D01*
X184869143Y-115377858D01*
X184897714Y-115435000D01*
X184897714Y-115663572D01*
X185183429Y-114749286D02*
X185183429Y-115092143D01*
X185183429Y-114920715D02*
X184583429Y-114920715D01*
X184669143Y-114977858D01*
X184726286Y-115035000D01*
X184754857Y-115092143D01*
X184583429Y-114206429D02*
X184583429Y-114492143D01*
X184869143Y-114520714D01*
X184840571Y-114492143D01*
X184812000Y-114435000D01*
X184812000Y-114292143D01*
X184840571Y-114235000D01*
X184869143Y-114206429D01*
X184926286Y-114177857D01*
X185069143Y-114177857D01*
X185126286Y-114206429D01*
X185154857Y-114235000D01*
X185183429Y-114292143D01*
X185183429Y-114435000D01*
X185154857Y-114492143D01*
X185126286Y-114520714D01*
X185183429Y-118203572D02*
X184583429Y-118203572D01*
X184583429Y-117975000D01*
X184612000Y-117917858D01*
X184640571Y-117889286D01*
X184697714Y-117860715D01*
X184783429Y-117860715D01*
X184840571Y-117889286D01*
X184869143Y-117917858D01*
X184897714Y-117975000D01*
X184897714Y-118203572D01*
X185183429Y-117289286D02*
X185183429Y-117632143D01*
X185183429Y-117460715D02*
X184583429Y-117460715D01*
X184669143Y-117517858D01*
X184726286Y-117575000D01*
X184754857Y-117632143D01*
X184783429Y-116775000D02*
X185183429Y-116775000D01*
X184554857Y-116917857D02*
X184983429Y-117060714D01*
X184983429Y-116689286D01*
X185183429Y-120743572D02*
X184583429Y-120743572D01*
X184583429Y-120515000D01*
X184612000Y-120457858D01*
X184640571Y-120429286D01*
X184697714Y-120400715D01*
X184783429Y-120400715D01*
X184840571Y-120429286D01*
X184869143Y-120457858D01*
X184897714Y-120515000D01*
X184897714Y-120743572D01*
X185183429Y-119829286D02*
X185183429Y-120172143D01*
X185183429Y-120000715D02*
X184583429Y-120000715D01*
X184669143Y-120057858D01*
X184726286Y-120115000D01*
X184754857Y-120172143D01*
X184583429Y-119629286D02*
X184583429Y-119257857D01*
X184812000Y-119457857D01*
X184812000Y-119372143D01*
X184840571Y-119315000D01*
X184869143Y-119286429D01*
X184926286Y-119257857D01*
X185069143Y-119257857D01*
X185126286Y-119286429D01*
X185154857Y-119315000D01*
X185183429Y-119372143D01*
X185183429Y-119543571D01*
X185154857Y-119600714D01*
X185126286Y-119629286D01*
X185183429Y-123283572D02*
X184583429Y-123283572D01*
X184583429Y-123055000D01*
X184612000Y-122997858D01*
X184640571Y-122969286D01*
X184697714Y-122940715D01*
X184783429Y-122940715D01*
X184840571Y-122969286D01*
X184869143Y-122997858D01*
X184897714Y-123055000D01*
X184897714Y-123283572D01*
X185183429Y-122369286D02*
X185183429Y-122712143D01*
X185183429Y-122540715D02*
X184583429Y-122540715D01*
X184669143Y-122597858D01*
X184726286Y-122655000D01*
X184754857Y-122712143D01*
X184640571Y-122140714D02*
X184612000Y-122112143D01*
X184583429Y-122055000D01*
X184583429Y-121912143D01*
X184612000Y-121855000D01*
X184640571Y-121826429D01*
X184697714Y-121797857D01*
X184754857Y-121797857D01*
X184840571Y-121826429D01*
X185183429Y-122169286D01*
X185183429Y-121797857D01*
X185183429Y-125823572D02*
X184583429Y-125823572D01*
X184583429Y-125595000D01*
X184612000Y-125537858D01*
X184640571Y-125509286D01*
X184697714Y-125480715D01*
X184783429Y-125480715D01*
X184840571Y-125509286D01*
X184869143Y-125537858D01*
X184897714Y-125595000D01*
X184897714Y-125823572D01*
X185183429Y-124909286D02*
X185183429Y-125252143D01*
X185183429Y-125080715D02*
X184583429Y-125080715D01*
X184669143Y-125137858D01*
X184726286Y-125195000D01*
X184754857Y-125252143D01*
X185183429Y-124337857D02*
X185183429Y-124680714D01*
X185183429Y-124509286D02*
X184583429Y-124509286D01*
X184669143Y-124566429D01*
X184726286Y-124623571D01*
X184754857Y-124680714D01*
X185183429Y-127963572D02*
X184897714Y-128163572D01*
X185183429Y-128306429D02*
X184583429Y-128306429D01*
X184583429Y-128077857D01*
X184612000Y-128020715D01*
X184640571Y-127992143D01*
X184697714Y-127963572D01*
X184783429Y-127963572D01*
X184840571Y-127992143D01*
X184869143Y-128020715D01*
X184897714Y-128077857D01*
X184897714Y-128306429D01*
X185154857Y-127735000D02*
X185183429Y-127649286D01*
X185183429Y-127506429D01*
X185154857Y-127449286D01*
X185126286Y-127420715D01*
X185069143Y-127392143D01*
X185012000Y-127392143D01*
X184954857Y-127420715D01*
X184926286Y-127449286D01*
X184897714Y-127506429D01*
X184869143Y-127620715D01*
X184840571Y-127677857D01*
X184812000Y-127706429D01*
X184754857Y-127735000D01*
X184697714Y-127735000D01*
X184640571Y-127706429D01*
X184612000Y-127677857D01*
X184583429Y-127620715D01*
X184583429Y-127477857D01*
X184612000Y-127392143D01*
X184583429Y-127220714D02*
X184583429Y-126877857D01*
X185183429Y-127049286D02*
X184583429Y-127049286D01*
X184612000Y-130632142D02*
X184583429Y-130689285D01*
X184583429Y-130774999D01*
X184612000Y-130860714D01*
X184669143Y-130917856D01*
X184726286Y-130946428D01*
X184840571Y-130974999D01*
X184926286Y-130974999D01*
X185040571Y-130946428D01*
X185097714Y-130917856D01*
X185154857Y-130860714D01*
X185183429Y-130774999D01*
X185183429Y-130717856D01*
X185154857Y-130632142D01*
X185126286Y-130603571D01*
X184926286Y-130603571D01*
X184926286Y-130717856D01*
X185183429Y-130346428D02*
X184583429Y-130346428D01*
X185183429Y-130003571D01*
X184583429Y-130003571D01*
X185183429Y-129717857D02*
X184583429Y-129717857D01*
X184583429Y-129575000D01*
X184612000Y-129489285D01*
X184669143Y-129432143D01*
X184726286Y-129403571D01*
X184840571Y-129375000D01*
X184926286Y-129375000D01*
X185040571Y-129403571D01*
X185097714Y-129432143D01*
X185154857Y-129489285D01*
X185183429Y-129575000D01*
X185183429Y-129717857D01*
D12*
X168431981Y-112903000D02*
G75*
G03X168431981Y-112903000I-283981J0D01*
G01*
D11*
X167657429Y-110583572D02*
X167057429Y-110583572D01*
X167057429Y-110355000D01*
X167086000Y-110297858D01*
X167114571Y-110269286D01*
X167171714Y-110240715D01*
X167257429Y-110240715D01*
X167314571Y-110269286D01*
X167343143Y-110297858D01*
X167371714Y-110355000D01*
X167371714Y-110583572D01*
X167057429Y-109869286D02*
X167057429Y-109812143D01*
X167086000Y-109755000D01*
X167114571Y-109726429D01*
X167171714Y-109697858D01*
X167286000Y-109669286D01*
X167428857Y-109669286D01*
X167543143Y-109697858D01*
X167600286Y-109726429D01*
X167628857Y-109755000D01*
X167657429Y-109812143D01*
X167657429Y-109869286D01*
X167628857Y-109926429D01*
X167600286Y-109955000D01*
X167543143Y-109983572D01*
X167428857Y-110012143D01*
X167286000Y-110012143D01*
X167171714Y-109983572D01*
X167114571Y-109955000D01*
X167086000Y-109926429D01*
X167057429Y-109869286D01*
X167114571Y-109440714D02*
X167086000Y-109412143D01*
X167057429Y-109355000D01*
X167057429Y-109212143D01*
X167086000Y-109155000D01*
X167114571Y-109126429D01*
X167171714Y-109097857D01*
X167228857Y-109097857D01*
X167314571Y-109126429D01*
X167657429Y-109469286D01*
X167657429Y-109097857D01*
X167657429Y-113123572D02*
X167057429Y-113123572D01*
X167057429Y-112895000D01*
X167086000Y-112837858D01*
X167114571Y-112809286D01*
X167171714Y-112780715D01*
X167257429Y-112780715D01*
X167314571Y-112809286D01*
X167343143Y-112837858D01*
X167371714Y-112895000D01*
X167371714Y-113123572D01*
X167057429Y-112409286D02*
X167057429Y-112352143D01*
X167086000Y-112295000D01*
X167114571Y-112266429D01*
X167171714Y-112237858D01*
X167286000Y-112209286D01*
X167428857Y-112209286D01*
X167543143Y-112237858D01*
X167600286Y-112266429D01*
X167628857Y-112295000D01*
X167657429Y-112352143D01*
X167657429Y-112409286D01*
X167628857Y-112466429D01*
X167600286Y-112495000D01*
X167543143Y-112523572D01*
X167428857Y-112552143D01*
X167286000Y-112552143D01*
X167171714Y-112523572D01*
X167114571Y-112495000D01*
X167086000Y-112466429D01*
X167057429Y-112409286D01*
X167057429Y-112009286D02*
X167057429Y-111637857D01*
X167286000Y-111837857D01*
X167286000Y-111752143D01*
X167314571Y-111695000D01*
X167343143Y-111666429D01*
X167400286Y-111637857D01*
X167543143Y-111637857D01*
X167600286Y-111666429D01*
X167628857Y-111695000D01*
X167657429Y-111752143D01*
X167657429Y-111923571D01*
X167628857Y-111980714D01*
X167600286Y-112009286D01*
X167657429Y-115663572D02*
X167057429Y-115663572D01*
X167057429Y-115435000D01*
X167086000Y-115377858D01*
X167114571Y-115349286D01*
X167171714Y-115320715D01*
X167257429Y-115320715D01*
X167314571Y-115349286D01*
X167343143Y-115377858D01*
X167371714Y-115435000D01*
X167371714Y-115663572D01*
X167057429Y-114949286D02*
X167057429Y-114892143D01*
X167086000Y-114835000D01*
X167114571Y-114806429D01*
X167171714Y-114777858D01*
X167286000Y-114749286D01*
X167428857Y-114749286D01*
X167543143Y-114777858D01*
X167600286Y-114806429D01*
X167628857Y-114835000D01*
X167657429Y-114892143D01*
X167657429Y-114949286D01*
X167628857Y-115006429D01*
X167600286Y-115035000D01*
X167543143Y-115063572D01*
X167428857Y-115092143D01*
X167286000Y-115092143D01*
X167171714Y-115063572D01*
X167114571Y-115035000D01*
X167086000Y-115006429D01*
X167057429Y-114949286D01*
X167257429Y-114235000D02*
X167657429Y-114235000D01*
X167028857Y-114377857D02*
X167457429Y-114520714D01*
X167457429Y-114149286D01*
X167657429Y-118203572D02*
X167057429Y-118203572D01*
X167057429Y-117975000D01*
X167086000Y-117917858D01*
X167114571Y-117889286D01*
X167171714Y-117860715D01*
X167257429Y-117860715D01*
X167314571Y-117889286D01*
X167343143Y-117917858D01*
X167371714Y-117975000D01*
X167371714Y-118203572D01*
X167057429Y-117489286D02*
X167057429Y-117432143D01*
X167086000Y-117375000D01*
X167114571Y-117346429D01*
X167171714Y-117317858D01*
X167286000Y-117289286D01*
X167428857Y-117289286D01*
X167543143Y-117317858D01*
X167600286Y-117346429D01*
X167628857Y-117375000D01*
X167657429Y-117432143D01*
X167657429Y-117489286D01*
X167628857Y-117546429D01*
X167600286Y-117575000D01*
X167543143Y-117603572D01*
X167428857Y-117632143D01*
X167286000Y-117632143D01*
X167171714Y-117603572D01*
X167114571Y-117575000D01*
X167086000Y-117546429D01*
X167057429Y-117489286D01*
X167057429Y-116746429D02*
X167057429Y-117032143D01*
X167343143Y-117060714D01*
X167314571Y-117032143D01*
X167286000Y-116975000D01*
X167286000Y-116832143D01*
X167314571Y-116775000D01*
X167343143Y-116746429D01*
X167400286Y-116717857D01*
X167543143Y-116717857D01*
X167600286Y-116746429D01*
X167628857Y-116775000D01*
X167657429Y-116832143D01*
X167657429Y-116975000D01*
X167628857Y-117032143D01*
X167600286Y-117060714D01*
X167657429Y-120743572D02*
X167057429Y-120743572D01*
X167057429Y-120515000D01*
X167086000Y-120457858D01*
X167114571Y-120429286D01*
X167171714Y-120400715D01*
X167257429Y-120400715D01*
X167314571Y-120429286D01*
X167343143Y-120457858D01*
X167371714Y-120515000D01*
X167371714Y-120743572D01*
X167057429Y-120029286D02*
X167057429Y-119972143D01*
X167086000Y-119915000D01*
X167114571Y-119886429D01*
X167171714Y-119857858D01*
X167286000Y-119829286D01*
X167428857Y-119829286D01*
X167543143Y-119857858D01*
X167600286Y-119886429D01*
X167628857Y-119915000D01*
X167657429Y-119972143D01*
X167657429Y-120029286D01*
X167628857Y-120086429D01*
X167600286Y-120115000D01*
X167543143Y-120143572D01*
X167428857Y-120172143D01*
X167286000Y-120172143D01*
X167171714Y-120143572D01*
X167114571Y-120115000D01*
X167086000Y-120086429D01*
X167057429Y-120029286D01*
X167057429Y-119315000D02*
X167057429Y-119429286D01*
X167086000Y-119486429D01*
X167114571Y-119515000D01*
X167200286Y-119572143D01*
X167314571Y-119600714D01*
X167543143Y-119600714D01*
X167600286Y-119572143D01*
X167628857Y-119543571D01*
X167657429Y-119486429D01*
X167657429Y-119372143D01*
X167628857Y-119315000D01*
X167600286Y-119286429D01*
X167543143Y-119257857D01*
X167400286Y-119257857D01*
X167343143Y-119286429D01*
X167314571Y-119315000D01*
X167286000Y-119372143D01*
X167286000Y-119486429D01*
X167314571Y-119543571D01*
X167343143Y-119572143D01*
X167400286Y-119600714D01*
X167657429Y-123283572D02*
X167057429Y-123283572D01*
X167057429Y-123055000D01*
X167086000Y-122997858D01*
X167114571Y-122969286D01*
X167171714Y-122940715D01*
X167257429Y-122940715D01*
X167314571Y-122969286D01*
X167343143Y-122997858D01*
X167371714Y-123055000D01*
X167371714Y-123283572D01*
X167057429Y-122569286D02*
X167057429Y-122512143D01*
X167086000Y-122455000D01*
X167114571Y-122426429D01*
X167171714Y-122397858D01*
X167286000Y-122369286D01*
X167428857Y-122369286D01*
X167543143Y-122397858D01*
X167600286Y-122426429D01*
X167628857Y-122455000D01*
X167657429Y-122512143D01*
X167657429Y-122569286D01*
X167628857Y-122626429D01*
X167600286Y-122655000D01*
X167543143Y-122683572D01*
X167428857Y-122712143D01*
X167286000Y-122712143D01*
X167171714Y-122683572D01*
X167114571Y-122655000D01*
X167086000Y-122626429D01*
X167057429Y-122569286D01*
X167057429Y-122169286D02*
X167057429Y-121769286D01*
X167657429Y-122026429D01*
X167657429Y-125823572D02*
X167057429Y-125823572D01*
X167057429Y-125595000D01*
X167086000Y-125537858D01*
X167114571Y-125509286D01*
X167171714Y-125480715D01*
X167257429Y-125480715D01*
X167314571Y-125509286D01*
X167343143Y-125537858D01*
X167371714Y-125595000D01*
X167371714Y-125823572D01*
X167057429Y-125109286D02*
X167057429Y-125052143D01*
X167086000Y-124995000D01*
X167114571Y-124966429D01*
X167171714Y-124937858D01*
X167286000Y-124909286D01*
X167428857Y-124909286D01*
X167543143Y-124937858D01*
X167600286Y-124966429D01*
X167628857Y-124995000D01*
X167657429Y-125052143D01*
X167657429Y-125109286D01*
X167628857Y-125166429D01*
X167600286Y-125195000D01*
X167543143Y-125223572D01*
X167428857Y-125252143D01*
X167286000Y-125252143D01*
X167171714Y-125223572D01*
X167114571Y-125195000D01*
X167086000Y-125166429D01*
X167057429Y-125109286D01*
X167314571Y-124566429D02*
X167286000Y-124623571D01*
X167257429Y-124652143D01*
X167200286Y-124680714D01*
X167171714Y-124680714D01*
X167114571Y-124652143D01*
X167086000Y-124623571D01*
X167057429Y-124566429D01*
X167057429Y-124452143D01*
X167086000Y-124395000D01*
X167114571Y-124366429D01*
X167171714Y-124337857D01*
X167200286Y-124337857D01*
X167257429Y-124366429D01*
X167286000Y-124395000D01*
X167314571Y-124452143D01*
X167314571Y-124566429D01*
X167343143Y-124623571D01*
X167371714Y-124652143D01*
X167428857Y-124680714D01*
X167543143Y-124680714D01*
X167600286Y-124652143D01*
X167628857Y-124623571D01*
X167657429Y-124566429D01*
X167657429Y-124452143D01*
X167628857Y-124395000D01*
X167600286Y-124366429D01*
X167543143Y-124337857D01*
X167428857Y-124337857D01*
X167371714Y-124366429D01*
X167343143Y-124395000D01*
X167314571Y-124452143D01*
X167657429Y-128363572D02*
X167057429Y-128363572D01*
X167057429Y-128135000D01*
X167086000Y-128077858D01*
X167114571Y-128049286D01*
X167171714Y-128020715D01*
X167257429Y-128020715D01*
X167314571Y-128049286D01*
X167343143Y-128077858D01*
X167371714Y-128135000D01*
X167371714Y-128363572D01*
X167057429Y-127649286D02*
X167057429Y-127592143D01*
X167086000Y-127535000D01*
X167114571Y-127506429D01*
X167171714Y-127477858D01*
X167286000Y-127449286D01*
X167428857Y-127449286D01*
X167543143Y-127477858D01*
X167600286Y-127506429D01*
X167628857Y-127535000D01*
X167657429Y-127592143D01*
X167657429Y-127649286D01*
X167628857Y-127706429D01*
X167600286Y-127735000D01*
X167543143Y-127763572D01*
X167428857Y-127792143D01*
X167286000Y-127792143D01*
X167171714Y-127763572D01*
X167114571Y-127735000D01*
X167086000Y-127706429D01*
X167057429Y-127649286D01*
X167657429Y-127163571D02*
X167657429Y-127049286D01*
X167628857Y-126992143D01*
X167600286Y-126963571D01*
X167514571Y-126906429D01*
X167400286Y-126877857D01*
X167171714Y-126877857D01*
X167114571Y-126906429D01*
X167086000Y-126935000D01*
X167057429Y-126992143D01*
X167057429Y-127106429D01*
X167086000Y-127163571D01*
X167114571Y-127192143D01*
X167171714Y-127220714D01*
X167314571Y-127220714D01*
X167371714Y-127192143D01*
X167400286Y-127163571D01*
X167428857Y-127106429D01*
X167428857Y-126992143D01*
X167400286Y-126935000D01*
X167371714Y-126906429D01*
X167314571Y-126877857D01*
X167657429Y-130903572D02*
X167057429Y-130903572D01*
X167057429Y-130675000D01*
X167086000Y-130617858D01*
X167114571Y-130589286D01*
X167171714Y-130560715D01*
X167257429Y-130560715D01*
X167314571Y-130589286D01*
X167343143Y-130617858D01*
X167371714Y-130675000D01*
X167371714Y-130903572D01*
X167657429Y-129989286D02*
X167657429Y-130332143D01*
X167657429Y-130160715D02*
X167057429Y-130160715D01*
X167143143Y-130217858D01*
X167200286Y-130275000D01*
X167228857Y-130332143D01*
X167057429Y-129617857D02*
X167057429Y-129560714D01*
X167086000Y-129503571D01*
X167114571Y-129475000D01*
X167171714Y-129446429D01*
X167286000Y-129417857D01*
X167428857Y-129417857D01*
X167543143Y-129446429D01*
X167600286Y-129475000D01*
X167628857Y-129503571D01*
X167657429Y-129560714D01*
X167657429Y-129617857D01*
X167628857Y-129675000D01*
X167600286Y-129703571D01*
X167543143Y-129732143D01*
X167428857Y-129760714D01*
X167286000Y-129760714D01*
X167171714Y-129732143D01*
X167114571Y-129703571D01*
X167086000Y-129675000D01*
X167057429Y-129617857D01*
D12*
X176254210Y-120777000D02*
G75*
G03X176254210Y-120777000I-359210J0D01*
G01*
X178511260Y-125961140D02*
G75*
G03X178511260Y-125961140I-269300J0D01*
G01*
D13*
X168697020Y-107547495D02*
X168697020Y-106247495D01*
X169254163Y-107547495D02*
X169254163Y-106866543D01*
X169192258Y-106742733D01*
X169068448Y-106680829D01*
X168882734Y-106680829D01*
X168758925Y-106742733D01*
X168697020Y-106804638D01*
X170430353Y-107547495D02*
X170430353Y-106866543D01*
X170368448Y-106742733D01*
X170244638Y-106680829D01*
X169997019Y-106680829D01*
X169873210Y-106742733D01*
X170430353Y-107485590D02*
X170306543Y-107547495D01*
X169997019Y-107547495D01*
X169873210Y-107485590D01*
X169811305Y-107361781D01*
X169811305Y-107237971D01*
X169873210Y-107114162D01*
X169997019Y-107052257D01*
X170306543Y-107052257D01*
X170430353Y-106990352D01*
X171606543Y-107485590D02*
X171482733Y-107547495D01*
X171235114Y-107547495D01*
X171111305Y-107485590D01*
X171049400Y-107423686D01*
X170987495Y-107299876D01*
X170987495Y-106928448D01*
X171049400Y-106804638D01*
X171111305Y-106742733D01*
X171235114Y-106680829D01*
X171482733Y-106680829D01*
X171606543Y-106742733D01*
X172163686Y-107547495D02*
X172163686Y-106247495D01*
X172287495Y-107052257D02*
X172658924Y-107547495D01*
X172658924Y-106680829D02*
X172163686Y-107176067D01*
X173773210Y-107547495D02*
X173773210Y-106866543D01*
X173711305Y-106742733D01*
X173587495Y-106680829D01*
X173339876Y-106680829D01*
X173216067Y-106742733D01*
X173773210Y-107485590D02*
X173649400Y-107547495D01*
X173339876Y-107547495D01*
X173216067Y-107485590D01*
X173154162Y-107361781D01*
X173154162Y-107237971D01*
X173216067Y-107114162D01*
X173339876Y-107052257D01*
X173649400Y-107052257D01*
X173773210Y-106990352D01*
X174825590Y-106866543D02*
X175011304Y-106928448D01*
X175073209Y-106990352D01*
X175135114Y-107114162D01*
X175135114Y-107299876D01*
X175073209Y-107423686D01*
X175011304Y-107485590D01*
X174887495Y-107547495D01*
X174392257Y-107547495D01*
X174392257Y-106247495D01*
X174825590Y-106247495D01*
X174949400Y-106309400D01*
X175011304Y-106371305D01*
X175073209Y-106495114D01*
X175073209Y-106618924D01*
X175011304Y-106742733D01*
X174949400Y-106804638D01*
X174825590Y-106866543D01*
X174392257Y-106866543D01*
X176311304Y-107547495D02*
X175692257Y-107547495D01*
X175692257Y-106247495D01*
X176744638Y-106866543D02*
X177177971Y-106866543D01*
X177363685Y-107547495D02*
X176744638Y-107547495D01*
X176744638Y-106247495D01*
X177363685Y-106247495D01*
D11*
X178959000Y-131970429D02*
X178959000Y-131370429D01*
X179101857Y-131370429D01*
X179187572Y-131399000D01*
X179244714Y-131456143D01*
X179273286Y-131513286D01*
X179301857Y-131627571D01*
X179301857Y-131713286D01*
X179273286Y-131827571D01*
X179244714Y-131884714D01*
X179187572Y-131941857D01*
X179101857Y-131970429D01*
X178959000Y-131970429D01*
X179901857Y-131913286D02*
X179873286Y-131941857D01*
X179787572Y-131970429D01*
X179730429Y-131970429D01*
X179644714Y-131941857D01*
X179587572Y-131884714D01*
X179559000Y-131827571D01*
X179530429Y-131713286D01*
X179530429Y-131627571D01*
X179559000Y-131513286D01*
X179587572Y-131456143D01*
X179644714Y-131399000D01*
X179730429Y-131370429D01*
X179787572Y-131370429D01*
X179873286Y-131399000D01*
X179901857Y-131427571D01*
X180444714Y-131970429D02*
X180159000Y-131970429D01*
X180159000Y-131370429D01*
X180644714Y-131970429D02*
X180644714Y-131370429D01*
X180987571Y-131970429D02*
X180730428Y-131627571D01*
X180987571Y-131370429D02*
X180644714Y-131713286D01*
X176804715Y-131970429D02*
X176804715Y-131370429D01*
X176947572Y-131370429D01*
X177033287Y-131399000D01*
X177090429Y-131456143D01*
X177119001Y-131513286D01*
X177147572Y-131627571D01*
X177147572Y-131713286D01*
X177119001Y-131827571D01*
X177090429Y-131884714D01*
X177033287Y-131941857D01*
X176947572Y-131970429D01*
X176804715Y-131970429D01*
X177404715Y-131970429D02*
X177404715Y-131370429D01*
X177804715Y-131370429D02*
X177919001Y-131370429D01*
X177976143Y-131399000D01*
X178033286Y-131456143D01*
X178061858Y-131570429D01*
X178061858Y-131770429D01*
X178033286Y-131884714D01*
X177976143Y-131941857D01*
X177919001Y-131970429D01*
X177804715Y-131970429D01*
X177747572Y-131941857D01*
X177690429Y-131884714D01*
X177661858Y-131770429D01*
X177661858Y-131570429D01*
X177690429Y-131456143D01*
X177747572Y-131399000D01*
X177804715Y-131370429D01*
X174294858Y-131399000D02*
X174237715Y-131370429D01*
X174152001Y-131370429D01*
X174066286Y-131399000D01*
X174009144Y-131456143D01*
X173980572Y-131513286D01*
X173952001Y-131627571D01*
X173952001Y-131713286D01*
X173980572Y-131827571D01*
X174009144Y-131884714D01*
X174066286Y-131941857D01*
X174152001Y-131970429D01*
X174209144Y-131970429D01*
X174294858Y-131941857D01*
X174323429Y-131913286D01*
X174323429Y-131713286D01*
X174209144Y-131713286D01*
X174580572Y-131970429D02*
X174580572Y-131370429D01*
X174923429Y-131970429D01*
X174923429Y-131370429D01*
X175209143Y-131970429D02*
X175209143Y-131370429D01*
X175352000Y-131370429D01*
X175437715Y-131399000D01*
X175494857Y-131456143D01*
X175523429Y-131513286D01*
X175552000Y-131627571D01*
X175552000Y-131713286D01*
X175523429Y-131827571D01*
X175494857Y-131884714D01*
X175437715Y-131941857D01*
X175352000Y-131970429D01*
X175209143Y-131970429D01*
X171412000Y-131370429D02*
X171612000Y-131970429D01*
X171812000Y-131370429D01*
X172012000Y-131970429D02*
X172012000Y-131370429D01*
X172154857Y-131370429D01*
X172240572Y-131399000D01*
X172297714Y-131456143D01*
X172326286Y-131513286D01*
X172354857Y-131627571D01*
X172354857Y-131713286D01*
X172326286Y-131827571D01*
X172297714Y-131884714D01*
X172240572Y-131941857D01*
X172154857Y-131970429D01*
X172012000Y-131970429D01*
X172612000Y-131970429D02*
X172612000Y-131370429D01*
X172754857Y-131370429D01*
X172840572Y-131399000D01*
X172897714Y-131456143D01*
X172926286Y-131513286D01*
X172954857Y-131627571D01*
X172954857Y-131713286D01*
X172926286Y-131827571D01*
X172897714Y-131884714D01*
X172840572Y-131941857D01*
X172754857Y-131970429D01*
X172612000Y-131970429D01*
D14*
X182118190Y-131514905D02*
X182384857Y-132314905D01*
X182651524Y-131514905D01*
X183489619Y-131591095D02*
X183527714Y-131553000D01*
X183603905Y-131514905D01*
X183794381Y-131514905D01*
X183870571Y-131553000D01*
X183908667Y-131591095D01*
X183946762Y-131667286D01*
X183946762Y-131743476D01*
X183908667Y-131857762D01*
X183451524Y-132314905D01*
X183946762Y-132314905D01*
X184289619Y-132238714D02*
X184327714Y-132276810D01*
X184289619Y-132314905D01*
X184251524Y-132276810D01*
X184289619Y-132238714D01*
X184289619Y-132314905D01*
X184632476Y-131591095D02*
X184670571Y-131553000D01*
X184746762Y-131514905D01*
X184937238Y-131514905D01*
X185013428Y-131553000D01*
X185051524Y-131591095D01*
X185089619Y-131667286D01*
X185089619Y-131743476D01*
X185051524Y-131857762D01*
X184594381Y-132314905D01*
X185089619Y-132314905D01*
D15*
X180900000Y-126280000D02*
X179900000Y-126280000D01*
X179900000Y-124920000D02*
X180900000Y-124920000D01*
D14*
X173125000Y-127175000D02*
X173125000Y-123225000D01*
X170825000Y-127175000D02*
X173125000Y-127175000D01*
X170825000Y-123225000D02*
X173125000Y-123225000D01*
X170825000Y-123225000D02*
X170825000Y-127175000D01*
D15*
X169350000Y-130800000D02*
X168650000Y-130800000D01*
X168650000Y-129600000D02*
X169350000Y-129600000D01*
X168650000Y-131200000D02*
X169350000Y-131200000D01*
X169350000Y-132400000D02*
X168650000Y-132400000D01*
X172250000Y-121930000D02*
X171750000Y-121930000D01*
X171750000Y-122870000D02*
X172250000Y-122870000D01*
X171750000Y-128470000D02*
X172250000Y-128470000D01*
X172250000Y-127530000D02*
X171750000Y-127530000D01*
X176492000Y-122551000D02*
X176492000Y-122051000D01*
X175552000Y-122051000D02*
X175552000Y-122551000D01*
X175352000Y-121824000D02*
X175352000Y-122524000D01*
X174152000Y-122524000D02*
X174152000Y-121824000D01*
X182549000Y-119892000D02*
X182549000Y-120392000D01*
X183489000Y-120392000D02*
X183489000Y-119892000D01*
X172450000Y-117440000D02*
X171750000Y-117440000D01*
X171750000Y-116240000D02*
X172450000Y-116240000D01*
X173405000Y-114304000D02*
X173405000Y-114804000D01*
X174345000Y-114804000D02*
X174345000Y-114304000D01*
X175520000Y-111050000D02*
X175520000Y-110550000D01*
X174580000Y-110550000D02*
X174580000Y-111050000D01*
X176720000Y-111050000D02*
X176720000Y-110550000D01*
X175780000Y-110550000D02*
X175780000Y-111050000D01*
D16*
X177834000Y-124250000D02*
X174434000Y-124250000D01*
X177834000Y-125850000D02*
X177834000Y-124250000D01*
X174434000Y-124250000D02*
X174434000Y-125850000D01*
X174434000Y-125850000D02*
X177834000Y-125850000D01*
D15*
X172335000Y-117767000D02*
X171835000Y-117767000D01*
X171835000Y-118707000D02*
X172335000Y-118707000D01*
X172500000Y-130880000D02*
X171500000Y-130880000D01*
X171500000Y-129520000D02*
X172500000Y-129520000D01*
X180900000Y-127880000D02*
X179900000Y-127880000D01*
X179900000Y-126520000D02*
X180900000Y-126520000D01*
X180900000Y-124680000D02*
X179900000Y-124680000D01*
X179900000Y-123320000D02*
X180900000Y-123320000D01*
D14*
X168724000Y-109820000D02*
X173042000Y-109820000D01*
X173042000Y-109820000D02*
X173042000Y-113376000D01*
X173042000Y-113376000D02*
X168724000Y-113376000D01*
X168724000Y-113376000D02*
X168724000Y-109820000D01*
D16*
X179151000Y-110332000D02*
X179151000Y-109232000D01*
X178251000Y-110332000D02*
X178251000Y-109232000D01*
X177601000Y-112048000D02*
X178701000Y-112048000D01*
X177601000Y-111148000D02*
X178701000Y-111148000D01*
D17*
G36*
X184220319Y-106963634D02*
X184393568Y-107141434D01*
X184566816Y-107319234D01*
X184740679Y-107319234D01*
X184748109Y-107298314D01*
X184758105Y-107278707D01*
X184773606Y-107258145D01*
X184792382Y-107239111D01*
X184812202Y-107224093D01*
X184817430Y-107221056D01*
X184850109Y-107207884D01*
X184883379Y-107202569D01*
X184916161Y-107204669D01*
X184947377Y-107213742D01*
X184975946Y-107229346D01*
X185000790Y-107251037D01*
X185020829Y-107278374D01*
X185034747Y-107310155D01*
X185040698Y-107337185D01*
X185042657Y-107365714D01*
X185040426Y-107391870D01*
X185039199Y-107397550D01*
X185027158Y-107429796D01*
X185008701Y-107458234D01*
X184984984Y-107482031D01*
X184957164Y-107500356D01*
X184926398Y-107512375D01*
X184896857Y-107516804D01*
X184896857Y-107437253D01*
X184918308Y-107431804D01*
X184937892Y-107420072D01*
X184954199Y-107402139D01*
X184962734Y-107386353D01*
X184966158Y-107369694D01*
X184965042Y-107349605D01*
X184959865Y-107329475D01*
X184952668Y-107314923D01*
X184936718Y-107297618D01*
X184917169Y-107286726D01*
X184895637Y-107282076D01*
X184873736Y-107283498D01*
X184853083Y-107290820D01*
X184835292Y-107303873D01*
X184821980Y-107322485D01*
X184819136Y-107329034D01*
X184815685Y-107344496D01*
X184814836Y-107363077D01*
X184816505Y-107381026D01*
X184820605Y-107394586D01*
X184835414Y-107415086D01*
X184854000Y-107428976D01*
X184874951Y-107436338D01*
X184896857Y-107437253D01*
X184896857Y-107516804D01*
X184893841Y-107517257D01*
X184874054Y-107516429D01*
X184844344Y-107509442D01*
X184815777Y-107496231D01*
X184789881Y-107478037D01*
X184768181Y-107456100D01*
X184752205Y-107431659D01*
X184744614Y-107411309D01*
X184741749Y-107399667D01*
X184536458Y-107399667D01*
X184361221Y-107219835D01*
X184185983Y-107040003D01*
X184108725Y-107039918D01*
X184031467Y-107039834D01*
X184031467Y-106963634D01*
X184220319Y-106963634D01*
X184220319Y-106963634D01*
G37*
X184220319Y-106963634D02*
X184393568Y-107141434D01*
X184566816Y-107319234D01*
X184740679Y-107319234D01*
X184748109Y-107298314D01*
X184758105Y-107278707D01*
X184773606Y-107258145D01*
X184792382Y-107239111D01*
X184812202Y-107224093D01*
X184817430Y-107221056D01*
X184850109Y-107207884D01*
X184883379Y-107202569D01*
X184916161Y-107204669D01*
X184947377Y-107213742D01*
X184975946Y-107229346D01*
X185000790Y-107251037D01*
X185020829Y-107278374D01*
X185034747Y-107310155D01*
X185040698Y-107337185D01*
X185042657Y-107365714D01*
X185040426Y-107391870D01*
X185039199Y-107397550D01*
X185027158Y-107429796D01*
X185008701Y-107458234D01*
X184984984Y-107482031D01*
X184957164Y-107500356D01*
X184926398Y-107512375D01*
X184896857Y-107516804D01*
X184896857Y-107437253D01*
X184918308Y-107431804D01*
X184937892Y-107420072D01*
X184954199Y-107402139D01*
X184962734Y-107386353D01*
X184966158Y-107369694D01*
X184965042Y-107349605D01*
X184959865Y-107329475D01*
X184952668Y-107314923D01*
X184936718Y-107297618D01*
X184917169Y-107286726D01*
X184895637Y-107282076D01*
X184873736Y-107283498D01*
X184853083Y-107290820D01*
X184835292Y-107303873D01*
X184821980Y-107322485D01*
X184819136Y-107329034D01*
X184815685Y-107344496D01*
X184814836Y-107363077D01*
X184816505Y-107381026D01*
X184820605Y-107394586D01*
X184835414Y-107415086D01*
X184854000Y-107428976D01*
X184874951Y-107436338D01*
X184896857Y-107437253D01*
X184896857Y-107516804D01*
X184893841Y-107517257D01*
X184874054Y-107516429D01*
X184844344Y-107509442D01*
X184815777Y-107496231D01*
X184789881Y-107478037D01*
X184768181Y-107456100D01*
X184752205Y-107431659D01*
X184744614Y-107411309D01*
X184741749Y-107399667D01*
X184536458Y-107399667D01*
X184361221Y-107219835D01*
X184185983Y-107040003D01*
X184108725Y-107039918D01*
X184031467Y-107039834D01*
X184031467Y-106963634D01*
X184220319Y-106963634D01*
G36*
X184385083Y-106616500D02*
X184448097Y-106616493D01*
X184503181Y-106616462D01*
X184550869Y-106616398D01*
X184591697Y-106616288D01*
X184626202Y-106616122D01*
X184654917Y-106615889D01*
X184678380Y-106615577D01*
X184697125Y-106615175D01*
X184711689Y-106614672D01*
X184722606Y-106614058D01*
X184730413Y-106613320D01*
X184735645Y-106612448D01*
X184738838Y-106611431D01*
X184740527Y-106610257D01*
X184741193Y-106609092D01*
X184756843Y-106574681D01*
X184778582Y-106545887D01*
X184806038Y-106523148D01*
X184822175Y-106513998D01*
X184836914Y-106507151D01*
X184849049Y-106503000D01*
X184861743Y-106500886D01*
X184878156Y-106500145D01*
X184888717Y-106500084D01*
X184908170Y-106500386D01*
X184922326Y-106501734D01*
X184934344Y-106504786D01*
X184947382Y-106510203D01*
X184955205Y-106513972D01*
X184984301Y-106532482D01*
X185008507Y-106556409D01*
X185026383Y-106584220D01*
X185030837Y-106594480D01*
X185037629Y-106618881D01*
X185041230Y-106646298D01*
X185041411Y-106673273D01*
X185037941Y-106696344D01*
X185037696Y-106697233D01*
X185025171Y-106727575D01*
X185006090Y-106755802D01*
X184982134Y-106779927D01*
X184954984Y-106797960D01*
X184950844Y-106799969D01*
X184939321Y-106804501D01*
X184927003Y-106807283D01*
X184911382Y-106808683D01*
X184892510Y-106809022D01*
X184892510Y-106733536D01*
X184914723Y-106728800D01*
X184934876Y-106717332D01*
X184951486Y-106699594D01*
X184959032Y-106686350D01*
X184965377Y-106668427D01*
X184966371Y-106651436D01*
X184962614Y-106632507D01*
X184952501Y-106610095D01*
X184937037Y-106593028D01*
X184917741Y-106581704D01*
X184896135Y-106576524D01*
X184873738Y-106577886D01*
X184852072Y-106586190D01*
X184835302Y-106599069D01*
X184820407Y-106619380D01*
X184812870Y-106642007D01*
X184812530Y-106665378D01*
X184819224Y-106687920D01*
X184832791Y-106708059D01*
X184847852Y-106720962D01*
X184869725Y-106731078D01*
X184892510Y-106733536D01*
X184892510Y-106809022D01*
X184889949Y-106809069D01*
X184888717Y-106809068D01*
X184867726Y-106808743D01*
X184852623Y-106807544D01*
X184840842Y-106805050D01*
X184829815Y-106800843D01*
X184825217Y-106798672D01*
X184803419Y-106785070D01*
X184782335Y-106766727D01*
X184764137Y-106745914D01*
X184750996Y-106724900D01*
X184748045Y-106718054D01*
X184739377Y-106694817D01*
X184385422Y-106693735D01*
X184031467Y-106692652D01*
X184031467Y-106616500D01*
X184385083Y-106616500D01*
X184385083Y-106616500D01*
G37*
X184385083Y-106616500D02*
X184448097Y-106616493D01*
X184503181Y-106616462D01*
X184550869Y-106616398D01*
X184591697Y-106616288D01*
X184626202Y-106616122D01*
X184654917Y-106615889D01*
X184678380Y-106615577D01*
X184697125Y-106615175D01*
X184711689Y-106614672D01*
X184722606Y-106614058D01*
X184730413Y-106613320D01*
X184735645Y-106612448D01*
X184738838Y-106611431D01*
X184740527Y-106610257D01*
X184741193Y-106609092D01*
X184756843Y-106574681D01*
X184778582Y-106545887D01*
X184806038Y-106523148D01*
X184822175Y-106513998D01*
X184836914Y-106507151D01*
X184849049Y-106503000D01*
X184861743Y-106500886D01*
X184878156Y-106500145D01*
X184888717Y-106500084D01*
X184908170Y-106500386D01*
X184922326Y-106501734D01*
X184934344Y-106504786D01*
X184947382Y-106510203D01*
X184955205Y-106513972D01*
X184984301Y-106532482D01*
X185008507Y-106556409D01*
X185026383Y-106584220D01*
X185030837Y-106594480D01*
X185037629Y-106618881D01*
X185041230Y-106646298D01*
X185041411Y-106673273D01*
X185037941Y-106696344D01*
X185037696Y-106697233D01*
X185025171Y-106727575D01*
X185006090Y-106755802D01*
X184982134Y-106779927D01*
X184954984Y-106797960D01*
X184950844Y-106799969D01*
X184939321Y-106804501D01*
X184927003Y-106807283D01*
X184911382Y-106808683D01*
X184892510Y-106809022D01*
X184892510Y-106733536D01*
X184914723Y-106728800D01*
X184934876Y-106717332D01*
X184951486Y-106699594D01*
X184959032Y-106686350D01*
X184965377Y-106668427D01*
X184966371Y-106651436D01*
X184962614Y-106632507D01*
X184952501Y-106610095D01*
X184937037Y-106593028D01*
X184917741Y-106581704D01*
X184896135Y-106576524D01*
X184873738Y-106577886D01*
X184852072Y-106586190D01*
X184835302Y-106599069D01*
X184820407Y-106619380D01*
X184812870Y-106642007D01*
X184812530Y-106665378D01*
X184819224Y-106687920D01*
X184832791Y-106708059D01*
X184847852Y-106720962D01*
X184869725Y-106731078D01*
X184892510Y-106733536D01*
X184892510Y-106809022D01*
X184889949Y-106809069D01*
X184888717Y-106809068D01*
X184867726Y-106808743D01*
X184852623Y-106807544D01*
X184840842Y-106805050D01*
X184829815Y-106800843D01*
X184825217Y-106798672D01*
X184803419Y-106785070D01*
X184782335Y-106766727D01*
X184764137Y-106745914D01*
X184750996Y-106724900D01*
X184748045Y-106718054D01*
X184739377Y-106694817D01*
X184385422Y-106693735D01*
X184031467Y-106692652D01*
X184031467Y-106616500D01*
X184385083Y-106616500D01*
G36*
X184182950Y-106269367D02*
X184359674Y-106089451D01*
X184536398Y-105909534D01*
X184737635Y-105909534D01*
X184750414Y-105882226D01*
X184768498Y-105852446D01*
X184792241Y-105827029D01*
X184819928Y-105807730D01*
X184826501Y-105804421D01*
X184840106Y-105798671D01*
X184852690Y-105795243D01*
X184867335Y-105793579D01*
X184887125Y-105793119D01*
X184888806Y-105793117D01*
X184908266Y-105793424D01*
X184922431Y-105794785D01*
X184934460Y-105797856D01*
X184947514Y-105803295D01*
X184954941Y-105806875D01*
X184986090Y-105826554D01*
X185010688Y-105851470D01*
X185028416Y-105881129D01*
X185038952Y-105915035D01*
X185041886Y-105941284D01*
X185041752Y-105963230D01*
X185039843Y-105982156D01*
X185037544Y-105992084D01*
X185021856Y-106027347D01*
X185000217Y-106056764D01*
X184972865Y-106080055D01*
X184954362Y-106090701D01*
X184942327Y-106096132D01*
X184931343Y-106099530D01*
X184918771Y-106101354D01*
X184901970Y-106102066D01*
X184888717Y-106102151D01*
X184883171Y-106102073D01*
X184883171Y-106027027D01*
X184906582Y-106025589D01*
X184928585Y-106015903D01*
X184943133Y-106003989D01*
X184958449Y-105983240D01*
X184965975Y-105960041D01*
X184965471Y-105935579D01*
X184960481Y-105918981D01*
X184947193Y-105896333D01*
X184929292Y-105880739D01*
X184906970Y-105872332D01*
X184891001Y-105870786D01*
X184865829Y-105874205D01*
X184844620Y-105884282D01*
X184828425Y-105900124D01*
X184818293Y-105920841D01*
X184815596Y-105934874D01*
X184815840Y-105963456D01*
X184822677Y-105986831D01*
X184836247Y-106005278D01*
X184856691Y-106019072D01*
X184858908Y-106020110D01*
X184883171Y-106027027D01*
X184883171Y-106102073D01*
X184867774Y-106101854D01*
X184852724Y-106100686D01*
X184841002Y-106098227D01*
X184830046Y-106094059D01*
X184825217Y-106091777D01*
X184798267Y-106074302D01*
X184774053Y-106050400D01*
X184754256Y-106022046D01*
X184741193Y-105993142D01*
X184739677Y-105990604D01*
X184736337Y-105988718D01*
X184730060Y-105987388D01*
X184719733Y-105986520D01*
X184704242Y-105986018D01*
X184682475Y-105985788D01*
X184654397Y-105985734D01*
X184570094Y-105985734D01*
X184394972Y-106165454D01*
X184219850Y-106345175D01*
X184125658Y-106345371D01*
X184031467Y-106345567D01*
X184031467Y-106269367D01*
X184182950Y-106269367D01*
X184182950Y-106269367D01*
G37*
X184182950Y-106269367D02*
X184359674Y-106089451D01*
X184536398Y-105909534D01*
X184737635Y-105909534D01*
X184750414Y-105882226D01*
X184768498Y-105852446D01*
X184792241Y-105827029D01*
X184819928Y-105807730D01*
X184826501Y-105804421D01*
X184840106Y-105798671D01*
X184852690Y-105795243D01*
X184867335Y-105793579D01*
X184887125Y-105793119D01*
X184888806Y-105793117D01*
X184908266Y-105793424D01*
X184922431Y-105794785D01*
X184934460Y-105797856D01*
X184947514Y-105803295D01*
X184954941Y-105806875D01*
X184986090Y-105826554D01*
X185010688Y-105851470D01*
X185028416Y-105881129D01*
X185038952Y-105915035D01*
X185041886Y-105941284D01*
X185041752Y-105963230D01*
X185039843Y-105982156D01*
X185037544Y-105992084D01*
X185021856Y-106027347D01*
X185000217Y-106056764D01*
X184972865Y-106080055D01*
X184954362Y-106090701D01*
X184942327Y-106096132D01*
X184931343Y-106099530D01*
X184918771Y-106101354D01*
X184901970Y-106102066D01*
X184888717Y-106102151D01*
X184883171Y-106102073D01*
X184883171Y-106027027D01*
X184906582Y-106025589D01*
X184928585Y-106015903D01*
X184943133Y-106003989D01*
X184958449Y-105983240D01*
X184965975Y-105960041D01*
X184965471Y-105935579D01*
X184960481Y-105918981D01*
X184947193Y-105896333D01*
X184929292Y-105880739D01*
X184906970Y-105872332D01*
X184891001Y-105870786D01*
X184865829Y-105874205D01*
X184844620Y-105884282D01*
X184828425Y-105900124D01*
X184818293Y-105920841D01*
X184815596Y-105934874D01*
X184815840Y-105963456D01*
X184822677Y-105986831D01*
X184836247Y-106005278D01*
X184856691Y-106019072D01*
X184858908Y-106020110D01*
X184883171Y-106027027D01*
X184883171Y-106102073D01*
X184867774Y-106101854D01*
X184852724Y-106100686D01*
X184841002Y-106098227D01*
X184830046Y-106094059D01*
X184825217Y-106091777D01*
X184798267Y-106074302D01*
X184774053Y-106050400D01*
X184754256Y-106022046D01*
X184741193Y-105993142D01*
X184739677Y-105990604D01*
X184736337Y-105988718D01*
X184730060Y-105987388D01*
X184719733Y-105986520D01*
X184704242Y-105986018D01*
X184682475Y-105985788D01*
X184654397Y-105985734D01*
X184570094Y-105985734D01*
X184394972Y-106165454D01*
X184219850Y-106345175D01*
X184125658Y-106345371D01*
X184031467Y-106345567D01*
X184031467Y-106269367D01*
X184182950Y-106269367D01*
G36*
X184297694Y-103225154D02*
X184302580Y-103182318D01*
X184308828Y-103144772D01*
X184317072Y-103109374D01*
X184327949Y-103072978D01*
X184329212Y-103069143D01*
X184342617Y-103028750D01*
X184398708Y-103027569D01*
X184419387Y-103027258D01*
X184436629Y-103027236D01*
X184448879Y-103027486D01*
X184454579Y-103027994D01*
X184454800Y-103028145D01*
X184452623Y-103032267D01*
X184446888Y-103041481D01*
X184438791Y-103053873D01*
X184437962Y-103055117D01*
X184412598Y-103100446D01*
X184393466Y-103150727D01*
X184380921Y-103204816D01*
X184375539Y-103256165D01*
X184375303Y-103298966D01*
X184379139Y-103335387D01*
X184387341Y-103366624D01*
X184400206Y-103393875D01*
X184414504Y-103414163D01*
X184434306Y-103432191D01*
X184458110Y-103444162D01*
X184484162Y-103449944D01*
X184510706Y-103449402D01*
X184535988Y-103442403D01*
X184558255Y-103428814D01*
X184562079Y-103425401D01*
X184570863Y-103416011D01*
X184578483Y-103405160D01*
X184585269Y-103391845D01*
X184591555Y-103375061D01*
X184597669Y-103353806D01*
X184603945Y-103327075D01*
X184610713Y-103293865D01*
X184617545Y-103257350D01*
X184626414Y-103211426D01*
X184635089Y-103172877D01*
X184643970Y-103140635D01*
X184653458Y-103113630D01*
X184663951Y-103090793D01*
X184675850Y-103071053D01*
X184689553Y-103053340D01*
X184696709Y-103045436D01*
X184716806Y-103027475D01*
X184739225Y-103014465D01*
X184766146Y-103005350D01*
X184788805Y-103000724D01*
X184827609Y-102998364D01*
X184864973Y-103003948D01*
X184900275Y-103016991D01*
X184932894Y-103037011D01*
X184962207Y-103063523D01*
X184987592Y-103096045D01*
X185008428Y-103134091D01*
X185024090Y-103177179D01*
X185026287Y-103185334D01*
X185031025Y-103209897D01*
X185034516Y-103240266D01*
X185036637Y-103273853D01*
X185037260Y-103308073D01*
X185036261Y-103340339D01*
X185034693Y-103358950D01*
X185027180Y-103406980D01*
X185015452Y-103457422D01*
X185000526Y-103506030D01*
X184997479Y-103514525D01*
X184982299Y-103555800D01*
X184923513Y-103555800D01*
X184902454Y-103555587D01*
X184884941Y-103555000D01*
X184872446Y-103554120D01*
X184866443Y-103553031D01*
X184866143Y-103552625D01*
X184868977Y-103547877D01*
X184875354Y-103537879D01*
X184884122Y-103524425D01*
X184888405Y-103517928D01*
X184917085Y-103466984D01*
X184938453Y-103412326D01*
X184952147Y-103355077D01*
X184957555Y-103303585D01*
X184957111Y-103256819D01*
X184951662Y-103215428D01*
X184941413Y-103179747D01*
X184926570Y-103150114D01*
X184907338Y-103126865D01*
X184883923Y-103110338D01*
X184856529Y-103100869D01*
X184832716Y-103098600D01*
X184803594Y-103101357D01*
X184780078Y-103110004D01*
X184761192Y-103125108D01*
X184745959Y-103147234D01*
X184744737Y-103149581D01*
X184738492Y-103163009D01*
X184732935Y-103177837D01*
X184727729Y-103195385D01*
X184722531Y-103216971D01*
X184717002Y-103243917D01*
X184710803Y-103277541D01*
X184708766Y-103289100D01*
X184702327Y-103325009D01*
X184696691Y-103353996D01*
X184691473Y-103377521D01*
X184686292Y-103397047D01*
X184680764Y-103414034D01*
X184674507Y-103429943D01*
X184668159Y-103444071D01*
X184647833Y-103478977D01*
X184622861Y-103506833D01*
X184593027Y-103527801D01*
X184558120Y-103542045D01*
X184532042Y-103547867D01*
X184492876Y-103550138D01*
X184455142Y-103544441D01*
X184419857Y-103531121D01*
X184388042Y-103510522D01*
X184369323Y-103492977D01*
X184341575Y-103456809D01*
X184320241Y-103415297D01*
X184305392Y-103368707D01*
X184297099Y-103317303D01*
X184295432Y-103261352D01*
X184297694Y-103225154D01*
X184297694Y-103225154D01*
G37*
X184297694Y-103225154D02*
X184302580Y-103182318D01*
X184308828Y-103144772D01*
X184317072Y-103109374D01*
X184327949Y-103072978D01*
X184329212Y-103069143D01*
X184342617Y-103028750D01*
X184398708Y-103027569D01*
X184419387Y-103027258D01*
X184436629Y-103027236D01*
X184448879Y-103027486D01*
X184454579Y-103027994D01*
X184454800Y-103028145D01*
X184452623Y-103032267D01*
X184446888Y-103041481D01*
X184438791Y-103053873D01*
X184437962Y-103055117D01*
X184412598Y-103100446D01*
X184393466Y-103150727D01*
X184380921Y-103204816D01*
X184375539Y-103256165D01*
X184375303Y-103298966D01*
X184379139Y-103335387D01*
X184387341Y-103366624D01*
X184400206Y-103393875D01*
X184414504Y-103414163D01*
X184434306Y-103432191D01*
X184458110Y-103444162D01*
X184484162Y-103449944D01*
X184510706Y-103449402D01*
X184535988Y-103442403D01*
X184558255Y-103428814D01*
X184562079Y-103425401D01*
X184570863Y-103416011D01*
X184578483Y-103405160D01*
X184585269Y-103391845D01*
X184591555Y-103375061D01*
X184597669Y-103353806D01*
X184603945Y-103327075D01*
X184610713Y-103293865D01*
X184617545Y-103257350D01*
X184626414Y-103211426D01*
X184635089Y-103172877D01*
X184643970Y-103140635D01*
X184653458Y-103113630D01*
X184663951Y-103090793D01*
X184675850Y-103071053D01*
X184689553Y-103053340D01*
X184696709Y-103045436D01*
X184716806Y-103027475D01*
X184739225Y-103014465D01*
X184766146Y-103005350D01*
X184788805Y-103000724D01*
X184827609Y-102998364D01*
X184864973Y-103003948D01*
X184900275Y-103016991D01*
X184932894Y-103037011D01*
X184962207Y-103063523D01*
X184987592Y-103096045D01*
X185008428Y-103134091D01*
X185024090Y-103177179D01*
X185026287Y-103185334D01*
X185031025Y-103209897D01*
X185034516Y-103240266D01*
X185036637Y-103273853D01*
X185037260Y-103308073D01*
X185036261Y-103340339D01*
X185034693Y-103358950D01*
X185027180Y-103406980D01*
X185015452Y-103457422D01*
X185000526Y-103506030D01*
X184997479Y-103514525D01*
X184982299Y-103555800D01*
X184923513Y-103555800D01*
X184902454Y-103555587D01*
X184884941Y-103555000D01*
X184872446Y-103554120D01*
X184866443Y-103553031D01*
X184866143Y-103552625D01*
X184868977Y-103547877D01*
X184875354Y-103537879D01*
X184884122Y-103524425D01*
X184888405Y-103517928D01*
X184917085Y-103466984D01*
X184938453Y-103412326D01*
X184952147Y-103355077D01*
X184957555Y-103303585D01*
X184957111Y-103256819D01*
X184951662Y-103215428D01*
X184941413Y-103179747D01*
X184926570Y-103150114D01*
X184907338Y-103126865D01*
X184883923Y-103110338D01*
X184856529Y-103100869D01*
X184832716Y-103098600D01*
X184803594Y-103101357D01*
X184780078Y-103110004D01*
X184761192Y-103125108D01*
X184745959Y-103147234D01*
X184744737Y-103149581D01*
X184738492Y-103163009D01*
X184732935Y-103177837D01*
X184727729Y-103195385D01*
X184722531Y-103216971D01*
X184717002Y-103243917D01*
X184710803Y-103277541D01*
X184708766Y-103289100D01*
X184702327Y-103325009D01*
X184696691Y-103353996D01*
X184691473Y-103377521D01*
X184686292Y-103397047D01*
X184680764Y-103414034D01*
X184674507Y-103429943D01*
X184668159Y-103444071D01*
X184647833Y-103478977D01*
X184622861Y-103506833D01*
X184593027Y-103527801D01*
X184558120Y-103542045D01*
X184532042Y-103547867D01*
X184492876Y-103550138D01*
X184455142Y-103544441D01*
X184419857Y-103531121D01*
X184388042Y-103510522D01*
X184369323Y-103492977D01*
X184341575Y-103456809D01*
X184320241Y-103415297D01*
X184305392Y-103368707D01*
X184297099Y-103317303D01*
X184295432Y-103261352D01*
X184297694Y-103225154D01*
G36*
X184937400Y-105371901D02*
X184937400Y-105012067D01*
X185022066Y-105012067D01*
X185022066Y-105469267D01*
X184310867Y-105469267D01*
X184310867Y-105371901D01*
X184937400Y-105371901D01*
X184937400Y-105371901D01*
G37*
X184937400Y-105371901D02*
X184937400Y-105012067D01*
X185022066Y-105012067D01*
X185022066Y-105469267D01*
X184310867Y-105469267D01*
X184310867Y-105371901D01*
X184937400Y-105371901D01*
G36*
X184370133Y-104603551D02*
X184370133Y-104533700D01*
X184516183Y-104533466D01*
X184939517Y-104254362D01*
X184980792Y-104254331D01*
X185022066Y-104254300D01*
X185022066Y-104969734D01*
X184945941Y-104969734D01*
X184945941Y-104948567D01*
X185005133Y-104948567D01*
X185005133Y-104275467D01*
X184943475Y-104275467D01*
X184734200Y-104413050D01*
X184524924Y-104550634D01*
X184391300Y-104550634D01*
X184391300Y-104669167D01*
X184521181Y-104669167D01*
X184945941Y-104948567D01*
X184945941Y-104969734D01*
X184942533Y-104969734D01*
X184517783Y-104690334D01*
X184452425Y-104690334D01*
X184424753Y-104690385D01*
X184404081Y-104689822D01*
X184389394Y-104687574D01*
X184379673Y-104682568D01*
X184373902Y-104673731D01*
X184371064Y-104659991D01*
X184370141Y-104640275D01*
X184370117Y-104613510D01*
X184370133Y-104603551D01*
X184370133Y-104603551D01*
G37*
X184370133Y-104603551D02*
X184370133Y-104533700D01*
X184516183Y-104533466D01*
X184939517Y-104254362D01*
X184980792Y-104254331D01*
X185022066Y-104254300D01*
X185022066Y-104969734D01*
X184945941Y-104969734D01*
X184945941Y-104948567D01*
X185005133Y-104948567D01*
X185005133Y-104275467D01*
X184943475Y-104275467D01*
X184734200Y-104413050D01*
X184524924Y-104550634D01*
X184391300Y-104550634D01*
X184391300Y-104669167D01*
X184521181Y-104669167D01*
X184945941Y-104948567D01*
X184945941Y-104969734D01*
X184942533Y-104969734D01*
X184517783Y-104690334D01*
X184452425Y-104690334D01*
X184424753Y-104690385D01*
X184404081Y-104689822D01*
X184389394Y-104687574D01*
X184379673Y-104682568D01*
X184373902Y-104673731D01*
X184371064Y-104659991D01*
X184370141Y-104640275D01*
X184370117Y-104613510D01*
X184370133Y-104603551D01*
G36*
X184310934Y-104081792D02*
X184311157Y-104029148D01*
X184311833Y-103984090D01*
X184313059Y-103945746D01*
X184314931Y-103913244D01*
X184317548Y-103885709D01*
X184321006Y-103862270D01*
X184325404Y-103842053D01*
X184330837Y-103824187D01*
X184337405Y-103807798D01*
X184342731Y-103796731D01*
X184359182Y-103770834D01*
X184379527Y-103751144D01*
X184402896Y-103737019D01*
X184417489Y-103730240D01*
X184429518Y-103726131D01*
X184442117Y-103724043D01*
X184458418Y-103723329D01*
X184469332Y-103723285D01*
X184489955Y-103723750D01*
X184505193Y-103725406D01*
X184518102Y-103728794D01*
X184531193Y-103734200D01*
X184559075Y-103750275D01*
X184582384Y-103771235D01*
X184600978Y-103795457D01*
X184608986Y-103807063D01*
X184615037Y-103814982D01*
X184617817Y-103817497D01*
X184619716Y-103813104D01*
X184623444Y-103802859D01*
X184628203Y-103788959D01*
X184628312Y-103788634D01*
X184644964Y-103750771D01*
X184667333Y-103718898D01*
X184694802Y-103693394D01*
X184726755Y-103674637D01*
X184762573Y-103663008D01*
X184801641Y-103658886D01*
X184835344Y-103661324D01*
X184875525Y-103671232D01*
X184911302Y-103688213D01*
X184942430Y-103711970D01*
X184968667Y-103742203D01*
X184989769Y-103778612D01*
X185005493Y-103820899D01*
X185015595Y-103868764D01*
X185017619Y-103885391D01*
X185018723Y-103900638D01*
X185019727Y-103922904D01*
X185020595Y-103950738D01*
X185021294Y-103982694D01*
X185021788Y-104017321D01*
X185022040Y-104053172D01*
X185022066Y-104068482D01*
X185022066Y-104207734D01*
X184941633Y-104207734D01*
X184941633Y-104110367D01*
X184941485Y-104009825D01*
X184941105Y-103967600D01*
X184940113Y-103931851D01*
X184938537Y-103903175D01*
X184936403Y-103882168D01*
X184935635Y-103877321D01*
X184925957Y-103840494D01*
X184911303Y-103810460D01*
X184891722Y-103787266D01*
X184867264Y-103770957D01*
X184837976Y-103761579D01*
X184810110Y-103759093D01*
X184775976Y-103761535D01*
X184747950Y-103769399D01*
X184725264Y-103783167D01*
X184707151Y-103803319D01*
X184692842Y-103830338D01*
X184691595Y-103833428D01*
X184688755Y-103840993D01*
X184686498Y-103848397D01*
X184684740Y-103856726D01*
X184683398Y-103867068D01*
X184682390Y-103880510D01*
X184681632Y-103898138D01*
X184681041Y-103921041D01*
X184680535Y-103950305D01*
X184680063Y-103984425D01*
X184678414Y-104110367D01*
X184941633Y-104110367D01*
X184941633Y-104207734D01*
X184599502Y-104207734D01*
X184599502Y-104110367D01*
X184598059Y-104007709D01*
X184596617Y-103905050D01*
X184584706Y-103880795D01*
X184569454Y-103856355D01*
X184550703Y-103838939D01*
X184527509Y-103827996D01*
X184498930Y-103822975D01*
X184484864Y-103822500D01*
X184459032Y-103824710D01*
X184438669Y-103831802D01*
X184421883Y-103844473D01*
X184420039Y-103846381D01*
X184412663Y-103854922D01*
X184406799Y-103863815D01*
X184402254Y-103874148D01*
X184398836Y-103887010D01*
X184396353Y-103903490D01*
X184394611Y-103924675D01*
X184393419Y-103951655D01*
X184392584Y-103985518D01*
X184392271Y-104003475D01*
X184390552Y-104110367D01*
X184599502Y-104110367D01*
X184599502Y-104207734D01*
X184310867Y-104207734D01*
X184310934Y-104081792D01*
X184310934Y-104081792D01*
G37*
X184310934Y-104081792D02*
X184311157Y-104029148D01*
X184311833Y-103984090D01*
X184313059Y-103945746D01*
X184314931Y-103913244D01*
X184317548Y-103885709D01*
X184321006Y-103862270D01*
X184325404Y-103842053D01*
X184330837Y-103824187D01*
X184337405Y-103807798D01*
X184342731Y-103796731D01*
X184359182Y-103770834D01*
X184379527Y-103751144D01*
X184402896Y-103737019D01*
X184417489Y-103730240D01*
X184429518Y-103726131D01*
X184442117Y-103724043D01*
X184458418Y-103723329D01*
X184469332Y-103723285D01*
X184489955Y-103723750D01*
X184505193Y-103725406D01*
X184518102Y-103728794D01*
X184531193Y-103734200D01*
X184559075Y-103750275D01*
X184582384Y-103771235D01*
X184600978Y-103795457D01*
X184608986Y-103807063D01*
X184615037Y-103814982D01*
X184617817Y-103817497D01*
X184619716Y-103813104D01*
X184623444Y-103802859D01*
X184628203Y-103788959D01*
X184628312Y-103788634D01*
X184644964Y-103750771D01*
X184667333Y-103718898D01*
X184694802Y-103693394D01*
X184726755Y-103674637D01*
X184762573Y-103663008D01*
X184801641Y-103658886D01*
X184835344Y-103661324D01*
X184875525Y-103671232D01*
X184911302Y-103688213D01*
X184942430Y-103711970D01*
X184968667Y-103742203D01*
X184989769Y-103778612D01*
X185005493Y-103820899D01*
X185015595Y-103868764D01*
X185017619Y-103885391D01*
X185018723Y-103900638D01*
X185019727Y-103922904D01*
X185020595Y-103950738D01*
X185021294Y-103982694D01*
X185021788Y-104017321D01*
X185022040Y-104053172D01*
X185022066Y-104068482D01*
X185022066Y-104207734D01*
X184941633Y-104207734D01*
X184941633Y-104110367D01*
X184941485Y-104009825D01*
X184941105Y-103967600D01*
X184940113Y-103931851D01*
X184938537Y-103903175D01*
X184936403Y-103882168D01*
X184935635Y-103877321D01*
X184925957Y-103840494D01*
X184911303Y-103810460D01*
X184891722Y-103787266D01*
X184867264Y-103770957D01*
X184837976Y-103761579D01*
X184810110Y-103759093D01*
X184775976Y-103761535D01*
X184747950Y-103769399D01*
X184725264Y-103783167D01*
X184707151Y-103803319D01*
X184692842Y-103830338D01*
X184691595Y-103833428D01*
X184688755Y-103840993D01*
X184686498Y-103848397D01*
X184684740Y-103856726D01*
X184683398Y-103867068D01*
X184682390Y-103880510D01*
X184681632Y-103898138D01*
X184681041Y-103921041D01*
X184680535Y-103950305D01*
X184680063Y-103984425D01*
X184678414Y-104110367D01*
X184941633Y-104110367D01*
X184941633Y-104207734D01*
X184599502Y-104207734D01*
X184599502Y-104110367D01*
X184598059Y-104007709D01*
X184596617Y-103905050D01*
X184584706Y-103880795D01*
X184569454Y-103856355D01*
X184550703Y-103838939D01*
X184527509Y-103827996D01*
X184498930Y-103822975D01*
X184484864Y-103822500D01*
X184459032Y-103824710D01*
X184438669Y-103831802D01*
X184421883Y-103844473D01*
X184420039Y-103846381D01*
X184412663Y-103854922D01*
X184406799Y-103863815D01*
X184402254Y-103874148D01*
X184398836Y-103887010D01*
X184396353Y-103903490D01*
X184394611Y-103924675D01*
X184393419Y-103951655D01*
X184392584Y-103985518D01*
X184392271Y-104003475D01*
X184390552Y-104110367D01*
X184599502Y-104110367D01*
X184599502Y-104207734D01*
X184310867Y-104207734D01*
X184310934Y-104081792D01*
G36*
X183694916Y-105784960D02*
X183879067Y-105676262D01*
X184063217Y-105567565D01*
X184063217Y-103237357D01*
X184041212Y-103229148D01*
X184015465Y-103215520D01*
X183991658Y-103195335D01*
X183971815Y-103170506D01*
X183963439Y-103155795D01*
X183950761Y-103121230D01*
X183946010Y-103086345D01*
X183948820Y-103052195D01*
X183958824Y-103019831D01*
X183975656Y-102990310D01*
X183998950Y-102964683D01*
X184028338Y-102944006D01*
X184039010Y-102938588D01*
X184053492Y-102932600D01*
X184067086Y-102929136D01*
X184083159Y-102927564D01*
X184099289Y-102927242D01*
X184118389Y-102927560D01*
X184132448Y-102929115D01*
X184144873Y-102932635D01*
X184159075Y-102938847D01*
X184163308Y-102940909D01*
X184194184Y-102960709D01*
X184219490Y-102986710D01*
X184238154Y-103017426D01*
X184245544Y-103039718D01*
X184249886Y-103066415D01*
X184250959Y-103094148D01*
X184248541Y-103119547D01*
X184245657Y-103131256D01*
X184230700Y-103164431D01*
X184209193Y-103192876D01*
X184181987Y-103215624D01*
X184161642Y-103226900D01*
X184141533Y-103236134D01*
X184141533Y-105611997D01*
X184103844Y-105634188D01*
X184103844Y-103161605D01*
X184126165Y-103156800D01*
X184132177Y-103154084D01*
X184153157Y-103139741D01*
X184166820Y-103121551D01*
X184173527Y-103098864D01*
X184174219Y-103078650D01*
X184172610Y-103061924D01*
X184168995Y-103049922D01*
X184162135Y-103038935D01*
X184160092Y-103036316D01*
X184141220Y-103018618D01*
X184119635Y-103008199D01*
X184096769Y-103005109D01*
X184074056Y-103009397D01*
X184052929Y-103021111D01*
X184041134Y-103032263D01*
X184029017Y-103051081D01*
X184023586Y-103073039D01*
X184024073Y-103096721D01*
X184030453Y-103118725D01*
X184043219Y-103137063D01*
X184060772Y-103150889D01*
X184081514Y-103159352D01*
X184103844Y-103161605D01*
X184103844Y-105634188D01*
X183955375Y-105721607D01*
X183769218Y-105831217D01*
X183769109Y-105921176D01*
X183769000Y-106011134D01*
X183692662Y-106011134D01*
X183694916Y-105784960D01*
X183694916Y-105784960D01*
G37*
X183694916Y-105784960D02*
X183879067Y-105676262D01*
X184063217Y-105567565D01*
X184063217Y-103237357D01*
X184041212Y-103229148D01*
X184015465Y-103215520D01*
X183991658Y-103195335D01*
X183971815Y-103170506D01*
X183963439Y-103155795D01*
X183950761Y-103121230D01*
X183946010Y-103086345D01*
X183948820Y-103052195D01*
X183958824Y-103019831D01*
X183975656Y-102990310D01*
X183998950Y-102964683D01*
X184028338Y-102944006D01*
X184039010Y-102938588D01*
X184053492Y-102932600D01*
X184067086Y-102929136D01*
X184083159Y-102927564D01*
X184099289Y-102927242D01*
X184118389Y-102927560D01*
X184132448Y-102929115D01*
X184144873Y-102932635D01*
X184159075Y-102938847D01*
X184163308Y-102940909D01*
X184194184Y-102960709D01*
X184219490Y-102986710D01*
X184238154Y-103017426D01*
X184245544Y-103039718D01*
X184249886Y-103066415D01*
X184250959Y-103094148D01*
X184248541Y-103119547D01*
X184245657Y-103131256D01*
X184230700Y-103164431D01*
X184209193Y-103192876D01*
X184181987Y-103215624D01*
X184161642Y-103226900D01*
X184141533Y-103236134D01*
X184141533Y-105611997D01*
X184103844Y-105634188D01*
X184103844Y-103161605D01*
X184126165Y-103156800D01*
X184132177Y-103154084D01*
X184153157Y-103139741D01*
X184166820Y-103121551D01*
X184173527Y-103098864D01*
X184174219Y-103078650D01*
X184172610Y-103061924D01*
X184168995Y-103049922D01*
X184162135Y-103038935D01*
X184160092Y-103036316D01*
X184141220Y-103018618D01*
X184119635Y-103008199D01*
X184096769Y-103005109D01*
X184074056Y-103009397D01*
X184052929Y-103021111D01*
X184041134Y-103032263D01*
X184029017Y-103051081D01*
X184023586Y-103073039D01*
X184024073Y-103096721D01*
X184030453Y-103118725D01*
X184043219Y-103137063D01*
X184060772Y-103150889D01*
X184081514Y-103159352D01*
X184103844Y-103161605D01*
X184103844Y-105634188D01*
X183955375Y-105721607D01*
X183769218Y-105831217D01*
X183769109Y-105921176D01*
X183769000Y-106011134D01*
X183692662Y-106011134D01*
X183694916Y-105784960D01*
G36*
X183764766Y-107336167D02*
X183764767Y-107424056D01*
X183764767Y-107511945D01*
X183951033Y-107621917D01*
X184137300Y-107731890D01*
X184137300Y-112665791D01*
X184157408Y-112676005D01*
X184184987Y-112694586D01*
X184208276Y-112719498D01*
X184226180Y-112749234D01*
X184237603Y-112782283D01*
X184238841Y-112788220D01*
X184241486Y-112803389D01*
X184242476Y-112814653D01*
X184241719Y-112825519D01*
X184239123Y-112839494D01*
X184237279Y-112847967D01*
X184229380Y-112875154D01*
X184217959Y-112897948D01*
X184201243Y-112919547D01*
X184192476Y-112928770D01*
X184167661Y-112949629D01*
X184141071Y-112963294D01*
X184110909Y-112970494D01*
X184085717Y-112972086D01*
X184082197Y-112972025D01*
X184082197Y-112893645D01*
X184104253Y-112891748D01*
X184125080Y-112883638D01*
X184143062Y-112869428D01*
X184155285Y-112851899D01*
X184160478Y-112835642D01*
X184162483Y-112815891D01*
X184161233Y-112796379D01*
X184156661Y-112780837D01*
X184156566Y-112780652D01*
X184147665Y-112768091D01*
X184134917Y-112755405D01*
X184121138Y-112745049D01*
X184109476Y-112739562D01*
X184098768Y-112738343D01*
X184084272Y-112738409D01*
X184077982Y-112738862D01*
X184055200Y-112744853D01*
X184036495Y-112757140D01*
X184022491Y-112774286D01*
X184013815Y-112794854D01*
X184011093Y-112817409D01*
X184014951Y-112840514D01*
X184024793Y-112860937D01*
X184040853Y-112878351D01*
X184060526Y-112889216D01*
X184082197Y-112893645D01*
X184082197Y-112972025D01*
X184068228Y-112971782D01*
X184054792Y-112970037D01*
X184041885Y-112966004D01*
X184025981Y-112958831D01*
X184021387Y-112956579D01*
X183993902Y-112940184D01*
X183972346Y-112920393D01*
X183954686Y-112895147D01*
X183947715Y-112881963D01*
X183942263Y-112869894D01*
X183938852Y-112858909D01*
X183937020Y-112846365D01*
X183936303Y-112829618D01*
X183936217Y-112816217D01*
X183936503Y-112795368D01*
X183937668Y-112780272D01*
X183940170Y-112768223D01*
X183944469Y-112756519D01*
X183947479Y-112749859D01*
X183957131Y-112732635D01*
X183969412Y-112715040D01*
X183976489Y-112706580D01*
X183989028Y-112695190D01*
X184005050Y-112683675D01*
X184022247Y-112673386D01*
X184038310Y-112665671D01*
X184050929Y-112661878D01*
X184053309Y-112661700D01*
X184053858Y-112661531D01*
X184054380Y-112660887D01*
X184054877Y-112659566D01*
X184055348Y-112657365D01*
X184055796Y-112654079D01*
X184056219Y-112649506D01*
X184056619Y-112643443D01*
X184056997Y-112635686D01*
X184057353Y-112626033D01*
X184057688Y-112614280D01*
X184058002Y-112600223D01*
X184058296Y-112583660D01*
X184058571Y-112564388D01*
X184058828Y-112542202D01*
X184059067Y-112516901D01*
X184059288Y-112488280D01*
X184059493Y-112456137D01*
X184059681Y-112420268D01*
X184059855Y-112380471D01*
X184060013Y-112336541D01*
X184060158Y-112288276D01*
X184060289Y-112235473D01*
X184060408Y-112177927D01*
X184060514Y-112115437D01*
X184060609Y-112047799D01*
X184060693Y-111974809D01*
X184060767Y-111896265D01*
X184060832Y-111811962D01*
X184060887Y-111721699D01*
X184060935Y-111625272D01*
X184060974Y-111522477D01*
X184061007Y-111413112D01*
X184061034Y-111296972D01*
X184061055Y-111173856D01*
X184061071Y-111043559D01*
X184061083Y-110905879D01*
X184061091Y-110760612D01*
X184061096Y-110607555D01*
X184061099Y-110446505D01*
X184061100Y-110277259D01*
X184061100Y-107777392D01*
X183874949Y-107667904D01*
X183688799Y-107558417D01*
X183688683Y-107447292D01*
X183688566Y-107336167D01*
X183764766Y-107336167D01*
X183764766Y-107336167D01*
G37*
X183764766Y-107336167D02*
X183764767Y-107424056D01*
X183764767Y-107511945D01*
X183951033Y-107621917D01*
X184137300Y-107731890D01*
X184137300Y-112665791D01*
X184157408Y-112676005D01*
X184184987Y-112694586D01*
X184208276Y-112719498D01*
X184226180Y-112749234D01*
X184237603Y-112782283D01*
X184238841Y-112788220D01*
X184241486Y-112803389D01*
X184242476Y-112814653D01*
X184241719Y-112825519D01*
X184239123Y-112839494D01*
X184237279Y-112847967D01*
X184229380Y-112875154D01*
X184217959Y-112897948D01*
X184201243Y-112919547D01*
X184192476Y-112928770D01*
X184167661Y-112949629D01*
X184141071Y-112963294D01*
X184110909Y-112970494D01*
X184085717Y-112972086D01*
X184082197Y-112972025D01*
X184082197Y-112893645D01*
X184104253Y-112891748D01*
X184125080Y-112883638D01*
X184143062Y-112869428D01*
X184155285Y-112851899D01*
X184160478Y-112835642D01*
X184162483Y-112815891D01*
X184161233Y-112796379D01*
X184156661Y-112780837D01*
X184156566Y-112780652D01*
X184147665Y-112768091D01*
X184134917Y-112755405D01*
X184121138Y-112745049D01*
X184109476Y-112739562D01*
X184098768Y-112738343D01*
X184084272Y-112738409D01*
X184077982Y-112738862D01*
X184055200Y-112744853D01*
X184036495Y-112757140D01*
X184022491Y-112774286D01*
X184013815Y-112794854D01*
X184011093Y-112817409D01*
X184014951Y-112840514D01*
X184024793Y-112860937D01*
X184040853Y-112878351D01*
X184060526Y-112889216D01*
X184082197Y-112893645D01*
X184082197Y-112972025D01*
X184068228Y-112971782D01*
X184054792Y-112970037D01*
X184041885Y-112966004D01*
X184025981Y-112958831D01*
X184021387Y-112956579D01*
X183993902Y-112940184D01*
X183972346Y-112920393D01*
X183954686Y-112895147D01*
X183947715Y-112881963D01*
X183942263Y-112869894D01*
X183938852Y-112858909D01*
X183937020Y-112846365D01*
X183936303Y-112829618D01*
X183936217Y-112816217D01*
X183936503Y-112795368D01*
X183937668Y-112780272D01*
X183940170Y-112768223D01*
X183944469Y-112756519D01*
X183947479Y-112749859D01*
X183957131Y-112732635D01*
X183969412Y-112715040D01*
X183976489Y-112706580D01*
X183989028Y-112695190D01*
X184005050Y-112683675D01*
X184022247Y-112673386D01*
X184038310Y-112665671D01*
X184050929Y-112661878D01*
X184053309Y-112661700D01*
X184053858Y-112661531D01*
X184054380Y-112660887D01*
X184054877Y-112659566D01*
X184055348Y-112657365D01*
X184055796Y-112654079D01*
X184056219Y-112649506D01*
X184056619Y-112643443D01*
X184056997Y-112635686D01*
X184057353Y-112626033D01*
X184057688Y-112614280D01*
X184058002Y-112600223D01*
X184058296Y-112583660D01*
X184058571Y-112564388D01*
X184058828Y-112542202D01*
X184059067Y-112516901D01*
X184059288Y-112488280D01*
X184059493Y-112456137D01*
X184059681Y-112420268D01*
X184059855Y-112380471D01*
X184060013Y-112336541D01*
X184060158Y-112288276D01*
X184060289Y-112235473D01*
X184060408Y-112177927D01*
X184060514Y-112115437D01*
X184060609Y-112047799D01*
X184060693Y-111974809D01*
X184060767Y-111896265D01*
X184060832Y-111811962D01*
X184060887Y-111721699D01*
X184060935Y-111625272D01*
X184060974Y-111522477D01*
X184061007Y-111413112D01*
X184061034Y-111296972D01*
X184061055Y-111173856D01*
X184061071Y-111043559D01*
X184061083Y-110905879D01*
X184061091Y-110760612D01*
X184061096Y-110607555D01*
X184061099Y-110446505D01*
X184061100Y-110277259D01*
X184061100Y-107777392D01*
X183874949Y-107667904D01*
X183688799Y-107558417D01*
X183688683Y-107447292D01*
X183688566Y-107336167D01*
X183764766Y-107336167D01*
G36*
X183066350Y-112594004D02*
X183066593Y-112549220D01*
X183066983Y-112508893D01*
X183067508Y-112473713D01*
X183068155Y-112444369D01*
X183068914Y-112421552D01*
X183069771Y-112405951D01*
X183070532Y-112399063D01*
X183080427Y-112365788D01*
X183096455Y-112334941D01*
X183117441Y-112308162D01*
X183142211Y-112287089D01*
X183156767Y-112278651D01*
X183169032Y-112273448D01*
X183183041Y-112269242D01*
X183199769Y-112265938D01*
X183220190Y-112263443D01*
X183245277Y-112261662D01*
X183276007Y-112260500D01*
X183313351Y-112259865D01*
X183353075Y-112259665D01*
X183464200Y-112259534D01*
X183464200Y-112793240D01*
X183505475Y-112792029D01*
X183546750Y-112790817D01*
X183547843Y-112552692D01*
X183548937Y-112314567D01*
X183713966Y-112314567D01*
X183713503Y-112569626D01*
X183713358Y-112615912D01*
X183713104Y-112660124D01*
X183712752Y-112701456D01*
X183712315Y-112739104D01*
X183711804Y-112772263D01*
X183711234Y-112800129D01*
X183710614Y-112821896D01*
X183709959Y-112836761D01*
X183709318Y-112843734D01*
X183699990Y-112873753D01*
X183684624Y-112902796D01*
X183664631Y-112929050D01*
X183641422Y-112950707D01*
X183616407Y-112965956D01*
X183612945Y-112967434D01*
X183607311Y-112969652D01*
X183601819Y-112971501D01*
X183595680Y-112973015D01*
X183588105Y-112974227D01*
X183578304Y-112975171D01*
X183565488Y-112975880D01*
X183548867Y-112976387D01*
X183527652Y-112976728D01*
X183501054Y-112976934D01*
X183468283Y-112977040D01*
X183428550Y-112977078D01*
X183385883Y-112977084D01*
X183338298Y-112977057D01*
X183298398Y-112976958D01*
X183265400Y-112976764D01*
X183244067Y-112976514D01*
X183244067Y-112792934D01*
X183299100Y-112792934D01*
X183299100Y-112445800D01*
X183244067Y-112445800D01*
X183244067Y-112792934D01*
X183244067Y-112976514D01*
X183238522Y-112976448D01*
X183216983Y-112975987D01*
X183199999Y-112975355D01*
X183186789Y-112974526D01*
X183176571Y-112973477D01*
X183168563Y-112972182D01*
X183161982Y-112970617D01*
X183159400Y-112969855D01*
X183130395Y-112957038D01*
X183105456Y-112938428D01*
X183089916Y-112920462D01*
X183084912Y-112913065D01*
X183080669Y-112905982D01*
X183077124Y-112898475D01*
X183074214Y-112889808D01*
X183071877Y-112879245D01*
X183070049Y-112866049D01*
X183068669Y-112849484D01*
X183067673Y-112828812D01*
X183066999Y-112803298D01*
X183066584Y-112772205D01*
X183066365Y-112734796D01*
X183066280Y-112690334D01*
X183066267Y-112642555D01*
X183066350Y-112594004D01*
X183066350Y-112594004D01*
G37*
X183066350Y-112594004D02*
X183066593Y-112549220D01*
X183066983Y-112508893D01*
X183067508Y-112473713D01*
X183068155Y-112444369D01*
X183068914Y-112421552D01*
X183069771Y-112405951D01*
X183070532Y-112399063D01*
X183080427Y-112365788D01*
X183096455Y-112334941D01*
X183117441Y-112308162D01*
X183142211Y-112287089D01*
X183156767Y-112278651D01*
X183169032Y-112273448D01*
X183183041Y-112269242D01*
X183199769Y-112265938D01*
X183220190Y-112263443D01*
X183245277Y-112261662D01*
X183276007Y-112260500D01*
X183313351Y-112259865D01*
X183353075Y-112259665D01*
X183464200Y-112259534D01*
X183464200Y-112793240D01*
X183505475Y-112792029D01*
X183546750Y-112790817D01*
X183547843Y-112552692D01*
X183548937Y-112314567D01*
X183713966Y-112314567D01*
X183713503Y-112569626D01*
X183713358Y-112615912D01*
X183713104Y-112660124D01*
X183712752Y-112701456D01*
X183712315Y-112739104D01*
X183711804Y-112772263D01*
X183711234Y-112800129D01*
X183710614Y-112821896D01*
X183709959Y-112836761D01*
X183709318Y-112843734D01*
X183699990Y-112873753D01*
X183684624Y-112902796D01*
X183664631Y-112929050D01*
X183641422Y-112950707D01*
X183616407Y-112965956D01*
X183612945Y-112967434D01*
X183607311Y-112969652D01*
X183601819Y-112971501D01*
X183595680Y-112973015D01*
X183588105Y-112974227D01*
X183578304Y-112975171D01*
X183565488Y-112975880D01*
X183548867Y-112976387D01*
X183527652Y-112976728D01*
X183501054Y-112976934D01*
X183468283Y-112977040D01*
X183428550Y-112977078D01*
X183385883Y-112977084D01*
X183338298Y-112977057D01*
X183298398Y-112976958D01*
X183265400Y-112976764D01*
X183244067Y-112976514D01*
X183244067Y-112792934D01*
X183299100Y-112792934D01*
X183299100Y-112445800D01*
X183244067Y-112445800D01*
X183244067Y-112792934D01*
X183244067Y-112976514D01*
X183238522Y-112976448D01*
X183216983Y-112975987D01*
X183199999Y-112975355D01*
X183186789Y-112974526D01*
X183176571Y-112973477D01*
X183168563Y-112972182D01*
X183161982Y-112970617D01*
X183159400Y-112969855D01*
X183130395Y-112957038D01*
X183105456Y-112938428D01*
X183089916Y-112920462D01*
X183084912Y-112913065D01*
X183080669Y-112905982D01*
X183077124Y-112898475D01*
X183074214Y-112889808D01*
X183071877Y-112879245D01*
X183070049Y-112866049D01*
X183068669Y-112849484D01*
X183067673Y-112828812D01*
X183066999Y-112803298D01*
X183066584Y-112772205D01*
X183066365Y-112734796D01*
X183066280Y-112690334D01*
X183066267Y-112642555D01*
X183066350Y-112594004D01*
G36*
X183713966Y-111620300D02*
X183713966Y-111806567D01*
X182926567Y-111806567D01*
X182926567Y-111620300D01*
X183713966Y-111620300D01*
X183713966Y-111620300D01*
G37*
X183713966Y-111620300D02*
X183713966Y-111806567D01*
X182926567Y-111806567D01*
X182926567Y-111620300D01*
X183713966Y-111620300D01*
G36*
X183066350Y-110769357D02*
X183066593Y-110724585D01*
X183066983Y-110684270D01*
X183067508Y-110649101D01*
X183068156Y-110619767D01*
X183068915Y-110596960D01*
X183069772Y-110581369D01*
X183070532Y-110574496D01*
X183080855Y-110540013D01*
X183097660Y-110508447D01*
X183119870Y-110481278D01*
X183146411Y-110459988D01*
X183158865Y-110453019D01*
X183182683Y-110441317D01*
X183323442Y-110440000D01*
X183464200Y-110438682D01*
X183464200Y-110968367D01*
X183548866Y-110968367D01*
X183548866Y-110494234D01*
X183713966Y-110494234D01*
X183713503Y-110747175D01*
X183713358Y-110793255D01*
X183713106Y-110837247D01*
X183712757Y-110878346D01*
X183712324Y-110915744D01*
X183711819Y-110948635D01*
X183711254Y-110976212D01*
X183710642Y-110997668D01*
X183709995Y-111012197D01*
X183709388Y-111018709D01*
X183702663Y-111041349D01*
X183691645Y-111066304D01*
X183678113Y-111089990D01*
X183665632Y-111106831D01*
X183651236Y-111120053D01*
X183632323Y-111132888D01*
X183621813Y-111138581D01*
X183593516Y-111152517D01*
X183400800Y-111153780D01*
X183343572Y-111154030D01*
X183294763Y-111153977D01*
X183254331Y-111153620D01*
X183244067Y-111153409D01*
X183244067Y-110968367D01*
X183299100Y-110968367D01*
X183299100Y-110621234D01*
X183244067Y-110621234D01*
X183244067Y-110968367D01*
X183244067Y-111153409D01*
X183222232Y-111152958D01*
X183198426Y-111151989D01*
X183182869Y-111150714D01*
X183179830Y-111150276D01*
X183149006Y-111141517D01*
X183121183Y-111126707D01*
X183098451Y-111107045D01*
X183093007Y-111100472D01*
X183087389Y-111092923D01*
X183082619Y-111085740D01*
X183078627Y-111078189D01*
X183075344Y-111069539D01*
X183072701Y-111059058D01*
X183070628Y-111046014D01*
X183069056Y-111029674D01*
X183067916Y-111009306D01*
X183067138Y-110984178D01*
X183066653Y-110953559D01*
X183066393Y-110916716D01*
X183066287Y-110872916D01*
X183066267Y-110821429D01*
X183066267Y-110817893D01*
X183066350Y-110769357D01*
X183066350Y-110769357D01*
G37*
X183066350Y-110769357D02*
X183066593Y-110724585D01*
X183066983Y-110684270D01*
X183067508Y-110649101D01*
X183068156Y-110619767D01*
X183068915Y-110596960D01*
X183069772Y-110581369D01*
X183070532Y-110574496D01*
X183080855Y-110540013D01*
X183097660Y-110508447D01*
X183119870Y-110481278D01*
X183146411Y-110459988D01*
X183158865Y-110453019D01*
X183182683Y-110441317D01*
X183323442Y-110440000D01*
X183464200Y-110438682D01*
X183464200Y-110968367D01*
X183548866Y-110968367D01*
X183548866Y-110494234D01*
X183713966Y-110494234D01*
X183713503Y-110747175D01*
X183713358Y-110793255D01*
X183713106Y-110837247D01*
X183712757Y-110878346D01*
X183712324Y-110915744D01*
X183711819Y-110948635D01*
X183711254Y-110976212D01*
X183710642Y-110997668D01*
X183709995Y-111012197D01*
X183709388Y-111018709D01*
X183702663Y-111041349D01*
X183691645Y-111066304D01*
X183678113Y-111089990D01*
X183665632Y-111106831D01*
X183651236Y-111120053D01*
X183632323Y-111132888D01*
X183621813Y-111138581D01*
X183593516Y-111152517D01*
X183400800Y-111153780D01*
X183343572Y-111154030D01*
X183294763Y-111153977D01*
X183254331Y-111153620D01*
X183244067Y-111153409D01*
X183244067Y-110968367D01*
X183299100Y-110968367D01*
X183299100Y-110621234D01*
X183244067Y-110621234D01*
X183244067Y-110968367D01*
X183244067Y-111153409D01*
X183222232Y-111152958D01*
X183198426Y-111151989D01*
X183182869Y-111150714D01*
X183179830Y-111150276D01*
X183149006Y-111141517D01*
X183121183Y-111126707D01*
X183098451Y-111107045D01*
X183093007Y-111100472D01*
X183087389Y-111092923D01*
X183082619Y-111085740D01*
X183078627Y-111078189D01*
X183075344Y-111069539D01*
X183072701Y-111059058D01*
X183070628Y-111046014D01*
X183069056Y-111029674D01*
X183067916Y-111009306D01*
X183067138Y-110984178D01*
X183066653Y-110953559D01*
X183066393Y-110916716D01*
X183066287Y-110872916D01*
X183066267Y-110821429D01*
X183066267Y-110817893D01*
X183066350Y-110769357D01*
G36*
X183244067Y-109308901D02*
X183244067Y-109787267D01*
X183548866Y-109787267D01*
X183548866Y-109258101D01*
X183713966Y-109258101D01*
X183713503Y-109538559D01*
X183713369Y-109587059D01*
X183713136Y-109633459D01*
X183712816Y-109677002D01*
X183712418Y-109716927D01*
X183711954Y-109752475D01*
X183711433Y-109782887D01*
X183710866Y-109807404D01*
X183710263Y-109825266D01*
X183709635Y-109835716D01*
X183709388Y-109837609D01*
X183702663Y-109860249D01*
X183691645Y-109885204D01*
X183678113Y-109908890D01*
X183665632Y-109925731D01*
X183651208Y-109938976D01*
X183632258Y-109951822D01*
X183621801Y-109957481D01*
X183593490Y-109971417D01*
X183174217Y-109971417D01*
X183149321Y-109961381D01*
X183120002Y-109945586D01*
X183096898Y-109924174D01*
X183080151Y-109898013D01*
X183068383Y-109874050D01*
X183067209Y-109591476D01*
X183066036Y-109308901D01*
X183244067Y-109308901D01*
X183244067Y-109308901D01*
G37*
X183244067Y-109308901D02*
X183244067Y-109787267D01*
X183548866Y-109787267D01*
X183548866Y-109258101D01*
X183713966Y-109258101D01*
X183713503Y-109538559D01*
X183713369Y-109587059D01*
X183713136Y-109633459D01*
X183712816Y-109677002D01*
X183712418Y-109716927D01*
X183711954Y-109752475D01*
X183711433Y-109782887D01*
X183710866Y-109807404D01*
X183710263Y-109825266D01*
X183709635Y-109835716D01*
X183709388Y-109837609D01*
X183702663Y-109860249D01*
X183691645Y-109885204D01*
X183678113Y-109908890D01*
X183665632Y-109925731D01*
X183651208Y-109938976D01*
X183632258Y-109951822D01*
X183621801Y-109957481D01*
X183593490Y-109971417D01*
X183174217Y-109971417D01*
X183149321Y-109961381D01*
X183120002Y-109945586D01*
X183096898Y-109924174D01*
X183080151Y-109898013D01*
X183068383Y-109874050D01*
X183067209Y-109591476D01*
X183066036Y-109308901D01*
X183244067Y-109308901D01*
G36*
X183066267Y-108640034D02*
X183066267Y-108458000D01*
X183244067Y-108458000D01*
X183244067Y-108640141D01*
X183395408Y-108639029D01*
X183546750Y-108637917D01*
X183547892Y-108547959D01*
X183549035Y-108458000D01*
X183713966Y-108458000D01*
X183713533Y-108588175D01*
X183713326Y-108621147D01*
X183712949Y-108651880D01*
X183712429Y-108679216D01*
X183711796Y-108701995D01*
X183711079Y-108719058D01*
X183710305Y-108729246D01*
X183710008Y-108731050D01*
X183700727Y-108755869D01*
X183686280Y-108778479D01*
X183668417Y-108796480D01*
X183656816Y-108804055D01*
X183650130Y-108807507D01*
X183643771Y-108810528D01*
X183637149Y-108813148D01*
X183629676Y-108815400D01*
X183620762Y-108817315D01*
X183609817Y-108818925D01*
X183596254Y-108820261D01*
X183579483Y-108821356D01*
X183558914Y-108822241D01*
X183533958Y-108822949D01*
X183504027Y-108823509D01*
X183468530Y-108823955D01*
X183426880Y-108824319D01*
X183378486Y-108824631D01*
X183322760Y-108824923D01*
X183264175Y-108825204D01*
X182926567Y-108826805D01*
X182926567Y-108640034D01*
X183066267Y-108640034D01*
X183066267Y-108640034D01*
G37*
X183066267Y-108640034D02*
X183066267Y-108458000D01*
X183244067Y-108458000D01*
X183244067Y-108640141D01*
X183395408Y-108639029D01*
X183546750Y-108637917D01*
X183547892Y-108547959D01*
X183549035Y-108458000D01*
X183713966Y-108458000D01*
X183713533Y-108588175D01*
X183713326Y-108621147D01*
X183712949Y-108651880D01*
X183712429Y-108679216D01*
X183711796Y-108701995D01*
X183711079Y-108719058D01*
X183710305Y-108729246D01*
X183710008Y-108731050D01*
X183700727Y-108755869D01*
X183686280Y-108778479D01*
X183668417Y-108796480D01*
X183656816Y-108804055D01*
X183650130Y-108807507D01*
X183643771Y-108810528D01*
X183637149Y-108813148D01*
X183629676Y-108815400D01*
X183620762Y-108817315D01*
X183609817Y-108818925D01*
X183596254Y-108820261D01*
X183579483Y-108821356D01*
X183558914Y-108822241D01*
X183533958Y-108822949D01*
X183504027Y-108823509D01*
X183468530Y-108823955D01*
X183426880Y-108824319D01*
X183378486Y-108824631D01*
X183322760Y-108824923D01*
X183264175Y-108825204D01*
X182926567Y-108826805D01*
X182926567Y-108640034D01*
X183066267Y-108640034D01*
G36*
X183085086Y-107839107D02*
X183103906Y-107837817D01*
X183089250Y-107814620D01*
X183080711Y-107800231D01*
X183074570Y-107787058D01*
X183070444Y-107773234D01*
X183067948Y-107756894D01*
X183066694Y-107736173D01*
X183066300Y-107709203D01*
X183066290Y-107703409D01*
X183066267Y-107645200D01*
X183244067Y-107645200D01*
X183244067Y-107839934D01*
X183713966Y-107839934D01*
X183713966Y-108026200D01*
X183066267Y-108026200D01*
X183066267Y-107840398D01*
X183085086Y-107839107D01*
X183085086Y-107839107D01*
G37*
X183085086Y-107839107D02*
X183103906Y-107837817D01*
X183089250Y-107814620D01*
X183080711Y-107800231D01*
X183074570Y-107787058D01*
X183070444Y-107773234D01*
X183067948Y-107756894D01*
X183066694Y-107736173D01*
X183066300Y-107709203D01*
X183066290Y-107703409D01*
X183066267Y-107645200D01*
X183244067Y-107645200D01*
X183244067Y-107839934D01*
X183713966Y-107839934D01*
X183713966Y-108026200D01*
X183066267Y-108026200D01*
X183066267Y-107840398D01*
X183085086Y-107839107D01*
G36*
X183066270Y-106591146D02*
X183066340Y-106545843D01*
X183066563Y-106507589D01*
X183067025Y-106475676D01*
X183067816Y-106449395D01*
X183069020Y-106428038D01*
X183070727Y-106410896D01*
X183073022Y-106397261D01*
X183075994Y-106386424D01*
X183079728Y-106377675D01*
X183084314Y-106370308D01*
X183089836Y-106363613D01*
X183096384Y-106356881D01*
X183102334Y-106351076D01*
X183117756Y-106337423D01*
X183132377Y-106328334D01*
X183150214Y-106321409D01*
X183154000Y-106320231D01*
X183160891Y-106318224D01*
X183167716Y-106316552D01*
X183175271Y-106315190D01*
X183184353Y-106314113D01*
X183195758Y-106313296D01*
X183210281Y-106312712D01*
X183228720Y-106312337D01*
X183251871Y-106312144D01*
X183280530Y-106312109D01*
X183315493Y-106312206D01*
X183357557Y-106312409D01*
X183392439Y-106312605D01*
X183601783Y-106313817D01*
X183623405Y-106325225D01*
X183649887Y-106343670D01*
X183673114Y-106368631D01*
X183691911Y-106398417D01*
X183705105Y-106431337D01*
X183709338Y-106449003D01*
X183710273Y-106458391D01*
X183711091Y-106475118D01*
X183711793Y-106498197D01*
X183712378Y-106526641D01*
X183712847Y-106559461D01*
X183713199Y-106595669D01*
X183713434Y-106634279D01*
X183713553Y-106674302D01*
X183713555Y-106714750D01*
X183713440Y-106754635D01*
X183713208Y-106792971D01*
X183712860Y-106828769D01*
X183712394Y-106861041D01*
X183711812Y-106888800D01*
X183711112Y-106911058D01*
X183710296Y-106926826D01*
X183709362Y-106935118D01*
X183709360Y-106935125D01*
X183698443Y-106964801D01*
X183681100Y-106989053D01*
X183657626Y-107007546D01*
X183635784Y-107017576D01*
X183630317Y-107019266D01*
X183623918Y-107020681D01*
X183615835Y-107021847D01*
X183605311Y-107022785D01*
X183591592Y-107023521D01*
X183573923Y-107024078D01*
X183551550Y-107024480D01*
X183523718Y-107024751D01*
X183489672Y-107024915D01*
X183448658Y-107024996D01*
X183400700Y-107025017D01*
X183244067Y-107025017D01*
X183244067Y-106840867D01*
X183548866Y-106840867D01*
X183548866Y-106497967D01*
X183244067Y-106497967D01*
X183244067Y-106840867D01*
X183244067Y-107025017D01*
X183186917Y-107025017D01*
X183160525Y-107012827D01*
X183131255Y-106994770D01*
X183106488Y-106970213D01*
X183087070Y-106940293D01*
X183073846Y-106906147D01*
X183070532Y-106891838D01*
X183069608Y-106882632D01*
X183068773Y-106865633D01*
X183068038Y-106841512D01*
X183067414Y-106810942D01*
X183066914Y-106774596D01*
X183066548Y-106733146D01*
X183066329Y-106687265D01*
X183066267Y-106644208D01*
X183066270Y-106591146D01*
X183066270Y-106591146D01*
G37*
X183066270Y-106591146D02*
X183066340Y-106545843D01*
X183066563Y-106507589D01*
X183067025Y-106475676D01*
X183067816Y-106449395D01*
X183069020Y-106428038D01*
X183070727Y-106410896D01*
X183073022Y-106397261D01*
X183075994Y-106386424D01*
X183079728Y-106377675D01*
X183084314Y-106370308D01*
X183089836Y-106363613D01*
X183096384Y-106356881D01*
X183102334Y-106351076D01*
X183117756Y-106337423D01*
X183132377Y-106328334D01*
X183150214Y-106321409D01*
X183154000Y-106320231D01*
X183160891Y-106318224D01*
X183167716Y-106316552D01*
X183175271Y-106315190D01*
X183184353Y-106314113D01*
X183195758Y-106313296D01*
X183210281Y-106312712D01*
X183228720Y-106312337D01*
X183251871Y-106312144D01*
X183280530Y-106312109D01*
X183315493Y-106312206D01*
X183357557Y-106312409D01*
X183392439Y-106312605D01*
X183601783Y-106313817D01*
X183623405Y-106325225D01*
X183649887Y-106343670D01*
X183673114Y-106368631D01*
X183691911Y-106398417D01*
X183705105Y-106431337D01*
X183709338Y-106449003D01*
X183710273Y-106458391D01*
X183711091Y-106475118D01*
X183711793Y-106498197D01*
X183712378Y-106526641D01*
X183712847Y-106559461D01*
X183713199Y-106595669D01*
X183713434Y-106634279D01*
X183713553Y-106674302D01*
X183713555Y-106714750D01*
X183713440Y-106754635D01*
X183713208Y-106792971D01*
X183712860Y-106828769D01*
X183712394Y-106861041D01*
X183711812Y-106888800D01*
X183711112Y-106911058D01*
X183710296Y-106926826D01*
X183709362Y-106935118D01*
X183709360Y-106935125D01*
X183698443Y-106964801D01*
X183681100Y-106989053D01*
X183657626Y-107007546D01*
X183635784Y-107017576D01*
X183630317Y-107019266D01*
X183623918Y-107020681D01*
X183615835Y-107021847D01*
X183605311Y-107022785D01*
X183591592Y-107023521D01*
X183573923Y-107024078D01*
X183551550Y-107024480D01*
X183523718Y-107024751D01*
X183489672Y-107024915D01*
X183448658Y-107024996D01*
X183400700Y-107025017D01*
X183244067Y-107025017D01*
X183244067Y-106840867D01*
X183548866Y-106840867D01*
X183548866Y-106497967D01*
X183244067Y-106497967D01*
X183244067Y-106840867D01*
X183244067Y-107025017D01*
X183186917Y-107025017D01*
X183160525Y-107012827D01*
X183131255Y-106994770D01*
X183106488Y-106970213D01*
X183087070Y-106940293D01*
X183073846Y-106906147D01*
X183070532Y-106891838D01*
X183069608Y-106882632D01*
X183068773Y-106865633D01*
X183068038Y-106841512D01*
X183067414Y-106810942D01*
X183066914Y-106774596D01*
X183066548Y-106733146D01*
X183066329Y-106687265D01*
X183066267Y-106644208D01*
X183066270Y-106591146D01*
G36*
X183066285Y-105277768D02*
X183066350Y-105226710D01*
X183066474Y-105182903D01*
X183066668Y-105145741D01*
X183066946Y-105114615D01*
X183067320Y-105088917D01*
X183067802Y-105068042D01*
X183068405Y-105051380D01*
X183069142Y-105038324D01*
X183070025Y-105028268D01*
X183071066Y-105020602D01*
X183072278Y-105014721D01*
X183072936Y-105012313D01*
X183084359Y-104987814D01*
X183102822Y-104965384D01*
X183126914Y-104946515D01*
X183143591Y-104937474D01*
X183169983Y-104925284D01*
X183441975Y-104924078D01*
X183713966Y-104922872D01*
X183713966Y-105105201D01*
X183244067Y-105105201D01*
X183244067Y-105452334D01*
X183713966Y-105452334D01*
X183713966Y-105638601D01*
X183066267Y-105638601D01*
X183066267Y-105336686D01*
X183066285Y-105277768D01*
X183066285Y-105277768D01*
G37*
X183066285Y-105277768D02*
X183066350Y-105226710D01*
X183066474Y-105182903D01*
X183066668Y-105145741D01*
X183066946Y-105114615D01*
X183067320Y-105088917D01*
X183067802Y-105068042D01*
X183068405Y-105051380D01*
X183069142Y-105038324D01*
X183070025Y-105028268D01*
X183071066Y-105020602D01*
X183072278Y-105014721D01*
X183072936Y-105012313D01*
X183084359Y-104987814D01*
X183102822Y-104965384D01*
X183126914Y-104946515D01*
X183143591Y-104937474D01*
X183169983Y-104925284D01*
X183441975Y-104924078D01*
X183713966Y-104922872D01*
X183713966Y-105105201D01*
X183244067Y-105105201D01*
X183244067Y-105452334D01*
X183713966Y-105452334D01*
X183713966Y-105638601D01*
X183066267Y-105638601D01*
X183066267Y-105336686D01*
X183066285Y-105277768D01*
G36*
X183536166Y-104305100D02*
X183536166Y-103957967D01*
X183066267Y-103957967D01*
X183066267Y-103775934D01*
X183713966Y-103775934D01*
X183713966Y-103957967D01*
X183694916Y-103957967D01*
X183683552Y-103958447D01*
X183676738Y-103959660D01*
X183675866Y-103960379D01*
X183678078Y-103964922D01*
X183683775Y-103974079D01*
X183689145Y-103982091D01*
X183695006Y-103990850D01*
X183699864Y-103999115D01*
X183703811Y-104007752D01*
X183706937Y-104017624D01*
X183709335Y-104029595D01*
X183711097Y-104044530D01*
X183712315Y-104063293D01*
X183713081Y-104086749D01*
X183713486Y-104115761D01*
X183713622Y-104151194D01*
X183713582Y-104193913D01*
X183713541Y-104211582D01*
X183713357Y-104249561D01*
X183713010Y-104285421D01*
X183712522Y-104318158D01*
X183711918Y-104346770D01*
X183711217Y-104370252D01*
X183710444Y-104387600D01*
X183709621Y-104397813D01*
X183709345Y-104399430D01*
X183698688Y-104427146D01*
X183680845Y-104450418D01*
X183655877Y-104469180D01*
X183635145Y-104479214D01*
X183610250Y-104489250D01*
X183338258Y-104490484D01*
X183066267Y-104491717D01*
X183066267Y-104305100D01*
X183536166Y-104305100D01*
X183536166Y-104305100D01*
G37*
X183536166Y-104305100D02*
X183536166Y-103957967D01*
X183066267Y-103957967D01*
X183066267Y-103775934D01*
X183713966Y-103775934D01*
X183713966Y-103957967D01*
X183694916Y-103957967D01*
X183683552Y-103958447D01*
X183676738Y-103959660D01*
X183675866Y-103960379D01*
X183678078Y-103964922D01*
X183683775Y-103974079D01*
X183689145Y-103982091D01*
X183695006Y-103990850D01*
X183699864Y-103999115D01*
X183703811Y-104007752D01*
X183706937Y-104017624D01*
X183709335Y-104029595D01*
X183711097Y-104044530D01*
X183712315Y-104063293D01*
X183713081Y-104086749D01*
X183713486Y-104115761D01*
X183713622Y-104151194D01*
X183713582Y-104193913D01*
X183713541Y-104211582D01*
X183713357Y-104249561D01*
X183713010Y-104285421D01*
X183712522Y-104318158D01*
X183711918Y-104346770D01*
X183711217Y-104370252D01*
X183710444Y-104387600D01*
X183709621Y-104397813D01*
X183709345Y-104399430D01*
X183698688Y-104427146D01*
X183680845Y-104450418D01*
X183655877Y-104469180D01*
X183635145Y-104479214D01*
X183610250Y-104489250D01*
X183338258Y-104490484D01*
X183066267Y-104491717D01*
X183066267Y-104305100D01*
X183536166Y-104305100D01*
G36*
X183066267Y-103157867D02*
X183066267Y-102975834D01*
X183244067Y-102975834D01*
X183244067Y-103157974D01*
X183395408Y-103156862D01*
X183546750Y-103155750D01*
X183547892Y-103065792D01*
X183549035Y-102975834D01*
X183713966Y-102975834D01*
X183713533Y-103106009D01*
X183713321Y-103138980D01*
X183712927Y-103169713D01*
X183712384Y-103197049D01*
X183711719Y-103219828D01*
X183710964Y-103236892D01*
X183710148Y-103247080D01*
X183709835Y-103248884D01*
X183698394Y-103278575D01*
X183680985Y-103302774D01*
X183658120Y-103320848D01*
X183646713Y-103326590D01*
X183638765Y-103329694D01*
X183629892Y-103332412D01*
X183619517Y-103334772D01*
X183607060Y-103336796D01*
X183591942Y-103338511D01*
X183573584Y-103339940D01*
X183551407Y-103341110D01*
X183524832Y-103342044D01*
X183493280Y-103342768D01*
X183456172Y-103343306D01*
X183412929Y-103343683D01*
X183362972Y-103343924D01*
X183305721Y-103344055D01*
X183240599Y-103344099D01*
X183238775Y-103344099D01*
X182926567Y-103344134D01*
X182926567Y-103157867D01*
X183066267Y-103157867D01*
X183066267Y-103157867D01*
G37*
X183066267Y-103157867D02*
X183066267Y-102975834D01*
X183244067Y-102975834D01*
X183244067Y-103157974D01*
X183395408Y-103156862D01*
X183546750Y-103155750D01*
X183547892Y-103065792D01*
X183549035Y-102975834D01*
X183713966Y-102975834D01*
X183713533Y-103106009D01*
X183713321Y-103138980D01*
X183712927Y-103169713D01*
X183712384Y-103197049D01*
X183711719Y-103219828D01*
X183710964Y-103236892D01*
X183710148Y-103247080D01*
X183709835Y-103248884D01*
X183698394Y-103278575D01*
X183680985Y-103302774D01*
X183658120Y-103320848D01*
X183646713Y-103326590D01*
X183638765Y-103329694D01*
X183629892Y-103332412D01*
X183619517Y-103334772D01*
X183607060Y-103336796D01*
X183591942Y-103338511D01*
X183573584Y-103339940D01*
X183551407Y-103341110D01*
X183524832Y-103342044D01*
X183493280Y-103342768D01*
X183456172Y-103343306D01*
X183412929Y-103343683D01*
X183362972Y-103343924D01*
X183305721Y-103344055D01*
X183240599Y-103344099D01*
X183238775Y-103344099D01*
X182926567Y-103344134D01*
X182926567Y-103157867D01*
X183066267Y-103157867D01*
G36*
X182522501Y-103056540D02*
X182523445Y-103041581D01*
X182525556Y-103030029D01*
X182529271Y-103019356D01*
X182534214Y-103008687D01*
X182551301Y-102981708D01*
X182573832Y-102957661D01*
X182599462Y-102938888D01*
X182609057Y-102933845D01*
X182621356Y-102928607D01*
X182632856Y-102925350D01*
X182646229Y-102923631D01*
X182664150Y-102923005D01*
X182674683Y-102922963D01*
X182695040Y-102923223D01*
X182709498Y-102924261D01*
X182720619Y-102926546D01*
X182730966Y-102930543D01*
X182739393Y-102934753D01*
X182769391Y-102954180D01*
X182792689Y-102977809D01*
X182807162Y-103000240D01*
X182820446Y-103033423D01*
X182826088Y-103067537D01*
X182824462Y-103101415D01*
X182815943Y-103133887D01*
X182800906Y-103163787D01*
X182779726Y-103189946D01*
X182752778Y-103211196D01*
X182736681Y-103219884D01*
X182710755Y-103231950D01*
X182710739Y-104398234D01*
X182710724Y-105564517D01*
X182898020Y-105675113D01*
X183085317Y-105785709D01*
X183086444Y-105895530D01*
X183086640Y-105925212D01*
X183086611Y-105952074D01*
X183086374Y-105974963D01*
X183085948Y-105992729D01*
X183085350Y-106004219D01*
X183084680Y-106008243D01*
X183079375Y-106009573D01*
X183067790Y-106010581D01*
X183052113Y-106011099D01*
X183046595Y-106011134D01*
X183011402Y-106011134D01*
X183010259Y-105921194D01*
X183009117Y-105831254D01*
X182667874Y-105630556D01*
X182667874Y-103155449D01*
X182691573Y-103152995D01*
X182715232Y-103142207D01*
X182716771Y-103141203D01*
X182733107Y-103125557D01*
X182743916Y-103105161D01*
X182748724Y-103082060D01*
X182747054Y-103058301D01*
X182740418Y-103039565D01*
X182726278Y-103020015D01*
X182708017Y-103006667D01*
X182687200Y-102999511D01*
X182665391Y-102998538D01*
X182644155Y-103003737D01*
X182625057Y-103015101D01*
X182609662Y-103032618D01*
X182605346Y-103040391D01*
X182597296Y-103065583D01*
X182597300Y-103090204D01*
X182605145Y-103113115D01*
X182620617Y-103133174D01*
X182623197Y-103135530D01*
X182644845Y-103149613D01*
X182667874Y-103155449D01*
X182667874Y-105630556D01*
X182634767Y-105611084D01*
X182634617Y-104421023D01*
X182634466Y-103230963D01*
X182613425Y-103222218D01*
X182590762Y-103209327D01*
X182568383Y-103190453D01*
X182548612Y-103167833D01*
X182535603Y-103147353D01*
X182529558Y-103135207D01*
X182525682Y-103124972D01*
X182523496Y-103114137D01*
X182522523Y-103100194D01*
X182522285Y-103080633D01*
X182522283Y-103077434D01*
X182522501Y-103056540D01*
X182522501Y-103056540D01*
G37*
X182522501Y-103056540D02*
X182523445Y-103041581D01*
X182525556Y-103030029D01*
X182529271Y-103019356D01*
X182534214Y-103008687D01*
X182551301Y-102981708D01*
X182573832Y-102957661D01*
X182599462Y-102938888D01*
X182609057Y-102933845D01*
X182621356Y-102928607D01*
X182632856Y-102925350D01*
X182646229Y-102923631D01*
X182664150Y-102923005D01*
X182674683Y-102922963D01*
X182695040Y-102923223D01*
X182709498Y-102924261D01*
X182720619Y-102926546D01*
X182730966Y-102930543D01*
X182739393Y-102934753D01*
X182769391Y-102954180D01*
X182792689Y-102977809D01*
X182807162Y-103000240D01*
X182820446Y-103033423D01*
X182826088Y-103067537D01*
X182824462Y-103101415D01*
X182815943Y-103133887D01*
X182800906Y-103163787D01*
X182779726Y-103189946D01*
X182752778Y-103211196D01*
X182736681Y-103219884D01*
X182710755Y-103231950D01*
X182710739Y-104398234D01*
X182710724Y-105564517D01*
X182898020Y-105675113D01*
X183085317Y-105785709D01*
X183086444Y-105895530D01*
X183086640Y-105925212D01*
X183086611Y-105952074D01*
X183086374Y-105974963D01*
X183085948Y-105992729D01*
X183085350Y-106004219D01*
X183084680Y-106008243D01*
X183079375Y-106009573D01*
X183067790Y-106010581D01*
X183052113Y-106011099D01*
X183046595Y-106011134D01*
X183011402Y-106011134D01*
X183010259Y-105921194D01*
X183009117Y-105831254D01*
X182667874Y-105630556D01*
X182667874Y-103155449D01*
X182691573Y-103152995D01*
X182715232Y-103142207D01*
X182716771Y-103141203D01*
X182733107Y-103125557D01*
X182743916Y-103105161D01*
X182748724Y-103082060D01*
X182747054Y-103058301D01*
X182740418Y-103039565D01*
X182726278Y-103020015D01*
X182708017Y-103006667D01*
X182687200Y-102999511D01*
X182665391Y-102998538D01*
X182644155Y-103003737D01*
X182625057Y-103015101D01*
X182609662Y-103032618D01*
X182605346Y-103040391D01*
X182597296Y-103065583D01*
X182597300Y-103090204D01*
X182605145Y-103113115D01*
X182620617Y-103133174D01*
X182623197Y-103135530D01*
X182644845Y-103149613D01*
X182667874Y-103155449D01*
X182667874Y-105630556D01*
X182634767Y-105611084D01*
X182634617Y-104421023D01*
X182634466Y-103230963D01*
X182613425Y-103222218D01*
X182590762Y-103209327D01*
X182568383Y-103190453D01*
X182548612Y-103167833D01*
X182535603Y-103147353D01*
X182529558Y-103135207D01*
X182525682Y-103124972D01*
X182523496Y-103114137D01*
X182522523Y-103100194D01*
X182522285Y-103080633D01*
X182522283Y-103077434D01*
X182522501Y-103056540D01*
G36*
X182527668Y-112780929D02*
X182536221Y-112748604D01*
X182551953Y-112717889D01*
X182568970Y-112696172D01*
X182582411Y-112683069D01*
X182596436Y-112671645D01*
X182608155Y-112664238D01*
X182608827Y-112663925D01*
X182626000Y-112656181D01*
X182626000Y-107722144D01*
X182814383Y-107610907D01*
X183002767Y-107499670D01*
X183002767Y-107323467D01*
X183078967Y-107323467D01*
X183078839Y-107545717D01*
X182706433Y-107765159D01*
X182706433Y-112647013D01*
X182726602Y-112654176D01*
X182760013Y-112670231D01*
X182787732Y-112692499D01*
X182809438Y-112720655D01*
X182824578Y-112753679D01*
X182832183Y-112788565D01*
X182831948Y-112822957D01*
X182824445Y-112855796D01*
X182810246Y-112886025D01*
X182789925Y-112912583D01*
X182764052Y-112934413D01*
X182733201Y-112950456D01*
X182715054Y-112956244D01*
X182682067Y-112961023D01*
X182678399Y-112960670D01*
X182678399Y-112881834D01*
X182703637Y-112877887D01*
X182725512Y-112866460D01*
X182743125Y-112848175D01*
X182752958Y-112830419D01*
X182755978Y-112815386D01*
X182755166Y-112796481D01*
X182751003Y-112777122D01*
X182743967Y-112760725D01*
X182742954Y-112759120D01*
X182727061Y-112742318D01*
X182706461Y-112731015D01*
X182683414Y-112725897D01*
X182660182Y-112727652D01*
X182650139Y-112730920D01*
X182632480Y-112742237D01*
X182617737Y-112759033D01*
X182607198Y-112779001D01*
X182602150Y-112799834D01*
X182602918Y-112815513D01*
X182611787Y-112840010D01*
X182626387Y-112859804D01*
X182645520Y-112873843D01*
X182667991Y-112881077D01*
X182678399Y-112881834D01*
X182678399Y-112960670D01*
X182650048Y-112957934D01*
X182617490Y-112946819D01*
X182615416Y-112945860D01*
X182585280Y-112927437D01*
X182561070Y-112903891D01*
X182542994Y-112876346D01*
X182531263Y-112845922D01*
X182526085Y-112813743D01*
X182527668Y-112780929D01*
X182527668Y-112780929D01*
G37*
X182527668Y-112780929D02*
X182536221Y-112748604D01*
X182551953Y-112717889D01*
X182568970Y-112696172D01*
X182582411Y-112683069D01*
X182596436Y-112671645D01*
X182608155Y-112664238D01*
X182608827Y-112663925D01*
X182626000Y-112656181D01*
X182626000Y-107722144D01*
X182814383Y-107610907D01*
X183002767Y-107499670D01*
X183002767Y-107323467D01*
X183078967Y-107323467D01*
X183078839Y-107545717D01*
X182706433Y-107765159D01*
X182706433Y-112647013D01*
X182726602Y-112654176D01*
X182760013Y-112670231D01*
X182787732Y-112692499D01*
X182809438Y-112720655D01*
X182824578Y-112753679D01*
X182832183Y-112788565D01*
X182831948Y-112822957D01*
X182824445Y-112855796D01*
X182810246Y-112886025D01*
X182789925Y-112912583D01*
X182764052Y-112934413D01*
X182733201Y-112950456D01*
X182715054Y-112956244D01*
X182682067Y-112961023D01*
X182678399Y-112960670D01*
X182678399Y-112881834D01*
X182703637Y-112877887D01*
X182725512Y-112866460D01*
X182743125Y-112848175D01*
X182752958Y-112830419D01*
X182755978Y-112815386D01*
X182755166Y-112796481D01*
X182751003Y-112777122D01*
X182743967Y-112760725D01*
X182742954Y-112759120D01*
X182727061Y-112742318D01*
X182706461Y-112731015D01*
X182683414Y-112725897D01*
X182660182Y-112727652D01*
X182650139Y-112730920D01*
X182632480Y-112742237D01*
X182617737Y-112759033D01*
X182607198Y-112779001D01*
X182602150Y-112799834D01*
X182602918Y-112815513D01*
X182611787Y-112840010D01*
X182626387Y-112859804D01*
X182645520Y-112873843D01*
X182667991Y-112881077D01*
X182678399Y-112881834D01*
X182678399Y-112960670D01*
X182650048Y-112957934D01*
X182617490Y-112946819D01*
X182615416Y-112945860D01*
X182585280Y-112927437D01*
X182561070Y-112903891D01*
X182542994Y-112876346D01*
X182531263Y-112845922D01*
X182526085Y-112813743D01*
X182527668Y-112780929D01*
G36*
X181739161Y-107328585D02*
X181750111Y-107297537D01*
X181767531Y-107269277D01*
X181791336Y-107245035D01*
X181801532Y-107237473D01*
X181832614Y-107221087D01*
X181865205Y-107212329D01*
X181898155Y-107210861D01*
X181930313Y-107216346D01*
X181960530Y-107228446D01*
X181987656Y-107246823D01*
X182010541Y-107271139D01*
X182028035Y-107301057D01*
X182029480Y-107304431D01*
X182039124Y-107327700D01*
X182209726Y-107327700D01*
X182385055Y-107147798D01*
X182560383Y-106967896D01*
X182654575Y-106967882D01*
X182748766Y-106967867D01*
X182748766Y-107048300D01*
X182590016Y-107048814D01*
X182414865Y-107228474D01*
X182239713Y-107408134D01*
X182038365Y-107408134D01*
X182025684Y-107435232D01*
X182007349Y-107465321D01*
X181983982Y-107489449D01*
X181956715Y-107507394D01*
X181926683Y-107518933D01*
X181895019Y-107523843D01*
X181890044Y-107523543D01*
X181890044Y-107446234D01*
X181908468Y-107442839D01*
X181927603Y-107433886D01*
X181944055Y-107421225D01*
X181950938Y-107413048D01*
X181958407Y-107396059D01*
X181961901Y-107375002D01*
X181961387Y-107353035D01*
X181956833Y-107333319D01*
X181951841Y-107323424D01*
X181937413Y-107306320D01*
X181920990Y-107295996D01*
X181900038Y-107291012D01*
X181893852Y-107290436D01*
X181877630Y-107289970D01*
X181865658Y-107291970D01*
X181853878Y-107297262D01*
X181850358Y-107299272D01*
X181831742Y-107314606D01*
X181819073Y-107334230D01*
X181812563Y-107356406D01*
X181812427Y-107379398D01*
X181818876Y-107401470D01*
X181832124Y-107420884D01*
X181835080Y-107423807D01*
X181851294Y-107435019D01*
X181870934Y-107443075D01*
X181889725Y-107446233D01*
X181890044Y-107446234D01*
X181890044Y-107523543D01*
X181862857Y-107521901D01*
X181831332Y-107512885D01*
X181801576Y-107496571D01*
X181784463Y-107482646D01*
X181761778Y-107456087D01*
X181745990Y-107426172D01*
X181737015Y-107394131D01*
X181734768Y-107361192D01*
X181739161Y-107328585D01*
X181739161Y-107328585D01*
G37*
X181739161Y-107328585D02*
X181750111Y-107297537D01*
X181767531Y-107269277D01*
X181791336Y-107245035D01*
X181801532Y-107237473D01*
X181832614Y-107221087D01*
X181865205Y-107212329D01*
X181898155Y-107210861D01*
X181930313Y-107216346D01*
X181960530Y-107228446D01*
X181987656Y-107246823D01*
X182010541Y-107271139D01*
X182028035Y-107301057D01*
X182029480Y-107304431D01*
X182039124Y-107327700D01*
X182209726Y-107327700D01*
X182385055Y-107147798D01*
X182560383Y-106967896D01*
X182654575Y-106967882D01*
X182748766Y-106967867D01*
X182748766Y-107048300D01*
X182590016Y-107048814D01*
X182414865Y-107228474D01*
X182239713Y-107408134D01*
X182038365Y-107408134D01*
X182025684Y-107435232D01*
X182007349Y-107465321D01*
X181983982Y-107489449D01*
X181956715Y-107507394D01*
X181926683Y-107518933D01*
X181895019Y-107523843D01*
X181890044Y-107523543D01*
X181890044Y-107446234D01*
X181908468Y-107442839D01*
X181927603Y-107433886D01*
X181944055Y-107421225D01*
X181950938Y-107413048D01*
X181958407Y-107396059D01*
X181961901Y-107375002D01*
X181961387Y-107353035D01*
X181956833Y-107333319D01*
X181951841Y-107323424D01*
X181937413Y-107306320D01*
X181920990Y-107295996D01*
X181900038Y-107291012D01*
X181893852Y-107290436D01*
X181877630Y-107289970D01*
X181865658Y-107291970D01*
X181853878Y-107297262D01*
X181850358Y-107299272D01*
X181831742Y-107314606D01*
X181819073Y-107334230D01*
X181812563Y-107356406D01*
X181812427Y-107379398D01*
X181818876Y-107401470D01*
X181832124Y-107420884D01*
X181835080Y-107423807D01*
X181851294Y-107435019D01*
X181870934Y-107443075D01*
X181889725Y-107446233D01*
X181890044Y-107446234D01*
X181890044Y-107523543D01*
X181862857Y-107521901D01*
X181831332Y-107512885D01*
X181801576Y-107496571D01*
X181784463Y-107482646D01*
X181761778Y-107456087D01*
X181745990Y-107426172D01*
X181737015Y-107394131D01*
X181734768Y-107361192D01*
X181739161Y-107328585D01*
G36*
X181739539Y-105914564D02*
X181752062Y-105882826D01*
X181771252Y-105854311D01*
X181796512Y-105830240D01*
X181818191Y-105816309D01*
X181833476Y-105808778D01*
X181846836Y-105804194D01*
X181861774Y-105801664D01*
X181880933Y-105800337D01*
X181901580Y-105799894D01*
X181917281Y-105801118D01*
X181931465Y-105804437D01*
X181941405Y-105807887D01*
X181968606Y-105822142D01*
X181993764Y-105842786D01*
X182014714Y-105867744D01*
X182027483Y-105890531D01*
X182039451Y-105918001D01*
X182243763Y-105918001D01*
X182416890Y-106095745D01*
X182590016Y-106273490D01*
X182669391Y-106273545D01*
X182748766Y-106273601D01*
X182748766Y-106354034D01*
X182559710Y-106354034D01*
X182384451Y-106174117D01*
X182209192Y-105994201D01*
X182039124Y-105994201D01*
X182029480Y-106017470D01*
X182014161Y-106044775D01*
X181992556Y-106069876D01*
X181966848Y-106090428D01*
X181955457Y-106097084D01*
X181942395Y-106103520D01*
X181931426Y-106107510D01*
X181919722Y-106109632D01*
X181904454Y-106110465D01*
X181889400Y-106110591D01*
X181883227Y-106110496D01*
X181883227Y-106034579D01*
X181905781Y-106032449D01*
X181929113Y-106022719D01*
X181946006Y-106007696D01*
X181956628Y-105987135D01*
X181961152Y-105960794D01*
X181961351Y-105953073D01*
X181961055Y-105936654D01*
X181959573Y-105925796D01*
X181956044Y-105917597D01*
X181949606Y-105909157D01*
X181947644Y-105906900D01*
X181931010Y-105892177D01*
X181911530Y-105881407D01*
X181892206Y-105876134D01*
X181887283Y-105875853D01*
X181865457Y-105879858D01*
X181845285Y-105890962D01*
X181828394Y-105907796D01*
X181816410Y-105928992D01*
X181813470Y-105937950D01*
X181811254Y-105960999D01*
X181816164Y-105982897D01*
X181827009Y-106002425D01*
X181842595Y-106018361D01*
X181861732Y-106029486D01*
X181883227Y-106034579D01*
X181883227Y-106110496D01*
X181868923Y-106110274D01*
X181854069Y-106108962D01*
X181842009Y-106106162D01*
X181829916Y-106101378D01*
X181825900Y-106099503D01*
X181794406Y-106080073D01*
X181769116Y-106054954D01*
X181750289Y-106024484D01*
X181738183Y-105989002D01*
X181736875Y-105982823D01*
X181734277Y-105948303D01*
X181739539Y-105914564D01*
X181739539Y-105914564D01*
G37*
X181739539Y-105914564D02*
X181752062Y-105882826D01*
X181771252Y-105854311D01*
X181796512Y-105830240D01*
X181818191Y-105816309D01*
X181833476Y-105808778D01*
X181846836Y-105804194D01*
X181861774Y-105801664D01*
X181880933Y-105800337D01*
X181901580Y-105799894D01*
X181917281Y-105801118D01*
X181931465Y-105804437D01*
X181941405Y-105807887D01*
X181968606Y-105822142D01*
X181993764Y-105842786D01*
X182014714Y-105867744D01*
X182027483Y-105890531D01*
X182039451Y-105918001D01*
X182243763Y-105918001D01*
X182416890Y-106095745D01*
X182590016Y-106273490D01*
X182669391Y-106273545D01*
X182748766Y-106273601D01*
X182748766Y-106354034D01*
X182559710Y-106354034D01*
X182384451Y-106174117D01*
X182209192Y-105994201D01*
X182039124Y-105994201D01*
X182029480Y-106017470D01*
X182014161Y-106044775D01*
X181992556Y-106069876D01*
X181966848Y-106090428D01*
X181955457Y-106097084D01*
X181942395Y-106103520D01*
X181931426Y-106107510D01*
X181919722Y-106109632D01*
X181904454Y-106110465D01*
X181889400Y-106110591D01*
X181883227Y-106110496D01*
X181883227Y-106034579D01*
X181905781Y-106032449D01*
X181929113Y-106022719D01*
X181946006Y-106007696D01*
X181956628Y-105987135D01*
X181961152Y-105960794D01*
X181961351Y-105953073D01*
X181961055Y-105936654D01*
X181959573Y-105925796D01*
X181956044Y-105917597D01*
X181949606Y-105909157D01*
X181947644Y-105906900D01*
X181931010Y-105892177D01*
X181911530Y-105881407D01*
X181892206Y-105876134D01*
X181887283Y-105875853D01*
X181865457Y-105879858D01*
X181845285Y-105890962D01*
X181828394Y-105907796D01*
X181816410Y-105928992D01*
X181813470Y-105937950D01*
X181811254Y-105960999D01*
X181816164Y-105982897D01*
X181827009Y-106002425D01*
X181842595Y-106018361D01*
X181861732Y-106029486D01*
X181883227Y-106034579D01*
X181883227Y-106110496D01*
X181868923Y-106110274D01*
X181854069Y-106108962D01*
X181842009Y-106106162D01*
X181829916Y-106101378D01*
X181825900Y-106099503D01*
X181794406Y-106080073D01*
X181769116Y-106054954D01*
X181750289Y-106024484D01*
X181738183Y-105989002D01*
X181736875Y-105982823D01*
X181734277Y-105948303D01*
X181739539Y-105914564D01*
G36*
X181737112Y-106643217D02*
X181743869Y-106612024D01*
X181756775Y-106582534D01*
X181775833Y-106555822D01*
X181801045Y-106532966D01*
X181824984Y-106518508D01*
X181835590Y-106513858D01*
X181846289Y-106510910D01*
X181859462Y-106509299D01*
X181877489Y-106508656D01*
X181889400Y-106508584D01*
X181910103Y-106508767D01*
X181924774Y-106509639D01*
X181935845Y-106511631D01*
X181945747Y-106515173D01*
X181956445Y-106520451D01*
X181985924Y-106540505D01*
X182010479Y-106566467D01*
X182027648Y-106594784D01*
X182039683Y-106620646D01*
X182744533Y-106620734D01*
X182744533Y-106701167D01*
X182039124Y-106701167D01*
X182029397Y-106724637D01*
X182013739Y-106752532D01*
X181991856Y-106777667D01*
X181965920Y-106797778D01*
X181952017Y-106805285D01*
X181937518Y-106811463D01*
X181924911Y-106815145D01*
X181910999Y-106816930D01*
X181892585Y-106817418D01*
X181888906Y-106817413D01*
X181888906Y-106739053D01*
X181907388Y-106737732D01*
X181921981Y-106733542D01*
X181922418Y-106733319D01*
X181942624Y-106718401D01*
X181956683Y-106698734D01*
X181964099Y-106675881D01*
X181964375Y-106651399D01*
X181957014Y-106626848D01*
X181956620Y-106626024D01*
X181943068Y-106606265D01*
X181925645Y-106592858D01*
X181905762Y-106585539D01*
X181884832Y-106584046D01*
X181864268Y-106588114D01*
X181845483Y-106597482D01*
X181829888Y-106611885D01*
X181818897Y-106631061D01*
X181814073Y-106652594D01*
X181813479Y-106667739D01*
X181814064Y-106681017D01*
X181814870Y-106686077D01*
X181820622Y-106698146D01*
X181831080Y-106711916D01*
X181843788Y-106724574D01*
X181855951Y-106733133D01*
X181870454Y-106737517D01*
X181888906Y-106739053D01*
X181888906Y-106817413D01*
X181887283Y-106817410D01*
X181867110Y-106816926D01*
X181852339Y-106815312D01*
X181839921Y-106811995D01*
X181826810Y-106806402D01*
X181825583Y-106805811D01*
X181795490Y-106787021D01*
X181771534Y-106763471D01*
X181753716Y-106736239D01*
X181742038Y-106706402D01*
X181736502Y-106675035D01*
X181737112Y-106643217D01*
X181737112Y-106643217D01*
G37*
X181737112Y-106643217D02*
X181743869Y-106612024D01*
X181756775Y-106582534D01*
X181775833Y-106555822D01*
X181801045Y-106532966D01*
X181824984Y-106518508D01*
X181835590Y-106513858D01*
X181846289Y-106510910D01*
X181859462Y-106509299D01*
X181877489Y-106508656D01*
X181889400Y-106508584D01*
X181910103Y-106508767D01*
X181924774Y-106509639D01*
X181935845Y-106511631D01*
X181945747Y-106515173D01*
X181956445Y-106520451D01*
X181985924Y-106540505D01*
X182010479Y-106566467D01*
X182027648Y-106594784D01*
X182039683Y-106620646D01*
X182744533Y-106620734D01*
X182744533Y-106701167D01*
X182039124Y-106701167D01*
X182029397Y-106724637D01*
X182013739Y-106752532D01*
X181991856Y-106777667D01*
X181965920Y-106797778D01*
X181952017Y-106805285D01*
X181937518Y-106811463D01*
X181924911Y-106815145D01*
X181910999Y-106816930D01*
X181892585Y-106817418D01*
X181888906Y-106817413D01*
X181888906Y-106739053D01*
X181907388Y-106737732D01*
X181921981Y-106733542D01*
X181922418Y-106733319D01*
X181942624Y-106718401D01*
X181956683Y-106698734D01*
X181964099Y-106675881D01*
X181964375Y-106651399D01*
X181957014Y-106626848D01*
X181956620Y-106626024D01*
X181943068Y-106606265D01*
X181925645Y-106592858D01*
X181905762Y-106585539D01*
X181884832Y-106584046D01*
X181864268Y-106588114D01*
X181845483Y-106597482D01*
X181829888Y-106611885D01*
X181818897Y-106631061D01*
X181814073Y-106652594D01*
X181813479Y-106667739D01*
X181814064Y-106681017D01*
X181814870Y-106686077D01*
X181820622Y-106698146D01*
X181831080Y-106711916D01*
X181843788Y-106724574D01*
X181855951Y-106733133D01*
X181870454Y-106737517D01*
X181888906Y-106739053D01*
X181888906Y-106817413D01*
X181887283Y-106817410D01*
X181867110Y-106816926D01*
X181852339Y-106815312D01*
X181839921Y-106811995D01*
X181826810Y-106806402D01*
X181825583Y-106805811D01*
X181795490Y-106787021D01*
X181771534Y-106763471D01*
X181753716Y-106736239D01*
X181742038Y-106706402D01*
X181736502Y-106675035D01*
X181737112Y-106643217D01*
G36*
X184657816Y-104626231D02*
X184662686Y-104622259D01*
X184669090Y-104616521D01*
X184669316Y-104611256D01*
X184665445Y-104604628D01*
X184661155Y-104596707D01*
X184662375Y-104591046D01*
X184667571Y-104585277D01*
X184673531Y-104578592D01*
X184673614Y-104573811D01*
X184668484Y-104567458D01*
X184663337Y-104560619D01*
X184664176Y-104556522D01*
X184666635Y-104554674D01*
X184674646Y-104551012D01*
X184679172Y-104553715D01*
X184680697Y-104556984D01*
X184686310Y-104562668D01*
X184694447Y-104561711D01*
X184700618Y-104556640D01*
X184704023Y-104549669D01*
X184701028Y-104541707D01*
X184700894Y-104541492D01*
X184697798Y-104533149D01*
X184700538Y-104527103D01*
X184704960Y-104523900D01*
X184709906Y-104526895D01*
X184713122Y-104530610D01*
X184720781Y-104540050D01*
X184731717Y-104529794D01*
X184738695Y-104522573D01*
X184739902Y-104517743D01*
X184735996Y-104512182D01*
X184735535Y-104511670D01*
X184730814Y-104505183D01*
X184732224Y-104500233D01*
X184735128Y-104497092D01*
X184740600Y-104492872D01*
X184744416Y-104495484D01*
X184746636Y-104499340D01*
X184751735Y-104506590D01*
X184757400Y-104507107D01*
X184765633Y-104501865D01*
X184771014Y-104496453D01*
X184770646Y-104490351D01*
X184768047Y-104484981D01*
X184764562Y-104476220D01*
X184766330Y-104470531D01*
X184767709Y-104469057D01*
X184772704Y-104466642D01*
X184777870Y-104470983D01*
X184779534Y-104473322D01*
X184785961Y-104482793D01*
X184809961Y-104465703D01*
X184814563Y-104474302D01*
X184821094Y-104481757D01*
X184829110Y-104481261D01*
X184836437Y-104475974D01*
X184842380Y-104471385D01*
X184845386Y-104472874D01*
X184846808Y-104476132D01*
X184846190Y-104484798D01*
X184841872Y-104491674D01*
X184836938Y-104498040D01*
X184837564Y-104502869D01*
X184843326Y-104509241D01*
X184850164Y-104515236D01*
X184855027Y-104515363D01*
X184860443Y-104511102D01*
X184866858Y-104506297D01*
X184871254Y-104507539D01*
X184874143Y-104510710D01*
X184877295Y-104516524D01*
X184874197Y-104521690D01*
X184870679Y-104524575D01*
X184864626Y-104529865D01*
X184864283Y-104534422D01*
X184869402Y-104541923D01*
X184869505Y-104542058D01*
X184875394Y-104549038D01*
X184879777Y-104549729D01*
X184886236Y-104544613D01*
X184886534Y-104544343D01*
X184893457Y-104539105D01*
X184897587Y-104539830D01*
X184899493Y-104542335D01*
X184903197Y-104551023D01*
X184900100Y-104556182D01*
X184897183Y-104557570D01*
X184891408Y-104562930D01*
X184893114Y-104570963D01*
X184899300Y-104578150D01*
X184906032Y-104583250D01*
X184911126Y-104582410D01*
X184915626Y-104578700D01*
X184922051Y-104574030D01*
X184926537Y-104575501D01*
X184928825Y-104578020D01*
X184931552Y-104583690D01*
X184928016Y-104589270D01*
X184924881Y-104591969D01*
X184915599Y-104599486D01*
X184924140Y-104610344D01*
X184932682Y-104621203D01*
X184924033Y-104629853D01*
X184918272Y-104637348D01*
X184918716Y-104644352D01*
X184920434Y-104647939D01*
X184923170Y-104657764D01*
X184920124Y-104663057D01*
X184913023Y-104662323D01*
X184907946Y-104658746D01*
X184900761Y-104653711D01*
X184894807Y-104654823D01*
X184891971Y-104656802D01*
X184885350Y-104661801D01*
X184882851Y-104663604D01*
X184883734Y-104667435D01*
X184888125Y-104675207D01*
X184888291Y-104675461D01*
X184892758Y-104683224D01*
X184892219Y-104686990D01*
X184888706Y-104688807D01*
X184880654Y-104688233D01*
X184874562Y-104684583D01*
X184868193Y-104680166D01*
X184862213Y-104681433D01*
X184857786Y-104684310D01*
X184849727Y-104692977D01*
X184850098Y-104701682D01*
X184855117Y-104707489D01*
X184859508Y-104712256D01*
X184856777Y-104715708D01*
X184854813Y-104716855D01*
X184846188Y-104717731D01*
X184840548Y-104714084D01*
X184834374Y-104709780D01*
X184828539Y-104710961D01*
X184823694Y-104714101D01*
X184817266Y-104719632D01*
X184817335Y-104725032D01*
X184820600Y-104730561D01*
X184824603Y-104738499D01*
X184823006Y-104743534D01*
X184821469Y-104744964D01*
X184815584Y-104746729D01*
X184808594Y-104741474D01*
X184808210Y-104741053D01*
X184800502Y-104732536D01*
X184791163Y-104741309D01*
X184781824Y-104750083D01*
X184773210Y-104738257D01*
X184767129Y-104730572D01*
X184762829Y-104729098D01*
X184757160Y-104733167D01*
X184755648Y-104734529D01*
X184747931Y-104739722D01*
X184742410Y-104738300D01*
X184741820Y-104737747D01*
X184739544Y-104732186D01*
X184744037Y-104725026D01*
X184750279Y-104715710D01*
X184749101Y-104707930D01*
X184743429Y-104701607D01*
X184736553Y-104697016D01*
X184730189Y-104698791D01*
X184727566Y-104700601D01*
X184719193Y-104704201D01*
X184713962Y-104702048D01*
X184711183Y-104697437D01*
X184714525Y-104691256D01*
X184716877Y-104688632D01*
X184722371Y-104681977D01*
X184722433Y-104676816D01*
X184717342Y-104669268D01*
X184711503Y-104662286D01*
X184707131Y-104661615D01*
X184700640Y-104666773D01*
X184700399Y-104666991D01*
X184693457Y-104672213D01*
X184689336Y-104671440D01*
X184687589Y-104669096D01*
X184686954Y-104660842D01*
X184689964Y-104656231D01*
X184695370Y-104648195D01*
X184694128Y-104641029D01*
X184689063Y-104634541D01*
X184683174Y-104629290D01*
X184678145Y-104630513D01*
X184674325Y-104633734D01*
X184667438Y-104638270D01*
X184661486Y-104636365D01*
X184659867Y-104635093D01*
X184655790Y-104630499D01*
X184657816Y-104626231D01*
X184657816Y-104626231D01*
G37*
X184657816Y-104626231D02*
X184662686Y-104622259D01*
X184669090Y-104616521D01*
X184669316Y-104611256D01*
X184665445Y-104604628D01*
X184661155Y-104596707D01*
X184662375Y-104591046D01*
X184667571Y-104585277D01*
X184673531Y-104578592D01*
X184673614Y-104573811D01*
X184668484Y-104567458D01*
X184663337Y-104560619D01*
X184664176Y-104556522D01*
X184666635Y-104554674D01*
X184674646Y-104551012D01*
X184679172Y-104553715D01*
X184680697Y-104556984D01*
X184686310Y-104562668D01*
X184694447Y-104561711D01*
X184700618Y-104556640D01*
X184704023Y-104549669D01*
X184701028Y-104541707D01*
X184700894Y-104541492D01*
X184697798Y-104533149D01*
X184700538Y-104527103D01*
X184704960Y-104523900D01*
X184709906Y-104526895D01*
X184713122Y-104530610D01*
X184720781Y-104540050D01*
X184731717Y-104529794D01*
X184738695Y-104522573D01*
X184739902Y-104517743D01*
X184735996Y-104512182D01*
X184735535Y-104511670D01*
X184730814Y-104505183D01*
X184732224Y-104500233D01*
X184735128Y-104497092D01*
X184740600Y-104492872D01*
X184744416Y-104495484D01*
X184746636Y-104499340D01*
X184751735Y-104506590D01*
X184757400Y-104507107D01*
X184765633Y-104501865D01*
X184771014Y-104496453D01*
X184770646Y-104490351D01*
X184768047Y-104484981D01*
X184764562Y-104476220D01*
X184766330Y-104470531D01*
X184767709Y-104469057D01*
X184772704Y-104466642D01*
X184777870Y-104470983D01*
X184779534Y-104473322D01*
X184785961Y-104482793D01*
X184809961Y-104465703D01*
X184814563Y-104474302D01*
X184821094Y-104481757D01*
X184829110Y-104481261D01*
X184836437Y-104475974D01*
X184842380Y-104471385D01*
X184845386Y-104472874D01*
X184846808Y-104476132D01*
X184846190Y-104484798D01*
X184841872Y-104491674D01*
X184836938Y-104498040D01*
X184837564Y-104502869D01*
X184843326Y-104509241D01*
X184850164Y-104515236D01*
X184855027Y-104515363D01*
X184860443Y-104511102D01*
X184866858Y-104506297D01*
X184871254Y-104507539D01*
X184874143Y-104510710D01*
X184877295Y-104516524D01*
X184874197Y-104521690D01*
X184870679Y-104524575D01*
X184864626Y-104529865D01*
X184864283Y-104534422D01*
X184869402Y-104541923D01*
X184869505Y-104542058D01*
X184875394Y-104549038D01*
X184879777Y-104549729D01*
X184886236Y-104544613D01*
X184886534Y-104544343D01*
X184893457Y-104539105D01*
X184897587Y-104539830D01*
X184899493Y-104542335D01*
X184903197Y-104551023D01*
X184900100Y-104556182D01*
X184897183Y-104557570D01*
X184891408Y-104562930D01*
X184893114Y-104570963D01*
X184899300Y-104578150D01*
X184906032Y-104583250D01*
X184911126Y-104582410D01*
X184915626Y-104578700D01*
X184922051Y-104574030D01*
X184926537Y-104575501D01*
X184928825Y-104578020D01*
X184931552Y-104583690D01*
X184928016Y-104589270D01*
X184924881Y-104591969D01*
X184915599Y-104599486D01*
X184924140Y-104610344D01*
X184932682Y-104621203D01*
X184924033Y-104629853D01*
X184918272Y-104637348D01*
X184918716Y-104644352D01*
X184920434Y-104647939D01*
X184923170Y-104657764D01*
X184920124Y-104663057D01*
X184913023Y-104662323D01*
X184907946Y-104658746D01*
X184900761Y-104653711D01*
X184894807Y-104654823D01*
X184891971Y-104656802D01*
X184885350Y-104661801D01*
X184882851Y-104663604D01*
X184883734Y-104667435D01*
X184888125Y-104675207D01*
X184888291Y-104675461D01*
X184892758Y-104683224D01*
X184892219Y-104686990D01*
X184888706Y-104688807D01*
X184880654Y-104688233D01*
X184874562Y-104684583D01*
X184868193Y-104680166D01*
X184862213Y-104681433D01*
X184857786Y-104684310D01*
X184849727Y-104692977D01*
X184850098Y-104701682D01*
X184855117Y-104707489D01*
X184859508Y-104712256D01*
X184856777Y-104715708D01*
X184854813Y-104716855D01*
X184846188Y-104717731D01*
X184840548Y-104714084D01*
X184834374Y-104709780D01*
X184828539Y-104710961D01*
X184823694Y-104714101D01*
X184817266Y-104719632D01*
X184817335Y-104725032D01*
X184820600Y-104730561D01*
X184824603Y-104738499D01*
X184823006Y-104743534D01*
X184821469Y-104744964D01*
X184815584Y-104746729D01*
X184808594Y-104741474D01*
X184808210Y-104741053D01*
X184800502Y-104732536D01*
X184791163Y-104741309D01*
X184781824Y-104750083D01*
X184773210Y-104738257D01*
X184767129Y-104730572D01*
X184762829Y-104729098D01*
X184757160Y-104733167D01*
X184755648Y-104734529D01*
X184747931Y-104739722D01*
X184742410Y-104738300D01*
X184741820Y-104737747D01*
X184739544Y-104732186D01*
X184744037Y-104725026D01*
X184750279Y-104715710D01*
X184749101Y-104707930D01*
X184743429Y-104701607D01*
X184736553Y-104697016D01*
X184730189Y-104698791D01*
X184727566Y-104700601D01*
X184719193Y-104704201D01*
X184713962Y-104702048D01*
X184711183Y-104697437D01*
X184714525Y-104691256D01*
X184716877Y-104688632D01*
X184722371Y-104681977D01*
X184722433Y-104676816D01*
X184717342Y-104669268D01*
X184711503Y-104662286D01*
X184707131Y-104661615D01*
X184700640Y-104666773D01*
X184700399Y-104666991D01*
X184693457Y-104672213D01*
X184689336Y-104671440D01*
X184687589Y-104669096D01*
X184686954Y-104660842D01*
X184689964Y-104656231D01*
X184695370Y-104648195D01*
X184694128Y-104641029D01*
X184689063Y-104634541D01*
X184683174Y-104629290D01*
X184678145Y-104630513D01*
X184674325Y-104633734D01*
X184667438Y-104638270D01*
X184661486Y-104636365D01*
X184659867Y-104635093D01*
X184655790Y-104630499D01*
X184657816Y-104626231D01*
D15*
X170533000Y-113528000D02*
X170033000Y-113528000D01*
X170033000Y-114468000D02*
X170533000Y-114468000D01*
X174320000Y-111050000D02*
X174320000Y-110550000D01*
X173380000Y-110550000D02*
X173380000Y-111050000D01*
D14*
X175308000Y-113523000D02*
X175908000Y-113523000D01*
X181558000Y-119773000D02*
X180958000Y-119773000D01*
X181558000Y-113523000D02*
X180958000Y-113523000D01*
X175308000Y-119773000D02*
X175308000Y-119173000D01*
X181558000Y-119773000D02*
X181558000Y-119173000D01*
X181558000Y-113523000D02*
X181558000Y-114123000D01*
X175308000Y-113523000D02*
X175308000Y-114123000D01*
X178366000Y-130000000D02*
X178366000Y-128800000D01*
X177716000Y-127900000D02*
X174816000Y-127900000D01*
X174166000Y-128800000D02*
X174166000Y-130000000D01*
X174816000Y-130900000D02*
X177716000Y-130900000D01*
D11*
X182200000Y-125871429D02*
X182000000Y-125585714D01*
X181857143Y-125871429D02*
X181857143Y-125271429D01*
X182085715Y-125271429D01*
X182142857Y-125300000D01*
X182171429Y-125328571D01*
X182200000Y-125385714D01*
X182200000Y-125471429D01*
X182171429Y-125528571D01*
X182142857Y-125557143D01*
X182085715Y-125585714D01*
X181857143Y-125585714D01*
X182428572Y-125328571D02*
X182457143Y-125300000D01*
X182514286Y-125271429D01*
X182657143Y-125271429D01*
X182714286Y-125300000D01*
X182742857Y-125328571D01*
X182771429Y-125385714D01*
X182771429Y-125442857D01*
X182742857Y-125528571D01*
X182400000Y-125871429D01*
X182771429Y-125871429D01*
X169894286Y-124572714D02*
X169894286Y-124858429D01*
X169694286Y-124258429D02*
X169894286Y-124572714D01*
X170094286Y-124258429D01*
X170608572Y-124858429D02*
X170265715Y-124858429D01*
X170437143Y-124858429D02*
X170437143Y-124258429D01*
X170380000Y-124344143D01*
X170322858Y-124401286D01*
X170265715Y-124429857D01*
X168882000Y-129121286D02*
X168853429Y-129149857D01*
X168767715Y-129178429D01*
X168710572Y-129178429D01*
X168624857Y-129149857D01*
X168567715Y-129092714D01*
X168539143Y-129035571D01*
X168510572Y-128921286D01*
X168510572Y-128835571D01*
X168539143Y-128721286D01*
X168567715Y-128664143D01*
X168624857Y-128607000D01*
X168710572Y-128578429D01*
X168767715Y-128578429D01*
X168853429Y-128607000D01*
X168882000Y-128635571D01*
X169082000Y-128578429D02*
X169453429Y-128578429D01*
X169253429Y-128807000D01*
X169339143Y-128807000D01*
X169396286Y-128835571D01*
X169424857Y-128864143D01*
X169453429Y-128921286D01*
X169453429Y-129064143D01*
X169424857Y-129121286D01*
X169396286Y-129149857D01*
X169339143Y-129178429D01*
X169167715Y-129178429D01*
X169110572Y-129149857D01*
X169082000Y-129121286D01*
X168882000Y-130788286D02*
X168853429Y-130816857D01*
X168767715Y-130845429D01*
X168710572Y-130845429D01*
X168624857Y-130816857D01*
X168567715Y-130759714D01*
X168539143Y-130702571D01*
X168510572Y-130588286D01*
X168510572Y-130502571D01*
X168539143Y-130388286D01*
X168567715Y-130331143D01*
X168624857Y-130274000D01*
X168710572Y-130245429D01*
X168767715Y-130245429D01*
X168853429Y-130274000D01*
X168882000Y-130302571D01*
X169396286Y-130445429D02*
X169396286Y-130845429D01*
X169253429Y-130216857D02*
X169110572Y-130645429D01*
X169482000Y-130645429D01*
X170266000Y-122565286D02*
X170237429Y-122593857D01*
X170151715Y-122622429D01*
X170094572Y-122622429D01*
X170008857Y-122593857D01*
X169951715Y-122536714D01*
X169923143Y-122479571D01*
X169894572Y-122365286D01*
X169894572Y-122279571D01*
X169923143Y-122165286D01*
X169951715Y-122108143D01*
X170008857Y-122051000D01*
X170094572Y-122022429D01*
X170151715Y-122022429D01*
X170237429Y-122051000D01*
X170266000Y-122079571D01*
X170808857Y-122022429D02*
X170523143Y-122022429D01*
X170494572Y-122308143D01*
X170523143Y-122279571D01*
X170580286Y-122251000D01*
X170723143Y-122251000D01*
X170780286Y-122279571D01*
X170808857Y-122308143D01*
X170837429Y-122365286D01*
X170837429Y-122508143D01*
X170808857Y-122565286D01*
X170780286Y-122593857D01*
X170723143Y-122622429D01*
X170580286Y-122622429D01*
X170523143Y-122593857D01*
X170494572Y-122565286D01*
X170242000Y-128292286D02*
X170213429Y-128320857D01*
X170127715Y-128349429D01*
X170070572Y-128349429D01*
X169984857Y-128320857D01*
X169927715Y-128263714D01*
X169899143Y-128206571D01*
X169870572Y-128092286D01*
X169870572Y-128006571D01*
X169899143Y-127892286D01*
X169927715Y-127835143D01*
X169984857Y-127778000D01*
X170070572Y-127749429D01*
X170127715Y-127749429D01*
X170213429Y-127778000D01*
X170242000Y-127806571D01*
X170756286Y-127749429D02*
X170642000Y-127749429D01*
X170584857Y-127778000D01*
X170556286Y-127806571D01*
X170499143Y-127892286D01*
X170470572Y-128006571D01*
X170470572Y-128235143D01*
X170499143Y-128292286D01*
X170527715Y-128320857D01*
X170584857Y-128349429D01*
X170699143Y-128349429D01*
X170756286Y-128320857D01*
X170784857Y-128292286D01*
X170813429Y-128235143D01*
X170813429Y-128092286D01*
X170784857Y-128035143D01*
X170756286Y-128006571D01*
X170699143Y-127978000D01*
X170584857Y-127978000D01*
X170527715Y-128006571D01*
X170499143Y-128035143D01*
X170470572Y-128092286D01*
X177200000Y-122414286D02*
X177171429Y-122442857D01*
X177085715Y-122471429D01*
X177028572Y-122471429D01*
X176942857Y-122442857D01*
X176885715Y-122385714D01*
X176857143Y-122328571D01*
X176828572Y-122214286D01*
X176828572Y-122128571D01*
X176857143Y-122014286D01*
X176885715Y-121957143D01*
X176942857Y-121900000D01*
X177028572Y-121871429D01*
X177085715Y-121871429D01*
X177171429Y-121900000D01*
X177200000Y-121928571D01*
X177400000Y-121871429D02*
X177800000Y-121871429D01*
X177542857Y-122471429D01*
X173255000Y-121626286D02*
X173226429Y-121654857D01*
X173140715Y-121683429D01*
X173083572Y-121683429D01*
X172997857Y-121654857D01*
X172940715Y-121597714D01*
X172912143Y-121540571D01*
X172883572Y-121426286D01*
X172883572Y-121340571D01*
X172912143Y-121226286D01*
X172940715Y-121169143D01*
X172997857Y-121112000D01*
X173083572Y-121083429D01*
X173140715Y-121083429D01*
X173226429Y-121112000D01*
X173255000Y-121140571D01*
X173597857Y-121340571D02*
X173540715Y-121312000D01*
X173512143Y-121283429D01*
X173483572Y-121226286D01*
X173483572Y-121197714D01*
X173512143Y-121140571D01*
X173540715Y-121112000D01*
X173597857Y-121083429D01*
X173712143Y-121083429D01*
X173769286Y-121112000D01*
X173797857Y-121140571D01*
X173826429Y-121197714D01*
X173826429Y-121226286D01*
X173797857Y-121283429D01*
X173769286Y-121312000D01*
X173712143Y-121340571D01*
X173597857Y-121340571D01*
X173540715Y-121369143D01*
X173512143Y-121397714D01*
X173483572Y-121454857D01*
X173483572Y-121569143D01*
X173512143Y-121626286D01*
X173540715Y-121654857D01*
X173597857Y-121683429D01*
X173712143Y-121683429D01*
X173769286Y-121654857D01*
X173797857Y-121626286D01*
X173826429Y-121569143D01*
X173826429Y-121454857D01*
X173797857Y-121397714D01*
X173769286Y-121369143D01*
X173712143Y-121340571D01*
X182919000Y-121880286D02*
X182890429Y-121908857D01*
X182804715Y-121937429D01*
X182747572Y-121937429D01*
X182661857Y-121908857D01*
X182604715Y-121851714D01*
X182576143Y-121794571D01*
X182547572Y-121680286D01*
X182547572Y-121594571D01*
X182576143Y-121480286D01*
X182604715Y-121423143D01*
X182661857Y-121366000D01*
X182747572Y-121337429D01*
X182804715Y-121337429D01*
X182890429Y-121366000D01*
X182919000Y-121394571D01*
X183204715Y-121937429D02*
X183319000Y-121937429D01*
X183376143Y-121908857D01*
X183404715Y-121880286D01*
X183461857Y-121794571D01*
X183490429Y-121680286D01*
X183490429Y-121451714D01*
X183461857Y-121394571D01*
X183433286Y-121366000D01*
X183376143Y-121337429D01*
X183261857Y-121337429D01*
X183204715Y-121366000D01*
X183176143Y-121394571D01*
X183147572Y-121451714D01*
X183147572Y-121594571D01*
X183176143Y-121651714D01*
X183204715Y-121680286D01*
X183261857Y-121708857D01*
X183376143Y-121708857D01*
X183433286Y-121680286D01*
X183461857Y-121651714D01*
X183490429Y-121594571D01*
X169286285Y-117054286D02*
X169257714Y-117082857D01*
X169172000Y-117111429D01*
X169114857Y-117111429D01*
X169029142Y-117082857D01*
X168972000Y-117025714D01*
X168943428Y-116968571D01*
X168914857Y-116854286D01*
X168914857Y-116768571D01*
X168943428Y-116654286D01*
X168972000Y-116597143D01*
X169029142Y-116540000D01*
X169114857Y-116511429D01*
X169172000Y-116511429D01*
X169257714Y-116540000D01*
X169286285Y-116568571D01*
X169857714Y-117111429D02*
X169514857Y-117111429D01*
X169686285Y-117111429D02*
X169686285Y-116511429D01*
X169629142Y-116597143D01*
X169572000Y-116654286D01*
X169514857Y-116682857D01*
X170229143Y-116511429D02*
X170286286Y-116511429D01*
X170343429Y-116540000D01*
X170372000Y-116568571D01*
X170400571Y-116625714D01*
X170429143Y-116740000D01*
X170429143Y-116882857D01*
X170400571Y-116997143D01*
X170372000Y-117054286D01*
X170343429Y-117082857D01*
X170286286Y-117111429D01*
X170229143Y-117111429D01*
X170172000Y-117082857D01*
X170143429Y-117054286D01*
X170114857Y-116997143D01*
X170086286Y-116882857D01*
X170086286Y-116740000D01*
X170114857Y-116625714D01*
X170143429Y-116568571D01*
X170172000Y-116540000D01*
X170229143Y-116511429D01*
X171889785Y-115149286D02*
X171861214Y-115177857D01*
X171775500Y-115206429D01*
X171718357Y-115206429D01*
X171632642Y-115177857D01*
X171575500Y-115120714D01*
X171546928Y-115063571D01*
X171518357Y-114949286D01*
X171518357Y-114863571D01*
X171546928Y-114749286D01*
X171575500Y-114692143D01*
X171632642Y-114635000D01*
X171718357Y-114606429D01*
X171775500Y-114606429D01*
X171861214Y-114635000D01*
X171889785Y-114663571D01*
X172461214Y-115206429D02*
X172118357Y-115206429D01*
X172289785Y-115206429D02*
X172289785Y-114606429D01*
X172232642Y-114692143D01*
X172175500Y-114749286D01*
X172118357Y-114777857D01*
X173032643Y-115206429D02*
X172689786Y-115206429D01*
X172861214Y-115206429D02*
X172861214Y-114606429D01*
X172804071Y-114692143D01*
X172746929Y-114749286D01*
X172689786Y-114777857D01*
X174239285Y-109523186D02*
X174210714Y-109551757D01*
X174125000Y-109580329D01*
X174067857Y-109580329D01*
X173982142Y-109551757D01*
X173925000Y-109494614D01*
X173896428Y-109437471D01*
X173867857Y-109323186D01*
X173867857Y-109237471D01*
X173896428Y-109123186D01*
X173925000Y-109066043D01*
X173982142Y-109008900D01*
X174067857Y-108980329D01*
X174125000Y-108980329D01*
X174210714Y-109008900D01*
X174239285Y-109037471D01*
X174810714Y-109580329D02*
X174467857Y-109580329D01*
X174639285Y-109580329D02*
X174639285Y-108980329D01*
X174582142Y-109066043D01*
X174525000Y-109123186D01*
X174467857Y-109151757D01*
X175039286Y-109037471D02*
X175067857Y-109008900D01*
X175125000Y-108980329D01*
X175267857Y-108980329D01*
X175325000Y-109008900D01*
X175353571Y-109037471D01*
X175382143Y-109094614D01*
X175382143Y-109151757D01*
X175353571Y-109237471D01*
X175010714Y-109580329D01*
X175382143Y-109580329D01*
X175890285Y-112609286D02*
X175861714Y-112637857D01*
X175776000Y-112666429D01*
X175718857Y-112666429D01*
X175633142Y-112637857D01*
X175576000Y-112580714D01*
X175547428Y-112523571D01*
X175518857Y-112409286D01*
X175518857Y-112323571D01*
X175547428Y-112209286D01*
X175576000Y-112152143D01*
X175633142Y-112095000D01*
X175718857Y-112066429D01*
X175776000Y-112066429D01*
X175861714Y-112095000D01*
X175890285Y-112123571D01*
X176461714Y-112666429D02*
X176118857Y-112666429D01*
X176290285Y-112666429D02*
X176290285Y-112066429D01*
X176233142Y-112152143D01*
X176176000Y-112209286D01*
X176118857Y-112237857D01*
X176661714Y-112066429D02*
X177033143Y-112066429D01*
X176833143Y-112295000D01*
X176918857Y-112295000D01*
X176976000Y-112323571D01*
X177004571Y-112352143D01*
X177033143Y-112409286D01*
X177033143Y-112552143D01*
X177004571Y-112609286D01*
X176976000Y-112637857D01*
X176918857Y-112666429D01*
X176747429Y-112666429D01*
X176690286Y-112637857D01*
X176661714Y-112609286D01*
X177103143Y-123969429D02*
X177103143Y-123369429D01*
X177246000Y-123369429D01*
X177331715Y-123398000D01*
X177388857Y-123455143D01*
X177417429Y-123512286D01*
X177446000Y-123626571D01*
X177446000Y-123712286D01*
X177417429Y-123826571D01*
X177388857Y-123883714D01*
X177331715Y-123940857D01*
X177246000Y-123969429D01*
X177103143Y-123969429D01*
X178017429Y-123969429D02*
X177674572Y-123969429D01*
X177846000Y-123969429D02*
X177846000Y-123369429D01*
X177788857Y-123455143D01*
X177731715Y-123512286D01*
X177674572Y-123540857D01*
X170334000Y-118510429D02*
X170048286Y-118510429D01*
X170048286Y-117910429D01*
X170848286Y-118510429D02*
X170505429Y-118510429D01*
X170676857Y-118510429D02*
X170676857Y-117910429D01*
X170619714Y-117996143D01*
X170562572Y-118053286D01*
X170505429Y-118081857D01*
X171858000Y-121429429D02*
X171572286Y-121429429D01*
X171572286Y-120829429D01*
X172029429Y-120886571D02*
X172058000Y-120858000D01*
X172115143Y-120829429D01*
X172258000Y-120829429D01*
X172315143Y-120858000D01*
X172343714Y-120886571D01*
X172372286Y-120943714D01*
X172372286Y-121000857D01*
X172343714Y-121086571D01*
X172000857Y-121429429D01*
X172372286Y-121429429D01*
X171985000Y-129303429D02*
X171785000Y-129017714D01*
X171642143Y-129303429D02*
X171642143Y-128703429D01*
X171870715Y-128703429D01*
X171927857Y-128732000D01*
X171956429Y-128760571D01*
X171985000Y-128817714D01*
X171985000Y-128903429D01*
X171956429Y-128960571D01*
X171927857Y-128989143D01*
X171870715Y-129017714D01*
X171642143Y-129017714D01*
X172556429Y-129303429D02*
X172213572Y-129303429D01*
X172385000Y-129303429D02*
X172385000Y-128703429D01*
X172327857Y-128789143D01*
X172270715Y-128846286D01*
X172213572Y-128874857D01*
X182200000Y-127571429D02*
X182000000Y-127285714D01*
X181857143Y-127571429D02*
X181857143Y-126971429D01*
X182085715Y-126971429D01*
X182142857Y-127000000D01*
X182171429Y-127028571D01*
X182200000Y-127085714D01*
X182200000Y-127171429D01*
X182171429Y-127228571D01*
X182142857Y-127257143D01*
X182085715Y-127285714D01*
X181857143Y-127285714D01*
X182400000Y-126971429D02*
X182771429Y-126971429D01*
X182571429Y-127200000D01*
X182657143Y-127200000D01*
X182714286Y-127228571D01*
X182742857Y-127257143D01*
X182771429Y-127314286D01*
X182771429Y-127457143D01*
X182742857Y-127514286D01*
X182714286Y-127542857D01*
X182657143Y-127571429D01*
X182485715Y-127571429D01*
X182428572Y-127542857D01*
X182400000Y-127514286D01*
X182200000Y-124271429D02*
X182000000Y-123985714D01*
X181857143Y-124271429D02*
X181857143Y-123671429D01*
X182085715Y-123671429D01*
X182142857Y-123700000D01*
X182171429Y-123728571D01*
X182200000Y-123785714D01*
X182200000Y-123871429D01*
X182171429Y-123928571D01*
X182142857Y-123957143D01*
X182085715Y-123985714D01*
X181857143Y-123985714D01*
X182714286Y-123871429D02*
X182714286Y-124271429D01*
X182571429Y-123642857D02*
X182428572Y-124071429D01*
X182800000Y-124071429D01*
X172307286Y-113968214D02*
X172307286Y-114253929D01*
X172107286Y-113653929D02*
X172307286Y-113968214D01*
X172507286Y-113653929D01*
X172678715Y-113711071D02*
X172707286Y-113682500D01*
X172764429Y-113653929D01*
X172907286Y-113653929D01*
X172964429Y-113682500D01*
X172993000Y-113711071D01*
X173021572Y-113768214D01*
X173021572Y-113825357D01*
X172993000Y-113911071D01*
X172650143Y-114253929D01*
X173021572Y-114253929D01*
X179859000Y-110888429D02*
X179573286Y-110888429D01*
X179573286Y-110288429D01*
X180001857Y-110288429D02*
X180373286Y-110288429D01*
X180173286Y-110517000D01*
X180259000Y-110517000D01*
X180316143Y-110545571D01*
X180344714Y-110574143D01*
X180373286Y-110631286D01*
X180373286Y-110774143D01*
X180344714Y-110831286D01*
X180316143Y-110859857D01*
X180259000Y-110888429D01*
X180087572Y-110888429D01*
X180030429Y-110859857D01*
X180001857Y-110831286D01*
X180335285Y-112228286D02*
X180306714Y-112256857D01*
X180221000Y-112285429D01*
X180163857Y-112285429D01*
X180078142Y-112256857D01*
X180021000Y-112199714D01*
X179992428Y-112142571D01*
X179963857Y-112028286D01*
X179963857Y-111942571D01*
X179992428Y-111828286D01*
X180021000Y-111771143D01*
X180078142Y-111714000D01*
X180163857Y-111685429D01*
X180221000Y-111685429D01*
X180306714Y-111714000D01*
X180335285Y-111742571D01*
X180906714Y-112285429D02*
X180563857Y-112285429D01*
X180735285Y-112285429D02*
X180735285Y-111685429D01*
X180678142Y-111771143D01*
X180621000Y-111828286D01*
X180563857Y-111856857D01*
X181421000Y-111885429D02*
X181421000Y-112285429D01*
X181278143Y-111656857D02*
X181135286Y-112085429D01*
X181506714Y-112085429D01*
X170183000Y-112942286D02*
X170154429Y-112970857D01*
X170068715Y-112999429D01*
X170011572Y-112999429D01*
X169925857Y-112970857D01*
X169868715Y-112913714D01*
X169840143Y-112856571D01*
X169811572Y-112742286D01*
X169811572Y-112656571D01*
X169840143Y-112542286D01*
X169868715Y-112485143D01*
X169925857Y-112428000D01*
X170011572Y-112399429D01*
X170068715Y-112399429D01*
X170154429Y-112428000D01*
X170183000Y-112456571D01*
X170754429Y-112999429D02*
X170411572Y-112999429D01*
X170583000Y-112999429D02*
X170583000Y-112399429D01*
X170525857Y-112485143D01*
X170468715Y-112542286D01*
X170411572Y-112570857D01*
X173763000Y-112736286D02*
X173734429Y-112764857D01*
X173648715Y-112793429D01*
X173591572Y-112793429D01*
X173505857Y-112764857D01*
X173448715Y-112707714D01*
X173420143Y-112650571D01*
X173391572Y-112536286D01*
X173391572Y-112450571D01*
X173420143Y-112336286D01*
X173448715Y-112279143D01*
X173505857Y-112222000D01*
X173591572Y-112193429D01*
X173648715Y-112193429D01*
X173734429Y-112222000D01*
X173763000Y-112250571D01*
X173991572Y-112250571D02*
X174020143Y-112222000D01*
X174077286Y-112193429D01*
X174220143Y-112193429D01*
X174277286Y-112222000D01*
X174305857Y-112250571D01*
X174334429Y-112307714D01*
X174334429Y-112364857D01*
X174305857Y-112450571D01*
X173963000Y-112793429D01*
X174334429Y-112793429D01*
D18*
X182499048Y-116947190D02*
X182499048Y-117351952D01*
X182522857Y-117399571D01*
X182546667Y-117423381D01*
X182594286Y-117447190D01*
X182689524Y-117447190D01*
X182737143Y-117423381D01*
X182760952Y-117399571D01*
X182784762Y-117351952D01*
X182784762Y-116947190D01*
X183284762Y-117447190D02*
X182999048Y-117447190D01*
X183141905Y-117447190D02*
X183141905Y-116947190D01*
X183094286Y-117018619D01*
X183046667Y-117066238D01*
X182999048Y-117090048D01*
D11*
X178666000Y-129642857D02*
X178751714Y-129671429D01*
X178894571Y-129671429D01*
X178951714Y-129642857D01*
X178980285Y-129614286D01*
X179008857Y-129557143D01*
X179008857Y-129500000D01*
X178980285Y-129442857D01*
X178951714Y-129414286D01*
X178894571Y-129385714D01*
X178780285Y-129357143D01*
X178723143Y-129328571D01*
X178694571Y-129300000D01*
X178666000Y-129242857D01*
X178666000Y-129185714D01*
X178694571Y-129128571D01*
X178723143Y-129100000D01*
X178780285Y-129071429D01*
X178923143Y-129071429D01*
X179008857Y-129100000D01*
X179208857Y-129071429D02*
X179351714Y-129671429D01*
X179466000Y-129242857D01*
X179580286Y-129671429D01*
X179723143Y-129071429D01*
X180266000Y-129671429D02*
X179923143Y-129671429D01*
X180094571Y-129671429D02*
X180094571Y-129071429D01*
X180037428Y-129157143D01*
X179980286Y-129214286D01*
X179923143Y-129242857D01*
M02*
