M48
;DRILL file {KiCad 4.0.7} date 09/26/18 10:41:14
;FORMAT={-:-/ absolute / metric / decimal}
FMAT,2
METRIC,TZ
T1C0.300
T2C0.400
T3C1.000
%
G90
G05
M71
T1
X168.275Y-119.253
X168.783Y-119.761
X173.101Y-115.57
X173.989Y-116.199
X174.117Y-116.84
X174.372Y-117.481
X174.495Y-114.511
X174.536Y-115.164
X175.006Y-113.919
X176.833Y-115.048
X176.833Y-116.048
X176.833Y-117.248
X176.833Y-118.248
X177.517Y-121.245
X177.833Y-115.048
X177.833Y-116.048
X177.833Y-117.248
X177.833Y-118.248
X178.028Y-120.687
X178.165Y-121.333
X178.819Y-121.318
X178.833Y-115.048
X178.833Y-116.048
X178.833Y-117.248
X178.833Y-118.248
X179.117Y-112.368
X179.434Y-121.541
X179.536Y-111.855
X180.033Y-115.048
X180.033Y-116.048
X180.033Y-117.248
X180.033Y-118.248
X180.081Y-121.635
X180.467Y-127.648
X180.528Y-112.659
X180.716Y-111.355
X180.855Y-121.535
X180.89Y-120.882
X181.006Y-120.232
X181.27Y-112.664
X181.991Y-125.603
X182.011Y-114.022
X182.441Y-114.995
X182.499Y-127.127
X182.626Y-115.634
X182.846Y-116.304
X183.038Y-124.904
T2
X166.865Y-108.153
X168.377Y-108.153
X168.402Y-109.093
X169.799Y-129.159
X169.926Y-125.222
X170.028Y-108.153
X170.053Y-109.093
X170.561Y-119.634
X171.298Y-108.153
X171.323Y-109.093
X171.674Y-113.853
X172.72Y-109.093
X172.758Y-108.153
X173.291Y-111.95
X174.371Y-108.153
X174.371Y-109.093
X175.514Y-119.825
X175.87Y-108.14
X175.895Y-109.093
X176.149Y-131.064
X176.276Y-129.032
X177.292Y-110.109
X177.337Y-108.14
X177.338Y-109.098
X178.435Y-125.222
X179.794Y-108.141
X179.794Y-109.099
X179.832Y-109.855
X180.8Y-108.141
X180.848Y-109.093
X180.848Y-109.855
X181.864Y-108.204
X181.864Y-109.093
X181.864Y-109.855
X183.134Y-130.175
X183.261Y-126.365
X184.931Y-126.493
T3
X165.974Y-109.868
X165.974Y-112.408
X165.974Y-114.948
X165.974Y-117.488
X165.974Y-120.028
X165.974Y-122.568
X165.974Y-125.108
X165.974Y-127.648
X165.974Y-130.188
X172.324Y-133.098
X174.864Y-133.098
X177.404Y-133.098
X179.944Y-133.098
X186.294Y-109.868
X186.294Y-112.408
X186.294Y-114.948
X186.294Y-117.488
X186.294Y-120.028
X186.294Y-122.568
X186.294Y-125.108
X186.294Y-127.648
X186.294Y-130.188
T0
M30
